<svg width="24" height="24" viewBox="0 0 24 24" fill="none" xmlns="http://www.w3.org/2000/svg">
<path d="M11.9492 0.123779C9.59025 0.123779 7.28427 0.823292 5.32286 2.13386C3.36146 3.44443 1.83273 5.30719 0.929998 7.48658C0.0272632 9.66598 -0.208934 12.0641 0.251276 14.3778C0.711486 16.6914 1.84743 18.8166 3.51547 20.4846C5.18351 22.1527 7.30871 23.2886 9.62235 23.7488C11.936 24.209 14.3341 23.9728 16.5135 23.0701C18.6929 22.1674 20.5557 20.6386 21.8662 18.6772C23.1768 16.7158 23.8763 14.4099 23.8763 12.0509C23.8763 8.88762 22.6197 5.85392 20.383 3.61715C18.1462 1.38038 15.1125 0.123779 11.9492 0.123779ZM11.9492 21.1155C10.1581 21.1155 8.40731 20.5844 6.9181 19.5893C5.42888 18.5943 4.26818 17.1799 3.58277 15.5252C2.89736 13.8705 2.71803 12.0497 3.06744 10.293C3.41686 8.53638 4.27934 6.9228 5.54581 5.65633C6.81229 4.38986 8.42587 3.52738 10.1825 3.17796C11.9392 2.82854 13.76 3.00787 15.4147 3.69328C17.0694 4.37869 18.4837 5.5394 19.4788 7.02861C20.4739 8.51782 21.005 10.2687 21.005 12.0597C21.005 13.2489 20.7707 14.4265 20.3157 15.5252C19.8606 16.6239 19.1935 17.6222 18.3526 18.4631C17.5117 19.304 16.5134 19.9711 15.4147 20.4262C14.316 20.8813 13.1384 21.1155 11.9492 21.1155Z" fill="#231F20"/>
<path d="M11.9712 3.62231C10.3036 3.62231 8.67332 4.11679 7.28663 5.04321C5.89994 5.96964 4.81907 7.28641 4.18067 8.82707C3.54228 10.3677 3.37502 12.0631 3.70005 13.6988C4.02507 15.3345 4.82779 16.8371 6.00672 18.0166C7.18564 19.1962 8.68782 19.9997 10.3234 20.3256C11.9589 20.6514 13.6543 20.4851 15.1953 19.8475C16.7363 19.2099 18.0537 18.1297 18.9808 16.7435C19.908 15.3573 20.4033 13.7273 20.4042 12.0596C20.403 9.82305 19.5143 7.67833 17.9332 6.0964C16.3521 4.51448 14.2078 3.62465 11.9712 3.62231Z" fill="#BE292E"/>
<path d="M15.0768 12.4174C14.7853 12.4174 14.7234 12.3909 14.5953 12.1347L13.5705 9.5991C13.513 9.46658 13.4556 9.46216 13.3982 9.5991L12.3998 12.1303C12.338 12.2982 12.3292 12.4042 11.9581 12.413C11.9409 12.4169 11.9255 12.4264 11.9143 12.44C11.9031 12.4536 11.8968 12.4705 11.8962 12.4881C11.8962 12.5085 11.904 12.528 11.9179 12.5428C11.9319 12.5576 11.951 12.5665 11.9713 12.5676H12.8548C12.8647 12.5671 12.8744 12.5646 12.8833 12.5603C12.8921 12.556 12.9001 12.5499 12.9067 12.5425C12.9132 12.5352 12.9183 12.5265 12.9215 12.5172C12.9247 12.5079 12.9261 12.498 12.9255 12.4881C12.9255 12.4689 12.9182 12.4505 12.9051 12.4365C12.892 12.4226 12.874 12.4141 12.8548 12.413H12.7797C12.6737 12.413 12.5544 12.413 12.656 12.1303L12.9034 11.4942H13.8267L14.1447 12.3114C14.1889 12.3909 14.1447 12.3909 14.1094 12.413V12.4439C14.1094 12.4881 14.1094 12.5235 14.1536 12.5235H15.121C15.1475 12.5235 15.1696 12.4881 15.1696 12.4439C15.1696 12.3998 15.1696 12.3688 15.121 12.3688M13.0006 11.291L13.3849 10.2529C13.3849 10.191 13.4423 10.1734 13.4733 10.2529L13.8178 11.291H13.0006Z" fill="white"/>
<path d="M10.2 9.58594H11.5252C12.1083 9.62569 12.2894 9.97467 12.285 10.3016C12.2792 10.5457 12.1779 10.7778 12.0027 10.948C11.8276 11.1181 11.5927 11.2128 11.3485 11.2116H11.269C11.2381 11.2116 11.216 11.2116 11.216 11.1806C11.216 11.1497 11.216 11.1541 11.2557 11.1497C11.3464 11.1439 11.4349 11.1195 11.5157 11.0778C11.5964 11.0361 11.6677 10.9782 11.7249 10.9077C11.7822 10.8371 11.8242 10.7555 11.8484 10.6679C11.8726 10.5803 11.8783 10.4887 11.8653 10.3987C11.8669 10.2499 11.8192 10.1046 11.7298 9.98561C11.6403 9.86659 11.514 9.78044 11.3706 9.74055H11.1497C11.1164 9.73679 11.0829 9.74625 11.0565 9.7669C11.03 9.78755 11.0128 9.81774 11.0083 9.85098V12.1348C11.0083 12.3424 11.185 12.4043 11.4501 12.4043C11.4724 12.4043 11.4937 12.4131 11.5094 12.4289C11.5252 12.4446 11.534 12.4659 11.534 12.4882C11.534 12.5105 11.5252 12.5318 11.5094 12.5476C11.4937 12.5633 11.4724 12.5721 11.4501 12.5721H10.3104C10.2881 12.5721 10.2668 12.5633 10.251 12.5476C10.2353 12.5318 10.2265 12.5105 10.2265 12.4882C10.2265 12.4659 10.2353 12.4446 10.251 12.4289C10.2668 12.4131 10.2881 12.4043 10.3104 12.4043C10.5843 12.4043 10.5445 12.2938 10.5534 12.1348V9.85098C10.5534 9.69637 10.359 9.69196 10.1911 9.66545C10.1806 9.66545 10.1705 9.66126 10.163 9.65381C10.1556 9.64635 10.1514 9.63624 10.1514 9.62569C10.1514 9.61515 10.1556 9.60504 10.163 9.59758C10.1705 9.59013 10.1806 9.58594 10.1911 9.58594" fill="white"/>
<path d="M10.1513 12.4174C9.8597 12.4174 9.79785 12.3909 9.66975 12.1347L8.64048 9.5991C8.58747 9.46658 8.53005 9.46216 8.47262 9.5991L7.47428 12.1303C7.40802 12.2982 7.39918 12.4042 7.03253 12.413C7.01619 12.4177 7.00178 12.4276 6.99145 12.4411C6.98111 12.4546 6.97538 12.4711 6.97511 12.4881C6.9745 12.4983 6.976 12.5086 6.9795 12.5182C6.98301 12.5278 6.98844 12.5366 6.99548 12.5441C7.00251 12.5515 7.01099 12.5575 7.02041 12.5615C7.02982 12.5656 7.03996 12.5676 7.0502 12.5676H7.93369C7.954 12.5665 7.97311 12.5576 7.98708 12.5428C8.00105 12.528 8.00882 12.5085 8.00879 12.4881C8.00773 12.4685 7.99948 12.45 7.98562 12.4362C7.97176 12.4223 7.95326 12.4141 7.93369 12.413H7.86301C7.75699 12.413 7.63331 12.413 7.73491 12.1303L7.9867 11.4942H8.90995L9.21475 12.3158C9.25893 12.3953 9.21475 12.3953 9.17941 12.4174V12.4484C9.17941 12.4925 9.17941 12.5279 9.228 12.5279H10.1954C10.2219 12.5279 10.244 12.4925 10.244 12.4484C10.244 12.4042 10.244 12.3733 10.1954 12.3733M8.07063 11.2954L8.45495 10.2573C8.48145 10.1955 8.51679 10.1778 8.5433 10.2573L8.88786 11.2954H8.07063Z" fill="white"/>
<path d="M6.91334 9.70081C6.91229 9.70705 6.90903 9.71271 6.90417 9.71676C6.89931 9.72081 6.89316 9.72299 6.88683 9.7229C6.66596 9.7229 6.56878 9.7229 6.54227 9.86868V12.391C6.49368 13.0051 6.10053 13.2745 5.56602 13.5617C5.53068 13.5617 5.4865 13.5617 5.54393 13.5131C5.74349 13.4076 5.90595 13.2435 6.00941 13.0429C6.11288 12.8423 6.15239 12.6148 6.12262 12.391V9.86868C6.09611 9.7229 5.98126 9.7229 5.76039 9.7229H5.72946V9.63013C5.72946 9.60363 5.76039 9.58154 5.80014 9.58154H6.878C6.878 9.58154 6.93101 9.58154 6.93101 9.61688L6.91334 9.70081Z" fill="white"/>
<path d="M10.169 15.3639C9.86054 15.4741 9.52338 15.4741 9.21487 15.3639C8.9189 15.2844 8.57434 15.0193 8.40206 14.9752C8.36717 14.9672 8.33093 14.9672 8.29604 14.9752C8.42073 14.8931 8.52259 14.7808 8.59211 14.6487C8.66163 14.5166 8.69655 14.369 8.69361 14.2198C8.72895 13.7383 8.41531 13.4026 7.84104 13.3716H7.77478C7.66229 13.3705 7.55069 13.3917 7.44647 13.434C7.34225 13.4764 7.24751 13.5391 7.16776 13.6185C7.088 13.6978 7.02483 13.7922 6.98191 13.8962C6.939 14.0002 6.91721 14.1117 6.9178 14.2242C6.90446 14.3435 6.91813 14.4642 6.95782 14.5775C6.9975 14.6907 7.06217 14.7936 7.14703 14.8785C7.23189 14.9633 7.33476 15.028 7.44802 15.0677C7.56128 15.1073 7.68202 15.121 7.80129 15.1077C7.91584 15.1176 8.03108 15.0994 8.13701 15.0547C8.3623 15.0547 8.72454 15.6599 9.69196 15.5671C10.0895 15.5406 10.2883 15.333 10.1337 15.386M7.82337 15.0458C7.67204 15.0205 7.53103 14.9527 7.41682 14.8502C7.30261 14.7477 7.21993 14.6149 7.17843 14.4672C7.17843 14.3876 7.17843 14.3346 7.15634 14.2374C7.15634 13.7957 7.36838 13.4732 7.74828 13.4732H7.82337C8.00015 13.4995 8.16057 13.5913 8.27271 13.7305C8.38485 13.8696 8.44049 14.0459 8.42857 14.2242V14.4804C8.42742 14.5541 8.41176 14.6268 8.3825 14.6944C8.35324 14.7621 8.31094 14.8233 8.25802 14.8745C8.2051 14.9258 8.1426 14.9662 8.07409 14.9933C8.00558 15.0204 7.93239 15.0338 7.85872 15.0326" fill="white"/>
<path d="M10.3501 13.7824V14.6659C10.3346 14.7957 10.2692 14.9143 10.1678 14.9967C10.0664 15.0791 9.93695 15.1189 9.80677 15.1077C9.44454 15.1077 9.15299 14.9045 9.15299 14.6659V13.7824C9.15299 13.7515 9.11323 13.7206 9.06464 13.7206H8.99838C8.99338 13.7212 8.9883 13.7208 8.98349 13.7193C8.97868 13.7178 8.97425 13.7153 8.97048 13.712C8.96672 13.7086 8.96371 13.7045 8.96166 13.6999C8.95962 13.6953 8.95858 13.6903 8.95862 13.6853C8.95862 13.68 8.95965 13.6749 8.96165 13.6701C8.96364 13.6652 8.96657 13.6608 8.97027 13.6572C8.97396 13.6535 8.97834 13.6505 8.98316 13.6485C8.98799 13.6465 8.99316 13.6455 8.99838 13.6455H9.55939C9.56915 13.6466 9.57817 13.6513 9.58469 13.6586C9.59122 13.6659 9.59479 13.6754 9.59473 13.6853C9.59473 13.6946 9.59101 13.7036 9.58438 13.7103C9.57775 13.7169 9.56877 13.7206 9.55939 13.7206H9.4843C9.43129 13.7206 9.38711 13.7515 9.38711 13.7824V14.6659C9.41307 14.7687 9.47508 14.8587 9.56185 14.9195C9.64862 14.9803 9.75436 15.0079 9.85978 14.9972C9.94626 14.993 10.0281 14.9567 10.0893 14.8955C10.1505 14.8342 10.1868 14.7524 10.1911 14.6659V13.7824C10.1911 13.766 10.1846 13.7503 10.173 13.7387C10.1614 13.7271 10.1456 13.7206 10.1292 13.7206H10.0453C10.0405 13.7214 10.0356 13.721 10.0309 13.7195C10.0263 13.7179 10.0221 13.7154 10.0187 13.7119C10.0152 13.7085 10.0126 13.7043 10.0111 13.6996C10.0096 13.695 10.0092 13.6901 10.01 13.6853C10.0093 13.6803 10.0098 13.6752 10.0113 13.6704C10.0128 13.6656 10.0153 13.6611 10.0186 13.6574C10.022 13.6536 10.0261 13.6506 10.0307 13.6486C10.0353 13.6465 10.0403 13.6455 10.0453 13.6455H10.5401C10.5451 13.6455 10.5501 13.6465 10.5547 13.6486C10.5593 13.6506 10.5634 13.6536 10.5668 13.6574C10.5701 13.6611 10.5726 13.6656 10.5741 13.6704C10.5756 13.6752 10.576 13.6803 10.5754 13.6853C10.5762 13.6901 10.5758 13.695 10.5743 13.6996C10.5727 13.7043 10.5702 13.7085 10.5667 13.7119C10.5633 13.7154 10.5591 13.7179 10.5544 13.7195C10.5498 13.721 10.5449 13.7214 10.5401 13.7206H10.5003C10.4747 13.7183 10.449 13.7228 10.4257 13.7337C10.4025 13.7446 10.3825 13.7614 10.3678 13.7824" fill="white"/>
<path d="M12.0994 15.0061C11.9492 15.0061 11.9139 15.0061 11.8476 14.8736L11.3131 13.6809C11.2822 13.619 11.2557 13.6146 11.2248 13.6809L10.7035 14.8692C10.6682 14.9487 10.6637 14.9973 10.4738 15.0017C10.4658 15.0041 10.4587 15.0087 10.4532 15.0149C10.4478 15.0212 10.4442 15.0288 10.4429 15.037C10.4428 15.0421 10.4439 15.0471 10.4459 15.0517C10.448 15.0563 10.451 15.0604 10.4547 15.0637C10.4585 15.0671 10.4629 15.0696 10.4677 15.0711C10.4726 15.0725 10.4776 15.073 10.4826 15.0724H10.9244C10.9337 15.0724 10.9427 15.0686 10.9494 15.062C10.956 15.0554 10.9597 15.0464 10.9597 15.037C10.9597 15.0277 10.956 15.0187 10.9494 15.012C10.9427 15.0054 10.9337 15.0017 10.9244 15.0017H10.8846C10.8316 15.0017 10.7653 15.0017 10.8184 14.8692L10.9509 14.5688H11.4324L11.5958 14.9531C11.5958 14.9929 11.5958 14.9929 11.5958 15.0017C11.5958 15.0105 11.5958 15.0017 11.5958 15.0017C11.5958 15.0017 11.5958 15.037 11.6223 15.037H12.1259C12.1259 15.037 12.1524 15.037 12.1524 15.0017C12.1524 14.9663 12.1524 14.9663 12.1259 14.9663M10.9818 14.4981L11.185 14.0122C11.185 13.9813 11.2159 13.9724 11.2292 14.0122L11.4103 14.4981H10.9818Z" fill="white"/>
<path d="M13.1905 15.0239V15.0769H12.2452C12.2358 15.0769 12.2268 15.0732 12.2202 15.0666C12.2136 15.06 12.2099 15.051 12.2099 15.0416C12.2099 15.0322 12.2136 15.0232 12.2202 15.0166C12.2268 15.01 12.2358 15.0063 12.2452 15.0063C12.282 15.0075 12.3178 14.9943 12.345 14.9696C12.3722 14.9448 12.3887 14.9105 12.391 14.8737V13.7826C12.391 13.7517 12.3468 13.7296 12.2894 13.7296H12.2452C12.2452 13.7296 12.2054 13.7296 12.2054 13.7031C12.206 13.6985 12.2075 13.694 12.2098 13.6899C12.2121 13.6858 12.2151 13.6822 12.2188 13.6793C12.2225 13.6764 12.2268 13.6743 12.2313 13.6731C12.2358 13.6719 12.2406 13.6716 12.2452 13.6722H12.8018C12.8062 13.6716 12.8107 13.6719 12.815 13.6731C12.8193 13.6744 12.8232 13.6766 12.8266 13.6795C12.8299 13.6825 12.8326 13.6861 12.8344 13.6902C12.8363 13.6942 12.8372 13.6987 12.8371 13.7031C12.8371 13.7031 12.8371 13.7296 12.8018 13.7296H12.7223C12.6802 13.7332 12.6409 13.752 12.6119 13.7826V14.8649C12.6472 14.9179 12.7135 14.9753 12.899 14.9665C13.0845 14.9577 13.1817 14.9665 13.2347 14.8119C13.2347 14.7677 13.2877 14.7456 13.2789 14.8119C13.2841 14.9 13.2592 14.9872 13.2082 15.0593" fill="white"/>
<path d="M14.074 15.0769H13.5262C13.518 15.0769 13.5101 15.0736 13.5043 15.0678C13.4985 15.062 13.4953 15.0541 13.4953 15.0459C13.4953 15.0377 13.4985 15.0299 13.5043 15.0241C13.5101 15.0183 13.518 15.015 13.5262 15.015C13.6146 15.015 13.6499 14.9753 13.6499 14.9223V13.7826C13.6499 13.7516 13.6013 13.7295 13.535 13.7295H13.4909C13.4838 13.7295 13.4771 13.7268 13.4721 13.7218C13.4671 13.7168 13.4644 13.7101 13.4644 13.703C13.4643 13.6956 13.4669 13.6883 13.4718 13.6826C13.4767 13.6769 13.4834 13.6732 13.4909 13.6721H14.074C14.0814 13.6732 14.0882 13.6769 14.093 13.6826C14.0979 13.6883 14.1005 13.6956 14.1005 13.703C14.1005 13.7101 14.0977 13.7168 14.0927 13.7218C14.0877 13.7268 14.081 13.7295 14.074 13.7295C13.9724 13.7295 13.8928 13.7295 13.8928 13.7826V14.9399C13.8928 15.0062 13.99 15.0327 14.1005 15.0327C14.1087 15.0327 14.1165 15.036 14.1223 15.0418C14.1281 15.0475 14.1314 15.0554 14.1314 15.0636C14.1314 15.0718 14.1281 15.0797 14.1223 15.0855C14.1165 15.0913 14.1087 15.0945 14.1005 15.0945" fill="white"/>
<path d="M15.5539 13.9062L15.523 13.8134C15.523 13.8134 15.4832 13.7825 15.4302 13.7825H15.0945C15.0858 13.7819 15.077 13.783 15.0688 13.7858C15.0605 13.7886 15.0529 13.793 15.0463 13.7987C15.0397 13.8045 15.0344 13.8115 15.0305 13.8193C15.0266 13.8271 15.0244 13.8356 15.0238 13.8443V14.9222C15.0591 14.9885 15.1342 15.015 15.2579 15.015C15.2658 15.0159 15.2731 15.0195 15.2788 15.0251C15.2844 15.0307 15.2879 15.038 15.2889 15.0459C15.2889 15.0541 15.2856 15.062 15.2798 15.0678C15.274 15.0736 15.2661 15.0768 15.2579 15.0768H14.666C14.6578 15.0768 14.6499 15.0736 14.6441 15.0678C14.6383 15.062 14.6351 15.0541 14.6351 15.0459C14.636 15.038 14.6396 15.0307 14.6452 15.0251C14.6508 15.0195 14.6581 15.0159 14.666 15.015C14.7234 15.015 14.7941 14.9752 14.7941 14.9222V13.8311C14.7947 13.8253 14.7942 13.8194 14.7925 13.8138C14.7908 13.8082 14.7881 13.803 14.7844 13.7985C14.7807 13.794 14.7761 13.7902 14.771 13.7875C14.7658 13.7847 14.7602 13.783 14.7543 13.7825H14.4186C14.3789 13.7825 14.3479 13.7825 14.3303 13.8134L14.2817 13.915C14.2463 13.9592 14.2463 13.915 14.2463 13.915L14.2861 13.6632C14.2887 13.6558 14.2935 13.6493 14.2997 13.6446C14.306 13.6399 14.3136 13.6371 14.3214 13.6367C14.3568 13.6367 14.3877 13.6765 14.4186 13.6765H15.4788C15.4788 13.6765 15.5406 13.6411 15.5672 13.6367C15.5734 13.6378 15.5791 13.641 15.5831 13.6459C15.5872 13.6507 15.5893 13.6569 15.5892 13.6632V13.9459C15.5892 13.999 15.5539 13.9857 15.5407 13.915" fill="white"/>
<path d="M17.1883 13.7119H17.1662C17.134 13.7079 17.1014 13.7106 17.0702 13.7197C17.0391 13.7288 17.0101 13.7442 16.9851 13.7649L16.5434 14.5159V14.9576C16.5831 15.0194 16.6671 15.0239 16.7422 15.0283H16.7819C16.7819 15.0283 16.7819 15.0283 16.7819 15.0592C16.7819 15.0901 16.7819 15.0901 16.7819 15.0901H16.1723C16.1723 15.0901 16.1723 15.0901 16.1723 15.0592C16.1723 15.0283 16.1723 15.0283 16.1723 15.0283C16.2739 15.0283 16.296 15.0018 16.3269 14.9488V14.4231L15.8852 13.7826C15.8618 13.7621 15.8344 13.7468 15.8047 13.7377C15.775 13.7285 15.7437 13.7258 15.7129 13.7295C15.7059 13.7295 15.6991 13.7268 15.6942 13.7218C15.6892 13.7168 15.6864 13.7101 15.6864 13.703C15.6863 13.6956 15.689 13.6883 15.6938 13.6826C15.6987 13.6769 15.7055 13.6732 15.7129 13.6721H16.2032C16.2107 13.6732 16.2174 13.6769 16.2223 13.6826C16.2272 13.6883 16.2298 13.6956 16.2297 13.703C16.2297 13.7101 16.227 13.7168 16.222 13.7218C16.217 13.7268 16.2103 13.7295 16.2032 13.7295C16.1635 13.7295 16.1061 13.7295 16.1061 13.7826L16.4948 14.3789L16.8349 13.7826C16.8349 13.7516 16.804 13.7295 16.7643 13.7295C16.7572 13.7295 16.7505 13.7268 16.7455 13.7218C16.7405 13.7168 16.7378 13.7101 16.7378 13.703C16.7377 13.6956 16.7403 13.6883 16.7452 13.6826C16.7501 13.6769 16.7568 13.6732 16.7643 13.6721H17.206C17.2134 13.6732 17.2202 13.6769 17.2251 13.6826C17.2299 13.6883 17.2326 13.6956 17.2325 13.703C17.2325 13.7101 17.2297 13.7168 17.2247 13.7218C17.2198 13.7268 17.213 13.7295 17.206 13.7295" fill="white"/>
<path d="M18.4208 9.67419C18.2883 9.67419 18.1558 9.72278 18.1293 9.81997L18.0498 12.5323C18.0498 12.5809 18.0233 12.5941 17.9968 12.572L15.841 10.3633C15.8013 10.3236 15.7615 10.3633 15.7615 10.3942L15.841 12.2186C15.841 12.3291 16.0177 12.4174 16.2209 12.4174C16.2409 12.4174 16.26 12.4253 16.274 12.4394C16.2881 12.4535 16.296 12.4726 16.296 12.4925C16.2966 12.5028 16.2951 12.513 16.2916 12.5226C16.2881 12.5322 16.2827 12.5411 16.2757 12.5485C16.2686 12.556 16.2601 12.5619 16.2507 12.5659C16.2413 12.57 16.2312 12.5721 16.2209 12.572H15.2668C15.2457 12.572 15.2255 12.5637 15.2105 12.5488C15.1956 12.5338 15.1873 12.5136 15.1873 12.4925C15.1884 12.4722 15.1973 12.4531 15.2121 12.4391C15.2268 12.4252 15.2464 12.4174 15.2668 12.4174C15.4744 12.4174 15.5539 12.3291 15.5539 12.2186L15.5804 9.60351C15.5804 9.55934 15.6246 9.46657 15.6997 9.56376L17.8245 11.7725C17.8598 11.8078 17.8598 11.7725 17.8598 11.7725L17.8245 9.80672C17.7891 9.69186 17.661 9.67419 17.4976 9.66094C17.4906 9.66154 17.4836 9.66077 17.4769 9.65865C17.4703 9.65653 17.4641 9.65311 17.4588 9.6486C17.4534 9.64408 17.449 9.63855 17.4458 9.63233C17.4426 9.62611 17.4407 9.61932 17.4402 9.61235C17.4402 9.58584 17.4667 9.56817 17.4976 9.56817H18.4208C18.4518 9.56817 18.4783 9.56817 18.4783 9.61235C18.4777 9.61932 18.4758 9.62611 18.4726 9.63233C18.4694 9.63855 18.465 9.64408 18.4597 9.6486C18.4543 9.65311 18.4481 9.65653 18.4415 9.65865C18.4348 9.66077 18.4278 9.66154 18.4208 9.66094" fill="white"/>
<path d="M8.26505 21.0315C8.27694 21.0069 8.28386 20.9801 8.28541 20.9528C8.28697 20.9254 8.28312 20.8981 8.27409 20.8722C8.26507 20.8464 8.25104 20.8226 8.23282 20.8022C8.21459 20.7817 8.19252 20.7651 8.16787 20.7532C8.14321 20.7413 8.11646 20.7344 8.08913 20.7328C8.0618 20.7313 8.03443 20.7351 8.00859 20.7442C7.98275 20.7532 7.95893 20.7672 7.93851 20.7854C7.91809 20.8037 7.90146 20.8257 7.88957 20.8504L7.68636 21.2921H7.64661L7.84539 20.8504C7.85597 20.8143 7.87451 20.781 7.89963 20.753C7.92475 20.7251 7.95583 20.703 7.99058 20.6886C8.02532 20.6742 8.06285 20.6678 8.10041 20.6698C8.13797 20.6718 8.17461 20.6822 8.20762 20.7002C8.24296 20.7124 8.27508 20.7324 8.30156 20.7588C8.32804 20.7852 8.34821 20.8172 8.36054 20.8525C8.37286 20.8878 8.37704 20.9254 8.37274 20.9625C8.36844 20.9996 8.35579 21.0353 8.33573 21.0668L8.13253 21.5086H8.09277L8.26505 21.0315Z" fill="white"/>
<path d="M6.97963 20.9697H6.94429V20.1746L6.56439 20.7312H6.52905L6.92221 20.073L6.96196 20.0995V20.8505L7.29327 20.2939H7.32861L6.97963 20.9697Z" fill="white"/>
<path d="M6.1623 19.9936C6.12242 20.0592 6.06986 20.1163 6.00769 20.1614C5.96487 20.197 5.91096 20.2165 5.85529 20.2165C5.79962 20.2165 5.74571 20.197 5.70289 20.1614C5.66159 20.1324 5.63015 20.0915 5.61278 20.0441C5.59541 19.9968 5.59294 19.9452 5.6057 19.8964H5.64988C5.64116 19.9332 5.64365 19.9719 5.65703 20.0073C5.67041 20.0427 5.69407 20.0733 5.72497 20.0952C5.75666 20.1214 5.7965 20.1357 5.83762 20.1357C5.87874 20.1357 5.91858 20.1214 5.95026 20.0952C6.01302 20.0602 6.07094 20.0171 6.12255 19.9671C6.17155 19.9133 6.2118 19.8522 6.24182 19.786C6.2562 19.7476 6.25751 19.7056 6.24552 19.6665C6.23354 19.6273 6.20894 19.5932 6.17555 19.5695C6.14422 19.5484 6.1073 19.5372 6.06954 19.5372C6.03177 19.5372 5.99486 19.5484 5.96352 19.5695V19.5342C6.01066 19.5124 6.0631 19.5047 6.11453 19.512C6.16595 19.5193 6.21417 19.5413 6.25338 19.5754C6.29259 19.6094 6.32111 19.6541 6.33552 19.704C6.34992 19.7539 6.3496 19.8069 6.33458 19.8566C6.3025 19.9278 6.25926 19.9935 6.20648 20.051" fill="white"/>
<path d="M5.44229 19.0835C5.40586 19.1515 5.35805 19.2128 5.30094 19.2646C5.25121 19.3234 5.19136 19.3728 5.12424 19.4104C5.07431 19.4358 5.0177 19.445 4.9623 19.4367C4.9069 19.4284 4.85546 19.4031 4.81513 19.3642C4.7748 19.3253 4.74758 19.2749 4.73727 19.2198C4.72696 19.1648 4.73406 19.1079 4.75759 19.057C4.7963 18.9893 4.84551 18.9282 4.90337 18.8759C4.95205 18.8161 5.0121 18.7666 5.08006 18.7301C5.12863 18.7017 5.18558 18.6909 5.24117 18.6998C5.29677 18.7087 5.34756 18.7366 5.38487 18.7787C5.42776 18.8154 5.45684 18.8656 5.46728 18.921C5.47773 18.9764 5.46891 19.0338 5.44229 19.0835ZM4.81502 19.0835C4.7983 19.1215 4.79362 19.1637 4.80161 19.2045C4.8096 19.2452 4.82987 19.2825 4.8597 19.3114C4.88953 19.3403 4.92749 19.3593 4.96846 19.3659C5.00944 19.3726 5.05147 19.3665 5.0889 19.3486C5.15075 19.3144 5.20608 19.2695 5.25234 19.2161C5.30384 19.1663 5.34841 19.1098 5.38487 19.0482C5.40499 19.0106 5.41159 18.9673 5.40354 18.9255C5.3955 18.8837 5.37331 18.8459 5.34069 18.8185C5.31172 18.788 5.27345 18.768 5.23187 18.7616C5.1903 18.7552 5.14778 18.7628 5.11099 18.7831C5.04914 18.8192 4.99387 18.8655 4.94754 18.9201C4.89661 18.9687 4.85208 19.0236 4.81502 19.0835Z" fill="white"/>
<path d="M4.15682 18.6416L4.13032 18.6063L4.41745 18.0541L3.79459 18.1999L3.76367 18.1645L4.35561 17.6477L4.38212 17.6786L3.89619 18.0629L4.42629 17.9348C4.43032 17.9325 4.43489 17.9313 4.43954 17.9313C4.44419 17.9313 4.44877 17.9325 4.45279 17.9348V17.9569L4.201 18.4428L4.68692 18.0585L4.71342 18.0939L4.15682 18.6416Z" fill="white"/>
<path d="M3.98901 17.0957L3.33081 17.4933L3.19828 17.2636C3.16782 17.2132 3.15862 17.1528 3.17271 17.0956C3.18679 17.0385 3.223 16.9892 3.27338 16.9588C3.32376 16.9283 3.38417 16.9191 3.44133 16.9332C3.4985 16.9473 3.54772 16.9835 3.57818 17.0339L3.6842 17.2106L3.9625 17.0471L3.98901 17.0957ZM3.2778 17.0074C3.25788 17.0184 3.24063 17.0336 3.22729 17.0521C3.21395 17.0705 3.20485 17.0917 3.20063 17.114C3.19641 17.1364 3.19718 17.1594 3.20288 17.1815C3.20858 17.2035 3.21908 17.224 3.23362 17.2415L3.33522 17.4138L3.60027 17.2548L3.49425 17.0825C3.48566 17.0611 3.47241 17.0419 3.45545 17.0263C3.4385 17.0107 3.41827 16.9991 3.39626 16.9923C3.37424 16.9856 3.35099 16.9838 3.3282 16.9872C3.30541 16.9905 3.28366 16.9989 3.26454 17.0118" fill="white"/>
<path d="M3.26898 15.7085L3.02602 16.0001L3.10995 16.1856L3.41475 16.0487V16.0884L2.7168 16.3976L2.61078 16.1547C2.59437 16.1287 2.58394 16.0994 2.58024 16.0688C2.57654 16.0383 2.57967 16.0074 2.58939 15.9782C2.59911 15.949 2.61519 15.9224 2.63646 15.9002C2.65773 15.878 2.68366 15.8608 2.71238 15.8499C2.75527 15.8271 2.80501 15.8208 2.85221 15.8322C2.89941 15.8436 2.94081 15.8719 2.96859 15.9117L3.21597 15.6113L3.26898 15.7085ZM2.75655 15.9603C2.73596 15.9685 2.71743 15.9812 2.70231 15.9974C2.68719 16.0136 2.67584 16.0329 2.66909 16.0541C2.66233 16.0752 2.66033 16.0975 2.66323 16.1195C2.66614 16.1415 2.67387 16.1625 2.68588 16.1812L2.76981 16.3667L3.03927 16.2474L2.95534 16.0619C2.94999 16.0402 2.93971 16.02 2.9253 16.0028C2.91088 15.9857 2.89272 15.9722 2.87222 15.9632C2.85171 15.9542 2.82942 15.9501 2.80706 15.9511C2.78471 15.9522 2.76289 15.9583 2.7433 15.9691" fill="white"/>
<path d="M2.87582 15.1388C2.80958 15.1779 2.73821 15.2076 2.66378 15.2271C2.5916 15.254 2.5155 15.269 2.43849 15.2713C2.38268 15.2692 2.3289 15.2498 2.28458 15.2159C2.24025 15.1819 2.20759 15.135 2.19109 15.0816C2.1746 15.0282 2.1751 14.9711 2.19251 14.918C2.20992 14.8649 2.2434 14.8186 2.2883 14.7854C2.35303 14.7433 2.42488 14.7134 2.50034 14.697C2.57257 14.6696 2.64852 14.6532 2.72563 14.6484C2.78126 14.6519 2.83451 14.6722 2.87828 14.7067C2.92205 14.7412 2.95424 14.7883 2.97057 14.8416C2.98689 14.8949 2.98657 14.9519 2.96964 15.005C2.95271 15.0581 2.91998 15.1048 2.87582 15.1388ZM2.32364 14.8384C2.28754 14.8619 2.26073 14.8972 2.24784 14.9383C2.23494 14.9794 2.23675 15.0238 2.25296 15.0637C2.26377 15.1045 2.28787 15.1406 2.32148 15.1662C2.35508 15.1918 2.39625 15.2055 2.43849 15.205C2.57721 15.1873 2.71175 15.1454 2.83607 15.0813C2.86987 15.0565 2.89514 15.0218 2.90842 14.982C2.9217 14.9422 2.92233 14.8992 2.91023 14.8591C2.89813 14.8189 2.87389 14.7834 2.84083 14.7576C2.80778 14.7317 2.76754 14.7168 2.72563 14.7147C2.65448 14.718 2.58435 14.7329 2.51801 14.7589C2.4496 14.7755 2.38408 14.8023 2.32364 14.8384Z" fill="white"/>
<path d="M1.96579 14.1183V14.0741L2.47821 13.7296L1.87744 13.5794V13.5308L2.58865 13.3408V13.3806L1.97904 13.4822L2.50914 13.6191V13.6456L2.06739 13.9548L2.677 13.8532V13.893L1.96579 14.1183Z" fill="white"/>
<path d="M1.78027 12.74V12.7002L2.54449 12.6516V12.6958L1.78027 12.74Z" fill="white"/>
<path d="M1.84204 10.7479V10.6904L2.60184 10.792V10.8318L1.84204 10.7479Z" fill="white"/>
<path d="M1.97021 9.96141V9.91724L2.69468 9.68311L2.06298 9.53292V9.49316L2.80511 9.66986V9.71404L2.08507 9.94374L2.71676 10.0984V10.1381L1.97021 9.96141Z" fill="white"/>
<path d="M3.82114 7.29765L3.16736 6.90008L3.30872 6.67479C3.32166 6.64529 3.34079 6.61891 3.3648 6.59743C3.38881 6.57594 3.41715 6.55986 3.4479 6.55027C3.47866 6.54067 3.51112 6.53778 3.54308 6.54179C3.57505 6.54581 3.60578 6.55663 3.63321 6.57354C3.66064 6.59044 3.68412 6.61303 3.70208 6.63978C3.72003 6.66653 3.73204 6.69682 3.73729 6.72861C3.74254 6.76039 3.74091 6.79294 3.73252 6.82404C3.72412 6.85515 3.70915 6.88409 3.68862 6.90892L3.5826 7.0812L3.8609 7.25348L3.82114 7.29765ZM3.56935 6.63062C3.55015 6.61762 3.52835 6.60898 3.50547 6.60529C3.48258 6.6016 3.45917 6.60296 3.43687 6.60927C3.41456 6.61559 3.39391 6.6267 3.37635 6.64183C3.35879 6.65696 3.34475 6.67575 3.33522 6.69688L3.23362 6.86916L3.49867 7.02819L3.60027 6.85591C3.61499 6.83869 3.62575 6.81844 3.63179 6.79661C3.63782 6.77477 3.63899 6.75187 3.63519 6.72954C3.6314 6.7072 3.62274 6.68597 3.60984 6.66735C3.59693 6.64873 3.58009 6.63318 3.56051 6.62178" fill="white"/>
<path d="M3.94043 5.74725V5.71191L4.71348 5.97254L4.68256 6.00788L4.48819 5.94604L4.27616 6.2155L4.38217 6.38778L4.35567 6.42312L3.94043 5.74725ZM4.45285 5.91953L4.03761 5.77818L4.27174 6.15366L4.45285 5.91953Z" fill="white"/>
<path d="M4.60303 4.97843L4.63395 4.95193L5.36725 5.13746L4.9255 4.69572L4.95642 4.66479L5.49535 5.20814L5.46443 5.24348L4.72672 5.05353L5.16846 5.51736L5.13754 5.54387L4.60303 4.97843Z" fill="white"/>
<path d="M5.7074 3.98915L5.73832 3.96265L6.42302 4.40439L6.38768 4.4309L6.2154 4.32046L5.94152 4.5325L6.00337 4.72686L5.96803 4.75779L5.7074 3.98915ZM6.14914 4.2807L5.79133 4.06425L5.92385 4.47949L6.14914 4.2807Z" fill="white"/>
<path d="M6.86034 4.02434V3.98017C6.94108 3.99031 7.02297 3.97486 7.09447 3.93599C7.2049 3.86973 7.24024 3.77697 7.18723 3.69303C7.13422 3.6091 7.08121 3.60027 6.94869 3.6577H6.91335C6.77199 3.71954 6.67039 3.69303 6.61296 3.59585C6.59634 3.56909 6.58564 3.53909 6.58157 3.50786C6.57749 3.47663 6.58015 3.44488 6.58935 3.41476C6.59856 3.38464 6.6141 3.35683 6.63493 3.33321C6.65577 3.30959 6.68141 3.29069 6.71015 3.2778C6.78007 3.23811 6.85949 3.21825 6.93985 3.22037V3.26454C6.87173 3.26165 6.80423 3.27853 6.74549 3.31313C6.72488 3.32199 6.70639 3.33511 6.69121 3.35162C6.67604 3.36813 6.66452 3.38767 6.65743 3.40894C6.65034 3.43022 6.64783 3.45275 6.65006 3.47507C6.65229 3.49738 6.65922 3.51898 6.67039 3.53842C6.71015 3.60469 6.78083 3.62236 6.90452 3.56935H6.93985C7.09005 3.50309 7.18723 3.52959 7.24908 3.63119C7.31092 3.73279 7.28442 3.87857 7.12539 3.97133C7.04418 4.01906 6.94916 4.03775 6.85592 4.02434" fill="white"/>
<path d="M7.83219 3.38815C7.78469 3.32766 7.74602 3.26073 7.71734 3.18937C7.68272 3.12131 7.65887 3.04829 7.64666 2.97291C7.63888 2.91664 7.65036 2.8594 7.67923 2.81048C7.70811 2.76156 7.75267 2.72384 7.80568 2.70345C7.8559 2.67733 7.91355 2.66922 7.96902 2.68048C8.02449 2.69173 8.07442 2.72167 8.11049 2.76529C8.16138 2.82342 8.2004 2.89095 8.22534 2.96408C8.26052 3.0323 8.28581 3.10518 8.30044 3.18053C8.3035 3.23604 8.2896 3.29116 8.26058 3.33858C8.23156 3.38599 8.18881 3.42345 8.13799 3.44599C8.08717 3.46852 8.0307 3.47506 7.97607 3.46473C7.92145 3.45439 7.87127 3.42769 7.83219 3.38815ZM8.0619 2.80505C8.03297 2.77508 7.99554 2.75472 7.95466 2.74672C7.91379 2.73873 7.87144 2.74349 7.83336 2.76036C7.79528 2.77723 7.7633 2.8054 7.74176 2.84105C7.72022 2.87669 7.71015 2.9181 7.71292 2.95966C7.72639 3.0299 7.74866 3.09817 7.77918 3.16286C7.80447 3.22858 7.84027 3.28975 7.8852 3.34398C7.91152 3.37807 7.94939 3.40138 7.9917 3.40952C8.034 3.41765 8.07781 3.41005 8.1149 3.38815C8.15489 3.37419 8.18872 3.34666 8.21051 3.31034C8.2323 3.27402 8.24068 3.23122 8.23418 3.18937C8.22015 3.12009 8.19635 3.05316 8.1635 2.99058C8.13919 2.92396 8.10493 2.86141 8.0619 2.80505Z" fill="white"/>
<path d="M8.73767 2.36781H8.78185L9.34728 2.8714L9.16175 2.24854H9.20592L9.42679 2.98183H9.38262L8.8216 2.47383L9.01155 3.09669H8.96738L8.73767 2.36781Z" fill="white"/>
<path d="M9.9613 2.04102H10.0011L10.1468 2.79198H10.1071L9.9613 2.04102Z" fill="white"/>
<path d="M13.1198 2.73899L13.0491 2.65064C12.9962 2.68291 12.9341 2.69688 12.8724 2.6904C12.8156 2.68846 12.761 2.66732 12.7177 2.63042C12.6744 2.59352 12.6448 2.54304 12.6339 2.48719C12.6207 2.33848 12.6357 2.18861 12.6781 2.04545C12.6986 1.99309 12.7368 1.94949 12.7859 1.9221C12.8351 1.89471 12.8922 1.88522 12.9475 1.89525C13.004 1.89617 13.0585 1.9164 13.1019 1.95256C13.1453 1.98872 13.175 2.03865 13.1861 2.09404C13.197 2.16124 13.1985 2.22963 13.1905 2.29724C13.1884 2.37427 13.1735 2.45041 13.1463 2.52253C13.1353 2.54821 13.1204 2.57204 13.1021 2.59321L13.1728 2.68598L13.1198 2.73899ZM12.9917 2.59763L12.9078 2.48719L12.9431 2.46511L13.0226 2.57112L13.0491 2.53137C13.079 2.45658 13.0968 2.37758 13.1021 2.29724C13.1097 2.22676 13.1097 2.15568 13.1021 2.08521C13.0941 2.04382 13.0723 2.0064 13.0402 1.9791C13.008 1.9518 12.9676 1.93625 12.9254 1.93501C12.8835 1.92712 12.8401 1.93432 12.8029 1.95534C12.7657 1.97636 12.7371 2.00983 12.7222 2.04986C12.696 2.11593 12.6825 2.18638 12.6825 2.25749C12.6701 2.32613 12.6701 2.39646 12.6825 2.46511C12.6889 2.50724 12.7103 2.54565 12.7428 2.57325C12.7752 2.60085 12.8166 2.61578 12.8592 2.6153C12.9051 2.62344 12.9524 2.61398 12.9917 2.58879" fill="white"/>
<path d="M13.8311 2.52248C13.8001 2.66825 13.8576 2.7566 13.9813 2.78311C14.1049 2.80961 14.1933 2.7566 14.2242 2.61083L14.3302 2.11607H14.3744L14.264 2.61083C14.2617 2.64848 14.2509 2.68512 14.2323 2.71794C14.2138 2.75077 14.1879 2.77892 14.1568 2.80023C14.1257 2.82154 14.0901 2.83546 14.0528 2.84091C14.0155 2.84637 13.9774 2.84322 13.9415 2.8317C13.9046 2.82612 13.8693 2.8124 13.8384 2.79153C13.8074 2.77065 13.7815 2.74315 13.7624 2.71101C13.7434 2.67888 13.7318 2.64291 13.7283 2.60571C13.7249 2.56852 13.7298 2.53104 13.7427 2.49597L13.8487 2.00122H13.8929L13.8311 2.52248Z" fill="white"/>
<path d="M15.2578 2.3855H15.2976V3.19831H15.2578V2.99511L14.9574 2.88025L14.8293 3.0437H14.7852L15.2578 2.3855ZM15.2578 2.92443V2.48268L14.9839 2.82282L15.2578 2.92443Z" fill="white"/>
<path d="M16.1723 2.73901H16.2076L15.9028 3.37513L16.2562 3.54299L16.2827 3.6225L15.8409 3.45022L16.1723 2.73901Z" fill="white"/>
<path d="M17.1662 3.24683L17.206 3.26891L16.8128 3.93153H16.7731L17.1662 3.24683Z" fill="white"/>
<path d="M17.4799 4.39106L17.8951 3.81679L17.7096 3.68426L17.7317 3.64893L18.1734 3.96256L18.1513 3.99349L17.9658 3.86096L17.5505 4.43523L17.4799 4.39106Z" fill="white"/>
<path d="M18.2617 5.01379L18.4738 4.77967L18.5974 4.28491L18.6328 4.31142L18.5312 4.72666L18.9288 4.57646L18.9597 4.60297L18.4826 4.77967L18.2706 5.01379H18.2617Z" fill="white"/>
<path d="M19.6047 5.85331C19.6626 5.80215 19.7282 5.76041 19.7991 5.72962C19.8503 5.70804 19.9075 5.70506 19.9608 5.72119C20.014 5.73732 20.0599 5.77156 20.0906 5.81797C20.1233 5.8558 20.1437 5.90264 20.1492 5.95232C20.1548 6.002 20.1451 6.05218 20.1215 6.09627H20.0862C20.1062 6.06453 20.1168 6.02777 20.1168 5.99025C20.1168 5.95273 20.1062 5.91597 20.0862 5.88423C20.0636 5.84959 20.0295 5.82399 19.99 5.81188C19.9504 5.79978 19.9079 5.80193 19.8697 5.81797C19.8038 5.84663 19.7427 5.88538 19.6886 5.93282C19.6297 5.97289 19.5763 6.0204 19.5296 6.07418C19.503 6.10656 19.4885 6.14715 19.4885 6.18903C19.4885 6.23092 19.503 6.2715 19.5296 6.30389C19.5522 6.33393 19.5829 6.35693 19.6181 6.37023C19.6533 6.38352 19.6915 6.38656 19.7284 6.37898V6.41874C19.6798 6.43008 19.6288 6.42645 19.5823 6.40831C19.5358 6.39018 19.4959 6.3584 19.4678 6.31714C19.4322 6.27431 19.4127 6.2204 19.4127 6.16474C19.4127 6.10907 19.4322 6.05516 19.4678 6.01233C19.5141 5.95129 19.571 5.89895 19.6356 5.85772" fill="white"/>
<path d="M20.0641 6.87813C20.1189 6.82361 20.1814 6.77747 20.2496 6.74119C20.3122 6.69614 20.3826 6.66318 20.4572 6.644C20.5129 6.63151 20.571 6.63698 20.6233 6.65961C20.6756 6.68225 20.7194 6.72089 20.7484 6.76999C20.7773 6.81908 20.79 6.8761 20.7845 6.93283C20.779 6.98957 20.7557 7.04311 20.7179 7.08575C20.6651 7.14063 20.604 7.18685 20.5368 7.22269C20.4733 7.2661 20.4031 7.29892 20.3291 7.31987C20.2743 7.33383 20.2165 7.32927 20.1645 7.3069C20.1126 7.28453 20.0695 7.2456 20.042 7.19618C20.0073 7.15129 19.9884 7.09613 19.9884 7.03937C19.9884 6.9826 20.0073 6.92744 20.042 6.88255M20.6472 7.04157C20.6741 7.00849 20.6888 6.96715 20.6888 6.92451C20.6888 6.88187 20.6741 6.84053 20.6472 6.80745C20.6282 6.76967 20.5966 6.73972 20.5579 6.72278C20.5192 6.70584 20.4758 6.70297 20.4352 6.71468C20.3671 6.73269 20.3028 6.7626 20.2452 6.80303C20.1828 6.83689 20.125 6.87844 20.0729 6.92672C20.0475 6.95977 20.0327 6.99971 20.0303 7.04132C20.0279 7.08294 20.0381 7.12431 20.0595 7.16006C20.081 7.1958 20.1127 7.22427 20.1505 7.24174C20.1884 7.25921 20.2306 7.26489 20.2717 7.25803C20.3389 7.23575 20.4028 7.20455 20.4617 7.16526C20.523 7.13194 20.5795 7.09032 20.6295 7.04157" fill="white"/>
<path d="M21.1816 7.62891V7.66866L20.7399 8.29152L21.3318 8.02648V8.06623L20.7001 8.43288V8.39312V8.37104L21.1419 7.74818L20.5499 8.01322V7.97347L21.1816 7.62891Z" fill="white"/>
<path d="M20.9608 9.17521L21.6367 8.95876L21.5837 8.72021H21.6234L21.7869 9.22822H21.7471L21.6764 9.01177L21.005 9.22822L20.9608 9.17521Z" fill="white"/>
<path d="M21.2745 10.4384L21.5793 10.2087L21.5395 10.0099L21.2126 10.0762V10.032L21.9636 9.88184L22.0122 10.1425C22.0223 10.1715 22.0259 10.2023 22.0229 10.2328C22.0199 10.2634 22.0103 10.2929 21.9947 10.3193C21.9792 10.3458 21.9581 10.3686 21.9329 10.3861C21.9077 10.4036 21.879 10.4154 21.8488 10.4208C21.8018 10.4333 21.752 10.4286 21.7082 10.4075C21.6645 10.3864 21.6297 10.3504 21.6102 10.3059L21.301 10.54L21.2745 10.4384ZM21.8311 10.3103C21.8532 10.3065 21.8741 10.2978 21.8925 10.285C21.911 10.2723 21.9264 10.2556 21.9377 10.2363C21.9491 10.217 21.9561 10.1954 21.9582 10.1731C21.9604 10.1508 21.9577 10.1283 21.9504 10.1071L21.9106 9.90834L21.6191 9.96577L21.6588 10.1646C21.6588 10.1873 21.664 10.2097 21.674 10.2301C21.6839 10.2505 21.6983 10.2684 21.7162 10.2825C21.7341 10.2965 21.7549 10.3063 21.7771 10.3111C21.7993 10.3159 21.8223 10.3157 21.8443 10.3103" fill="white"/>
<path d="M21.5263 11.0569C21.6006 11.0329 21.6779 11.0195 21.756 11.0172C21.8322 11.0066 21.9095 11.0066 21.9857 11.0172C22.0396 11.0324 22.0875 11.0638 22.123 11.1072C22.1585 11.1505 22.1799 11.2037 22.1842 11.2595C22.1885 11.3154 22.1756 11.3712 22.1473 11.4195C22.1189 11.4678 22.0764 11.5062 22.0255 11.5296C21.9516 11.556 21.8741 11.5709 21.7958 11.5738C21.7256 11.5863 21.6538 11.5863 21.5837 11.5738C21.5279 11.5635 21.4775 11.534 21.4412 11.4904C21.4049 11.4468 21.385 11.3919 21.3849 11.3352C21.3769 11.2795 21.3877 11.2227 21.4157 11.1738C21.4437 11.125 21.4873 11.0869 21.5395 11.0658M22.0122 11.4766C22.0499 11.4595 22.0815 11.4312 22.1027 11.3956C22.1239 11.36 22.1338 11.3188 22.1309 11.2774C22.128 11.2361 22.1125 11.1966 22.0866 11.1643C22.0606 11.132 22.0254 11.1084 21.9857 11.0967C21.9154 11.0857 21.8439 11.0857 21.7737 11.0967C21.7026 11.0973 21.6323 11.1107 21.566 11.1364C21.5255 11.1496 21.4912 11.177 21.4693 11.2135C21.4473 11.2501 21.4394 11.2933 21.4468 11.3352C21.4478 11.3779 21.4632 11.419 21.4904 11.4518C21.5177 11.4847 21.5552 11.5074 21.597 11.5163C21.666 11.5239 21.7356 11.5239 21.8046 11.5163C21.8753 11.5161 21.9454 11.5042 22.0122 11.481" fill="white"/>
<path d="M22.1889 12.2232V12.2629H21.4821V12.6561H21.407V12.2144L22.1889 12.2232Z" fill="white"/>
<path d="M21.1066 14.4408L21.778 14.4099L21.1949 14.0786V14.0388H22.0254V14.0786H21.3274L21.915 14.4055V14.4408L21.2391 14.4717L21.8354 14.7721V14.8119L21.1375 14.4541L21.1066 14.4408Z" fill="white"/>
<path d="M21.0359 15.2314C21.1117 15.241 21.186 15.2603 21.2568 15.2889C21.3307 15.3122 21.4007 15.3465 21.4644 15.3905C21.511 15.4242 21.544 15.4733 21.5578 15.5291C21.5715 15.5849 21.5651 15.6438 21.5395 15.6953C21.5235 15.7484 21.4898 15.7945 21.444 15.8259C21.3982 15.8572 21.3431 15.8719 21.2877 15.8676C21.2097 15.8626 21.1333 15.8431 21.0624 15.8101C20.9886 15.79 20.9196 15.7555 20.8592 15.7085C20.8136 15.6751 20.7809 15.627 20.7664 15.5724C20.7519 15.5177 20.7566 15.4598 20.7797 15.4081C20.7964 15.3542 20.8308 15.3075 20.8772 15.2755C20.9237 15.2434 20.9796 15.2279 21.0359 15.2314ZM21.2921 15.8057C21.3341 15.8084 21.3758 15.7968 21.4103 15.7727C21.4448 15.7487 21.4701 15.7136 21.4821 15.6732C21.5005 15.6349 21.5048 15.5913 21.4943 15.5501C21.4838 15.5089 21.4591 15.4727 21.4247 15.4479C21.3669 15.4067 21.3027 15.3753 21.2347 15.3551C21.1694 15.3283 21.1012 15.3091 21.0315 15.2977C20.9899 15.2976 20.9492 15.3102 20.915 15.3339C20.8808 15.3577 20.8547 15.3913 20.8403 15.4303C20.8258 15.4694 20.8237 15.5119 20.8342 15.5522C20.8447 15.5924 20.8673 15.6285 20.899 15.6555C20.9567 15.6968 21.0209 15.7281 21.0889 15.7483C21.1541 15.7755 21.2223 15.7948 21.2921 15.8057Z" fill="white"/>
<path d="M20.2319 16.623H20.6118L20.709 16.4419L20.413 16.2873V16.252L21.0889 16.6054L20.9652 16.8395C20.9544 16.8684 20.9375 16.8946 20.9157 16.9164C20.8939 16.9382 20.8677 16.9552 20.8389 16.966C20.81 16.9769 20.7792 16.9815 20.7484 16.9795C20.7176 16.9775 20.6876 16.9689 20.6604 16.9543C20.6161 16.9348 20.5805 16.8998 20.5602 16.8559C20.5398 16.812 20.5362 16.7622 20.55 16.7158H20.1613L20.2319 16.623ZM20.7488 16.8704C20.7679 16.8822 20.7895 16.8894 20.8119 16.8914C20.8343 16.8934 20.8569 16.8903 20.8778 16.8821C20.8988 16.874 20.9176 16.8611 20.9327 16.8445C20.9479 16.8279 20.959 16.8081 20.9652 16.7865L21.0624 16.6098L20.7974 16.4728L20.7046 16.6495C20.6906 16.6671 20.6808 16.6878 20.676 16.7098C20.6713 16.7318 20.6717 16.7546 20.6773 16.7765C20.6829 16.7983 20.6934 16.8185 20.7081 16.8356C20.7228 16.8527 20.7413 16.8661 20.762 16.8748" fill="white"/>
<path d="M20.5412 17.6169L20.5191 17.6522L19.9316 17.259L19.7151 17.5815H19.6842L19.936 17.2104L20.5412 17.6169Z" fill="white"/>
<path d="M19.8962 18.5092L19.7328 18.6948C19.7031 18.7398 19.6587 18.7732 19.6072 18.7893C19.5557 18.8054 19.5002 18.8033 19.4501 18.7831C19.3777 18.7494 19.3118 18.703 19.2557 18.6462C19.1924 18.5995 19.1372 18.5428 19.0923 18.4783C19.0642 18.4318 19.0529 18.3772 19.0601 18.3234C19.0673 18.2695 19.0927 18.2198 19.132 18.1824L19.2955 17.9968L19.8962 18.5092ZM19.3087 18.0984L19.1939 18.2354C19.1623 18.2626 19.1412 18.2999 19.1339 18.3409C19.1267 18.382 19.1338 18.4243 19.1541 18.4607C19.1958 18.5197 19.2465 18.5719 19.3043 18.6153C19.3548 18.6642 19.413 18.7045 19.4766 18.7345C19.5157 18.7514 19.5597 18.7535 19.6002 18.7405C19.6408 18.7275 19.6754 18.7003 19.6975 18.6639L19.8123 18.5313L19.322 18.0896" fill="white"/>
<path d="M18.1381 19.2073L18.7079 19.5607L18.4164 18.9555L18.4429 18.929L19.0922 19.3707L19.0613 19.3972L18.5091 19.0173L18.8051 19.6225L18.7786 19.649L18.2087 19.2912L18.5312 19.8743L18.4914 19.9671L18.116 19.2735L18.1381 19.2073Z" fill="white"/>
<path d="M17.979 20.316L17.9437 20.3425L17.502 19.724L17.5329 19.6975L17.979 20.316Z" fill="white"/>
<path d="M17.3429 20.7488L17.1309 20.8725C17.0884 20.907 17.0354 20.9258 16.9807 20.9258C16.926 20.9258 16.873 20.907 16.8305 20.8725C16.7752 20.8168 16.729 20.7527 16.6935 20.6826C16.6486 20.6168 16.6156 20.5435 16.5964 20.4661C16.5831 20.4134 16.5898 20.3577 16.6151 20.3097C16.6403 20.2616 16.6824 20.2245 16.7333 20.2055L16.9453 20.0774L17.3429 20.7488ZM16.9012 20.1657L16.751 20.2585C16.7118 20.2742 16.6793 20.3031 16.6591 20.3402C16.6389 20.3773 16.6324 20.4203 16.6405 20.4617C16.6603 20.5291 16.69 20.5932 16.7289 20.6517C16.7627 20.7154 16.8043 20.7747 16.8526 20.8284C16.885 20.8549 16.9255 20.8694 16.9674 20.8694C17.0093 20.8694 17.0499 20.8549 17.0823 20.8284L17.2369 20.74L16.9056 20.179" fill="white"/>
<path d="M16.2827 21.3231L15.8719 21.5043V21.4689L16.2297 21.3099L16.1149 21.0537L15.8101 21.1862V21.1509L16.1149 21.0139L15.9956 20.7445L15.6422 20.8991V20.8637L16.0574 20.6826L16.2827 21.3231Z" fill="white"/>
</svg>
