<svg width="23" height="20" viewBox="0 0 23 20" fill="none" xmlns="http://www.w3.org/2000/svg">
<path d="M14.6351 11.8542C14.4369 11.1737 14.414 10.5621 14.6227 9.91644C14.7688 9.46412 15.3794 8.86412 15.7808 8.63403C16.5778 8.17742 17.6083 8.22401 18.4268 7.88645C19.2683 7.5394 19.5775 7.30475 20.059 6.78967C20.1596 6.68202 20.5858 6.3381 20.5882 6.48728C20.62 8.47258 21.4438 10.4755 20.18 12.2189C20.049 12.3996 20.0082 12.5432 19.7876 12.7985C19.567 13.0538 18.9299 13.5123 18.7584 13.5701C17.6942 13.9286 16.2334 14.4058 14.9595 13.0693C14.5235 12.6122 14.8331 12.5347 14.6351 11.8542Z" fill="#87CE29"/>
<path d="M20.8101 6.06863C20.6851 5.92195 20.4724 6.03209 20.342 6.1124C20.1118 6.25401 19.9081 6.4449 19.708 6.62909C19.5003 6.81986 19.2974 7.01836 19.0744 7.18918C18.7368 7.44795 18.3667 7.61702 17.9712 7.74982C17.566 7.8857 17.1511 7.9833 16.7381 8.08685C16.38 8.17711 15.9998 8.25241 15.6673 8.42707C15.1148 8.71745 14.6658 9.24394 14.3918 9.82125C14.2483 10.1237 14.1459 10.4576 14.1382 10.7964C14.1275 11.2329 14.3331 11.5945 14.4827 11.9859C14.4232 11.7272 14.3213 11.4722 14.295 11.2058C14.2696 10.9453 14.3373 10.6814 14.4003 10.4312C14.5301 9.91335 14.7339 9.39427 15.0981 9.00735C15.2923 8.80145 15.5265 8.64256 15.7843 8.54191C16.1167 8.41172 16.4718 8.37158 16.8172 8.29956C17.1627 8.22754 17.4939 8.10383 17.8235 7.97909C18.1356 7.86086 18.4442 7.73098 18.7447 7.58202C19.4041 7.25603 20.0205 6.83395 20.5378 6.28914C20.5013 6.65116 20.596 7.03402 20.6661 7.38431C20.757 7.83802 20.8693 8.29003 20.9265 8.7507C20.9702 9.10192 20.9712 9.45163 20.9667 9.80534C20.9638 10.0324 20.9855 10.2591 20.9765 10.4863C20.9685 10.6969 20.9044 10.8628 20.8305 11.0551C20.6953 11.4066 20.5908 11.7703 20.4607 12.1238C20.3857 12.3274 20.3112 12.5194 20.1739 12.6875C20.0366 12.8556 19.8702 12.9893 19.6979 13.1115C19.3111 13.3861 18.8996 13.6392 18.457 13.796C17.9909 13.9612 17.4974 14.0265 17.009 14.0244C16.5207 14.0223 16.0105 13.9698 15.5564 13.7781C15.1641 13.6125 14.8265 13.3424 14.4884 13.0818C14.7691 13.4257 15.0077 13.7992 15.4253 13.9662C15.7894 14.1113 16.1877 14.1628 16.576 14.1837C17.0345 14.2082 17.4948 14.1835 17.9496 14.11C18.376 14.0415 18.8056 13.9333 19.1982 13.7381C19.3594 13.6583 19.5158 13.5626 19.6522 13.4411C19.8048 13.3053 19.9084 13.1233 20.0587 12.985C20.1669 12.8853 20.3029 12.8206 20.3997 12.7067C20.5438 12.5374 20.6223 12.3078 20.7037 12.1003C20.8561 11.7112 20.9961 11.3165 21.1332 10.9213C21.1556 10.8566 21.1643 10.7906 21.1751 10.7227C21.2088 10.5127 21.236 10.3012 21.253 10.089C21.2729 9.84914 21.2853 9.60246 21.2487 9.3642C21.1992 9.04151 21.1188 8.7237 21.0477 8.40595C20.974 8.07622 20.9057 7.74592 20.8686 7.40856C20.8485 7.22647 20.8353 7.04385 20.8261 6.86023C20.8182 6.70264 20.8018 6.54616 20.8407 6.39081C20.8715 6.27274 20.8948 6.16801 20.8101 6.06863Z" fill="#0C321E"/>
<path d="M15.3075 12.7591C15.4483 12.7489 15.5906 12.7406 15.731 12.7411C15.8687 12.7415 16.0026 12.7865 16.1411 12.7934C16.2877 12.8009 16.4171 12.8462 16.5562 12.8893C16.689 12.9293 16.828 12.9427 16.9659 12.9288C17.117 12.9156 17.2551 12.9056 17.4058 12.9362C17.5504 12.9657 17.695 13.0043 17.8434 13.0014C18.0002 12.9985 18.1626 12.9496 18.3163 12.9174C18.4649 12.8863 18.6156 12.8595 18.7595 12.8067C18.9181 12.7486 19.0844 12.6883 19.234 12.6075C19.3099 12.5657 19.3825 12.5175 19.4512 12.4635C19.4717 12.4474 19.6308 12.3004 19.6325 12.301C19.614 12.294 19.4943 12.4048 19.4735 12.4202C19.4065 12.4684 19.3378 12.5138 19.267 12.5554C19.1293 12.6382 18.9812 12.6999 18.8274 12.7387C18.6686 12.7772 18.5135 12.8229 18.3561 12.8674C18.2066 12.9087 18.0797 12.9102 17.9292 12.886C17.621 12.8363 17.3103 12.8264 17.0033 12.766C16.7042 12.7072 16.3989 12.7731 16.101 12.7169C16.0224 12.7023 15.9491 12.6782 15.8691 12.6775C15.786 12.6754 15.7061 12.6952 15.6242 12.7028C15.439 12.7179 15.2522 12.7277 15.0667 12.7447C15.3814 12.6026 15.7079 12.4923 16.0353 12.3889C16.1963 12.3379 16.3586 12.2888 16.5204 12.2389C16.5966 12.2153 16.6727 12.1917 16.7487 12.1681C16.8329 12.1414 16.9316 12.1566 17.0191 12.1587C17.18 12.1625 17.3325 12.1688 17.4901 12.2025C17.6478 12.2363 17.7924 12.2172 17.9491 12.1894C18.1173 12.161 18.2883 12.1574 18.4558 12.1248C18.6195 12.093 18.7625 11.9959 18.9205 11.9412C19.0054 11.9119 19.094 11.886 19.1694 11.8338C19.2449 11.7816 19.312 11.721 19.3913 11.6728C19.5396 11.5823 19.6659 11.4777 19.7477 11.3151C19.7507 11.2935 19.7084 11.3391 19.7107 11.3374C19.6866 11.3565 19.6669 11.3859 19.6442 11.4079C19.5979 11.453 19.5491 11.4952 19.4982 11.5345C19.3987 11.6123 19.2999 11.6884 19.1824 11.7327C19.0616 11.7781 18.9575 11.8453 18.8413 11.9005C18.7274 11.9546 18.6033 11.9568 18.4844 11.9907C18.3614 12.0261 18.2428 12.0766 18.1178 12.102C17.9963 12.1266 17.8802 12.1161 17.7581 12.1099C17.6416 12.104 17.5259 12.1243 17.4097 12.1205C17.2856 12.1155 17.1641 12.0843 17.0407 12.0723C17.3382 11.9694 17.628 11.8498 17.893 11.6708C17.9567 11.6278 18.0188 11.5824 18.0794 11.5345C18.1111 11.5095 18.1464 11.4678 18.1821 11.4501C18.2122 11.4351 18.2537 11.43 18.2859 11.4204C18.351 11.4009 18.4176 11.3783 18.485 11.3784C18.5406 11.3785 18.5945 11.3947 18.6508 11.3926C18.7793 11.3883 18.8743 11.2914 18.9844 11.2355C19.0557 11.1993 19.1348 11.1829 19.2101 11.1584C19.2901 11.1326 19.3593 11.0913 19.4337 11.0519C19.5001 11.0165 19.5706 10.9978 19.6393 10.9689C19.7004 10.9424 19.745 10.9003 19.8001 10.8634C19.8608 10.8228 19.9289 10.8018 19.9945 10.7701C20.0112 10.7619 20.1702 10.6382 20.1439 10.6286C20.1313 10.6243 20.0647 10.6661 20.051 10.6728C20.0119 10.692 19.9737 10.7135 19.9367 10.737C19.8614 10.786 19.7807 10.8249 19.6965 10.8528C19.6106 10.8805 19.5401 10.9275 19.4594 10.967C19.3848 11.0036 19.304 11.0153 19.2271 11.0446C19.1501 11.0738 19.0792 11.1201 19.0033 11.1537C18.9211 11.1899 18.8389 11.1992 18.7505 11.2049C18.6902 11.2068 18.6308 11.223 18.5769 11.2521C18.4993 11.2919 18.4302 11.2965 18.3454 11.3013C18.5123 11.1385 18.6664 10.9617 18.8063 10.7727C18.8169 10.7581 18.8318 10.7273 18.8464 10.7176C18.8638 10.7064 18.9167 10.7018 18.9364 10.6961C18.9895 10.6809 19.0411 10.6602 19.0942 10.6448C19.1951 10.6152 19.2872 10.5932 19.3809 10.5399C19.4746 10.4865 19.5689 10.4394 19.6648 10.391C19.7632 10.3422 19.8436 10.2619 19.9373 10.2036C20.0265 10.1481 20.09 10.0762 20.1668 10.0048C20.2027 9.9734 20.2362 9.93894 20.2668 9.90177C20.2761 9.88973 20.3362 9.78974 20.3381 9.79006C20.3157 9.78725 20.2139 9.91376 20.195 9.9337C20.1567 9.97776 20.1147 10.018 20.0694 10.0539C19.9496 10.1418 19.8445 10.2331 19.7116 10.2976C19.5786 10.3621 19.4623 10.4413 19.323 10.492C19.2568 10.5169 19.1928 10.5479 19.1316 10.5846C19.0571 10.6276 18.9814 10.6305 18.8994 10.6433C19.019 10.4708 19.1298 10.2917 19.2314 10.1069C19.285 10.0099 19.3363 9.91167 19.3853 9.81214C19.4068 9.76874 19.4233 9.717 19.4503 9.67735C19.474 9.64226 19.5097 9.62948 19.5418 9.6028C19.574 9.57611 19.5917 9.53963 19.6225 9.51511C19.6624 9.48342 19.7136 9.48459 19.7541 9.45377C19.7882 9.42804 19.811 9.38829 19.8452 9.3619C19.8865 9.32981 19.9368 9.3123 19.978 9.27926C20.0094 9.25399 20.0328 9.22073 20.0608 9.19169C20.0937 9.15778 20.1359 9.13472 20.1619 9.0941C20.1797 9.06615 20.2854 8.84315 20.2907 8.84371C20.2516 8.83969 20.1452 9.0293 20.1139 9.06099C20.0854 9.08947 20.0667 9.1208 20.041 9.15074C20.0099 9.18707 19.9685 9.20406 19.9298 9.22879C19.85 9.27978 19.7884 9.33751 19.7021 9.37801C19.6535 9.40071 19.6406 9.41641 19.6122 9.45857C19.5878 9.49488 19.5517 9.51434 19.5152 9.53597C19.5711 9.41027 19.624 9.28325 19.674 9.15491C19.6986 9.09161 19.7224 9.02806 19.7455 8.96427C19.7654 8.90955 19.7998 8.85945 19.8149 8.80763C19.8212 8.78612 19.8168 8.77334 19.8303 8.75303C19.8437 8.73272 19.8683 8.72761 19.8817 8.70796C19.9133 8.66124 19.9162 8.64754 19.9673 8.61203C20.0551 8.55114 20.1043 8.44864 20.1603 8.35626C20.1537 8.38958 20.0411 8.47494 20.0135 8.50681C19.967 8.55823 19.9142 8.60275 19.8564 8.63912C19.9018 8.49748 19.9345 8.37249 20.0297 8.25706C20.0652 8.21766 20.0978 8.1756 20.1275 8.13123C20.1344 8.11975 20.2089 7.98464 20.1994 7.98431C20.1841 7.98416 20.1038 8.11317 20.088 8.1292C20.0417 8.18188 19.9985 8.23757 19.9588 8.29593C20.024 8.06208 20.0804 7.82552 20.1257 7.5868C20.0828 7.73649 20.0381 7.88569 19.9916 8.03438C19.9853 7.9902 19.9711 7.94766 19.9638 7.90366C19.9564 7.85965 19.9669 7.81875 19.9634 7.77489C19.9187 7.88051 19.9599 8.01171 19.9571 8.11909C19.9557 8.17907 19.9218 8.25195 19.902 8.31083C19.878 8.38284 19.8533 8.45458 19.8279 8.52607C19.8287 8.50081 19.8461 8.48322 19.8491 8.46002C19.8534 8.42837 19.838 8.41358 19.8305 8.3857C19.8153 8.32853 19.8393 8.28504 19.8108 8.23011C19.7685 8.14805 19.7795 8.03444 19.7749 7.94086C19.7667 7.9545 19.7601 7.96913 19.7553 7.98443C19.7483 8.01523 19.755 8.04051 19.7535 8.07071C19.7504 8.13034 19.7595 8.18724 19.7506 8.24446C19.7437 8.28862 19.7551 8.30183 19.7646 8.34321C19.7727 8.37583 19.767 8.39514 19.7649 8.42882C19.7609 8.49166 19.8029 8.53722 19.7948 8.60331C19.7853 8.68108 19.7389 8.76137 19.711 8.83419C19.685 8.90202 19.6595 8.97074 19.6318 9.03821C19.5647 9.20111 19.4931 9.36177 19.4169 9.52021C19.4216 9.43326 19.4671 9.36391 19.4666 9.27494C19.4663 9.16487 19.5179 9.08917 19.5323 8.98432C19.5587 8.79036 19.5253 8.58134 19.4722 8.39548C19.4713 8.39523 19.4704 8.39518 19.4695 8.39534C19.4686 8.39549 19.4678 8.39584 19.467 8.39636C19.4695 8.50495 19.4909 8.60937 19.4863 8.71771C19.4843 8.76637 19.4946 8.81728 19.4899 8.86574C19.4851 8.9142 19.4587 8.95924 19.4471 9.00724C19.4356 9.05523 19.435 9.10589 19.4246 9.15403C19.4129 9.20833 19.3876 9.25689 19.3722 9.31036C19.356 9.36705 19.3734 9.40308 19.3766 9.45858C19.3796 9.51023 19.3599 9.55655 19.3488 9.60593C19.3011 9.8233 19.1452 10.0369 19.0257 10.2221C18.8978 10.4216 18.7555 10.6105 18.5999 10.7869C18.6443 10.7066 18.6644 10.6222 18.684 10.5329C18.7056 10.4327 18.761 10.3541 18.8064 10.2651C18.8998 10.0822 18.9204 9.86263 18.9742 9.66467C19.0012 9.5635 19.0091 9.46089 19.0331 9.3599C19.0554 9.26629 19.0863 9.17605 19.0953 9.07937C19.1039 8.98533 19.1208 8.89103 19.1266 8.79681C19.1281 8.77208 19.1087 8.52095 19.0839 8.52723C19.0805 8.52781 19.0827 8.93498 19.0751 8.97844C19.0602 9.06276 19.0299 9.14339 19.0149 9.22804C19.0014 9.30375 18.9906 9.37963 18.9677 9.4529C18.9202 9.60293 18.8723 9.74113 18.8575 9.89982C18.8425 10.0611 18.7432 10.1714 18.6965 10.3213C18.6482 10.4772 18.6364 10.6213 18.5521 10.7624C18.5113 10.8307 18.4811 10.9087 18.4283 10.9674C18.3733 11.0251 18.3148 11.0789 18.2531 11.1284C17.9953 11.3516 17.7184 11.549 17.4259 11.7178C17.5181 11.6066 17.6242 11.5088 17.7139 11.3954C17.8036 11.282 17.8605 11.142 17.9401 11.0191C18.0138 10.9047 18.1003 10.7999 18.1367 10.6638C18.1748 10.5223 18.1834 10.3751 18.2253 10.2336C18.2635 10.1048 18.3176 9.97649 18.3092 9.83895C18.3001 9.69348 18.3046 9.55713 18.3094 9.41141C18.314 9.26299 18.277 9.12045 18.3098 8.97305C18.3433 8.82248 18.3989 8.67735 18.4457 8.53145C18.446 8.55588 18.3859 8.64799 18.3728 8.67741C18.3377 8.74949 18.3098 8.8251 18.2894 8.90307C18.2554 9.04889 18.2455 9.21642 18.2359 9.36554C18.2262 9.51209 18.2444 9.64749 18.2033 9.79065C18.1642 9.93206 18.1393 10.0773 18.1291 10.2239C18.1157 10.3811 18.0645 10.5105 17.9971 10.6502C17.9321 10.7847 17.9086 10.9357 17.8396 11.0666C17.7706 11.1976 17.6648 11.3116 17.5827 11.4367C17.5052 11.5567 17.4138 11.6662 17.3108 11.7626C17.1869 11.8786 16.9906 11.9365 16.8354 11.9928C16.6597 12.0568 16.4804 12.1086 16.3004 12.1561C16.4035 12.0743 16.4982 11.9778 16.5958 11.8879C16.6906 11.8012 16.777 11.7088 16.8449 11.5962C16.9092 11.4897 16.9596 11.3748 17.0223 11.2671C17.0912 11.1484 17.175 11.0397 17.2167 10.9058C17.255 10.7828 17.2571 10.6528 17.2627 10.5248C17.2678 10.3906 17.2969 10.2582 17.2997 10.1245C17.3026 9.99089 17.2692 9.86013 17.298 9.72807C17.3267 9.59601 17.3876 9.47141 17.4275 9.34343C17.4726 9.19896 17.5159 9.07893 17.5967 8.95129C17.6775 8.82364 17.7451 8.68968 17.821 8.55916C17.8158 8.58774 17.7398 8.65692 17.7167 8.6861C17.6638 8.75183 17.6149 8.82108 17.5704 8.89341C17.4925 9.02539 17.4212 9.16302 17.3455 9.2964C17.2641 9.43897 17.2342 9.57767 17.2035 9.73904C17.174 9.89361 17.1267 10.0442 17.1397 10.2036C17.1528 10.3657 17.1845 10.5103 17.1413 10.6725C17.1001 10.8276 17.0199 10.9682 16.979 11.1242C16.9394 11.2758 16.8726 11.3943 16.7766 11.5158C16.6805 11.6374 16.5907 11.7636 16.4895 11.8784C16.4277 11.9452 16.3597 12.0052 16.2865 12.0576C16.2248 12.1044 16.161 12.1858 16.0909 12.2085C15.9105 12.267 15.7193 12.2983 15.5359 12.3464C15.6334 12.2518 15.6892 12.1273 15.7615 12.0133C15.8315 11.9028 15.9198 11.8085 15.9816 11.6919C16.0435 11.5754 16.0942 11.4491 16.1546 11.33C16.2151 11.211 16.2871 11.1074 16.3025 10.9724C16.3187 10.8344 16.2682 10.7058 16.2701 10.5691C16.2721 10.4323 16.3118 10.2976 16.3428 10.1645C16.3739 10.0314 16.3767 9.89218 16.4145 9.76133C16.4523 9.63048 16.5235 9.50961 16.5657 9.3785C16.6536 9.10601 16.8626 8.9258 16.9873 8.67643C16.9858 8.70148 16.911 8.77562 16.8902 8.80054C16.8364 8.86502 16.7802 8.92669 16.7317 8.99605C16.6409 9.12604 16.5499 9.26618 16.47 9.40399C16.3956 9.53232 16.3779 9.6799 16.3319 9.81971C16.2835 9.96717 16.2127 10.0954 16.1929 10.2526C16.1734 10.407 16.184 10.5649 16.1521 10.7176C16.1202 10.8704 16.0877 11.0087 16.0869 11.1658C16.0861 11.315 16.0169 11.4262 15.9323 11.5412C15.8479 11.6548 15.78 11.7811 15.7311 11.9157C15.6727 12.0717 15.5646 12.2224 15.4567 12.3457C15.4058 12.4039 15.2929 12.4135 15.2194 12.4368C15.1325 12.4644 15.0462 12.4947 14.9616 12.5296C15.0311 12.4264 15.094 12.3183 15.1498 12.2063C15.212 12.0797 15.226 11.9311 15.2472 11.7923C15.2857 11.5389 15.3767 11.2741 15.3063 11.0197C15.273 10.8999 15.2489 10.8009 15.2702 10.6741C15.2924 10.5416 15.3404 10.4159 15.3635 10.2835C15.3844 10.1607 15.3852 10.0411 15.4511 9.93252C15.5171 9.82397 15.5947 9.72165 15.6428 9.59985C15.6854 9.49202 15.7451 9.40385 15.8165 9.31532C15.8518 9.27151 15.8892 9.22912 15.9236 9.18452C15.9321 9.17342 16.0114 9.08289 16.0057 9.06647C15.9968 9.04109 15.8267 9.19154 15.8158 9.20352C15.7334 9.29505 15.6867 9.415 15.6107 9.51188C15.5347 9.60877 15.4603 9.69202 15.4075 9.80382C15.3503 9.92716 15.3097 10.0575 15.2354 10.171C15.0921 10.3923 15.1505 10.6266 15.117 10.8758C15.1011 10.9936 15.0624 11.0958 15.075 11.2166C15.0899 11.3577 15.1889 11.4788 15.1813 11.621C15.1751 11.7381 15.1148 11.8415 15.0788 11.9506C15.0378 12.0741 15.0594 12.203 15.0064 12.326C14.9637 12.4253 14.8841 12.5162 14.8066 12.5875C14.7093 12.6771 14.5613 12.7301 14.4472 12.7967C14.2216 12.9258 14.0054 13.0726 13.8005 13.2358C13.4083 13.5537 13.1312 13.9457 12.934 14.4221C12.8377 14.6546 13.1673 14.6954 13.241 14.5635C13.2899 14.4773 13.3404 14.3927 13.3924 14.3096C13.5325 14.0872 13.6876 13.8756 13.8565 13.6766C14.0443 13.4553 14.2424 13.237 14.4765 13.0701C14.5987 12.984 14.7263 12.907 14.8586 12.8398C14.9915 12.7758 15.1624 12.7698 15.3075 12.7591Z" fill="#0C321E"/>
<path d="M20.5278 9.18197C20.5148 9.09093 20.4947 9.00576 20.4987 8.91316C20.5026 8.82055 20.5126 8.72885 20.5128 8.6359C20.5126 8.5508 20.521 8.46582 20.5379 8.38242C20.5577 8.28407 20.5356 8.20086 20.5253 8.10374C20.543 8.18512 20.4885 8.30316 20.4834 8.39C20.4767 8.50982 20.4406 8.6262 20.4414 8.7462C20.4418 8.87349 20.4658 8.99631 20.4506 9.12416C20.4345 9.25858 20.4204 9.35806 20.491 9.47785C20.5595 9.59414 20.5774 9.68419 20.5654 9.82146C20.5537 9.95402 20.5568 10.083 20.5405 10.2155C20.5251 10.3424 20.5693 10.4617 20.5616 10.5884C20.5548 10.7007 20.5443 10.8258 20.4858 10.9232C20.5288 10.8942 20.5649 10.7957 20.5801 10.7463C20.6008 10.6768 20.596 10.6077 20.5951 10.5364C20.5941 10.4518 20.6086 10.3681 20.605 10.2837C20.6014 10.2065 20.5925 10.1338 20.6064 10.0565C20.6187 9.99007 20.6475 9.92949 20.6538 9.86096C20.6603 9.78874 20.6525 9.71604 20.631 9.64743C20.607 9.56889 20.5663 9.49605 20.5466 9.41597C20.527 9.33829 20.5386 9.25969 20.5278 9.18197Z" fill="#0C321E"/>
<path d="M20.4165 7.11309C20.3827 7.3418 20.4356 7.57553 20.4656 7.7996C20.4625 7.56826 20.4756 7.33659 20.4165 7.11309Z" fill="#0C321E"/>
<path d="M15.9905 13.6057C15.9014 13.6039 15.8126 13.5944 15.725 13.5772C15.6832 13.5682 15.5479 13.5461 15.5264 13.5156C15.6493 13.5969 15.7775 13.6148 15.9205 13.6191C16.0493 13.6231 16.1747 13.6453 16.3029 13.655C16.4388 13.6654 16.5699 13.6964 16.7046 13.7133C16.8487 13.7313 16.9948 13.7187 17.1397 13.725C17.2715 13.7309 17.3937 13.7562 17.5262 13.7373C17.6588 13.7185 17.7875 13.689 17.9177 13.6651C18.0582 13.6395 18.1758 13.5785 18.3055 13.5191C18.3403 13.5033 18.6996 13.3429 18.6971 13.339C18.6841 13.319 18.4071 13.429 18.38 13.4397C18.2661 13.485 18.1484 13.5038 18.0335 13.5439C17.9187 13.5841 17.8069 13.6466 17.6823 13.6496C17.5769 13.6513 17.4749 13.6178 17.369 13.6325C17.2545 13.6481 17.1442 13.6653 17.0285 13.6607C16.9128 13.6561 16.8013 13.6435 16.6869 13.6431C16.5762 13.645 16.4656 13.6386 16.3559 13.6239C16.2325 13.6054 16.1146 13.6095 15.9905 13.6057Z" fill="#0C321E"/>
<path d="M16.5495 13.466C16.6365 13.4859 16.7501 13.4785 16.8386 13.4668C16.9362 13.4537 17.0257 13.47 17.1228 13.4661C17.1737 13.464 17.2218 13.4454 17.2718 13.4384C17.3278 13.4307 17.384 13.4367 17.4399 13.4287C17.5486 13.4129 17.6573 13.3867 17.7657 13.3676C17.6428 13.3783 17.5135 13.373 17.3922 13.3912C17.3288 13.4019 17.2646 13.4046 17.2007 13.3992C17.1281 13.3928 17.0597 13.4169 16.9876 13.4163C16.9211 13.4157 16.8615 13.4046 16.7951 13.4184C16.7307 13.4327 16.6644 13.4343 16.5997 13.4231C16.5404 13.4151 16.4826 13.4114 16.4233 13.4005C16.3926 13.3939 16.3613 13.3904 16.33 13.39C16.3104 13.3901 16.2647 13.4036 16.2493 13.3982C16.3538 13.4073 16.4495 13.4428 16.5495 13.466Z" fill="#0C321E"/>
<path d="M19.3732 7.46014C19.4652 7.3898 19.5512 7.31127 19.6305 7.22541C19.6123 7.2631 19.5019 7.31926 19.4643 7.34782C19.3923 7.40266 19.3221 7.45976 19.2483 7.51183C19.1168 7.60456 18.9705 7.66243 18.8374 7.75028C18.7009 7.84047 18.5616 7.89603 18.4089 7.94582C18.3331 7.97052 18.2654 8.01271 18.1915 8.0408C18.122 8.06704 18.053 8.0927 17.9842 8.12121C17.8298 8.18497 17.6627 8.20045 17.5038 8.24855C17.3512 8.29462 17.1964 8.33151 17.04 8.35906C16.888 8.38633 16.7395 8.44586 16.5987 8.51199C16.5617 8.52935 16.2122 8.74858 16.2077 8.74274C16.2169 8.75471 16.367 8.67993 16.3875 8.67035C16.4535 8.63956 16.5154 8.60173 16.5779 8.56477C16.7109 8.48629 16.8349 8.47308 16.9814 8.44239C17.1279 8.4117 17.2656 8.36718 17.4131 8.34437C17.571 8.32012 17.7071 8.27234 17.8559 8.21245C17.9881 8.15936 18.1284 8.11813 18.263 8.07173C18.3976 8.02534 18.5149 7.96173 18.6445 7.897C18.7711 7.83377 18.9079 7.79103 19.0236 7.7066C19.1393 7.62217 19.2588 7.5458 19.3732 7.46014Z" fill="#0C321E"/>
<path d="M19.207 7.7362C19.1306 7.77745 19.0451 7.82136 18.9756 7.8743C18.9305 7.9088 18.9026 7.91643 18.8505 7.93343C18.8084 7.94714 18.7806 7.97937 18.7442 8.00226C18.7014 8.02913 18.6507 8.03206 18.6064 8.05531C18.5669 8.07632 18.53 8.09897 18.4902 8.11921C18.476 8.12661 18.2919 8.26671 18.2875 8.26084C18.3056 8.28596 18.5269 8.16696 18.5484 8.15239C18.577 8.13361 18.6077 8.11858 18.6397 8.10765C18.6878 8.08843 18.7238 8.04611 18.773 8.02815C18.8131 8.01364 18.8533 8.01733 18.8903 7.99225C18.9092 7.97923 18.9197 7.95748 18.9378 7.9438C18.9632 7.9247 18.9942 7.9206 19.0222 7.90798C19.0896 7.87647 19.1775 7.79723 19.207 7.7362Z" fill="#0C321E"/>
<path d="M20.119 12.113C20.0607 12.1904 20.0143 12.2719 19.9607 12.3511C19.9416 12.3796 19.9026 12.3878 19.8865 12.415C19.8686 12.4451 19.8877 12.4718 19.8662 12.5015C19.8492 12.5249 19.8128 12.5279 19.7969 12.552C19.7871 12.5666 19.7916 12.5835 19.7831 12.5975C19.7706 12.6177 19.7556 12.6199 19.7389 12.6335C19.7108 12.6564 19.6922 12.6858 19.6654 12.7103C19.6418 12.7292 19.6198 12.7504 19.5998 12.7735C19.6049 12.7666 19.6683 12.7549 19.6798 12.7476C19.7143 12.7257 19.7636 12.7013 19.7945 12.6759C19.8255 12.6506 19.8395 12.6234 19.8757 12.6014C19.918 12.5757 19.9151 12.5556 19.9391 12.5156C19.9603 12.4798 20.0026 12.4782 20.0252 12.4467C20.0477 12.4152 20.0381 12.3714 20.0574 12.3348C20.0931 12.2664 20.1141 12.1906 20.119 12.113Z" fill="#0C321E"/>
<path d="M14.5923 10.4327C14.5888 10.4791 14.614 10.5208 14.6309 10.5613C14.6309 10.5613 14.6559 10.4864 14.6584 10.4761C14.6671 10.4394 14.6735 10.402 14.6774 10.3644C14.6893 10.2701 14.7349 10.2473 14.7822 10.1746C14.8063 10.1383 14.8015 10.1058 14.8078 10.0651C14.8152 10.0175 14.8332 9.99225 14.8617 9.95523C14.8843 9.92597 14.9098 9.8988 14.9213 9.86256C14.9348 9.81971 14.9234 9.77767 14.9283 9.73434C14.9385 9.64052 15.0108 9.61687 15.0478 9.5422C15.0847 9.46753 15.0659 9.39583 15.1213 9.3269C15.1766 9.25798 15.239 9.20607 15.2899 9.13434C15.3507 9.05208 15.417 8.97444 15.4881 8.90202C15.3676 9.02236 15.2105 9.12313 15.1157 9.26746C15.0724 9.33386 15.0199 9.39313 14.9601 9.44332C14.8988 9.49634 14.8733 9.53139 14.868 9.61231C14.8627 9.69323 14.8202 9.74648 14.7796 9.81112C14.7586 9.841 14.744 9.87535 14.7369 9.91173C14.7304 9.95195 14.7384 9.98973 14.7209 10.0281C14.6896 10.0978 14.6169 10.128 14.6228 10.2133C14.6259 10.2577 14.6358 10.2809 14.6235 10.3259C14.6127 10.3613 14.5951 10.3947 14.5923 10.4327Z" fill="#0C321E"/>
<path d="M22.4286 7.31431C22.3434 7.34627 22.2611 7.38632 22.1827 7.43398C22.1491 7.4544 22.1245 7.49176 22.091 7.51371C22.0873 7.51626 21.9897 7.56635 21.9969 7.57319C22.0274 7.60406 22.2462 7.49189 22.2756 7.4706C22.3633 7.40755 22.446 7.34357 22.5395 7.28724C22.5021 7.29427 22.4651 7.30331 22.4286 7.31431Z" fill="#0C321E"/>
<path d="M11.9762 11.9567C12.5041 10.8163 12.7068 9.75113 12.5131 8.56569C12.3775 7.73559 11.4675 6.52561 10.8256 6.01821C9.55124 5.01077 7.73372 4.82452 6.38977 4.02016C5.00825 3.19342 4.52909 2.70106 3.82255 1.67517C3.67469 1.46054 3.01979 0.747163 2.97582 1.00783C2.39211 4.47679 0.416759 7.7709 2.16676 11.1536C2.34822 11.5042 2.38141 11.7664 2.70002 12.2709C3.01863 12.7754 4.01244 13.7444 4.29751 13.8902C6.06609 14.795 8.49801 16.011 11.0845 14.0016C11.97 13.3135 11.4484 13.0971 11.9762 11.9567Z" fill="#87CE29"/>
<path d="M2.69879 0.215465C2.95718 -0.00879474 3.30006 0.239422 3.50809 0.414627C3.87373 0.722551 4.17953 1.10985 4.48129 1.48435C4.79418 1.87275 5.09696 2.27311 5.44215 2.63053C5.96449 3.17152 6.56782 3.56397 7.22529 3.89947C7.89904 4.24258 8.59972 4.5219 9.29504 4.81173C9.89842 5.06316 10.5443 5.29406 11.08 5.68639C11.9707 6.33872 12.617 7.37758 12.9436 8.46013C13.1146 9.0275 13.2041 9.63839 13.1285 10.2344C13.0311 11.0012 12.5748 11.5814 12.2087 12.2284C12.3819 11.7906 12.628 11.3707 12.7443 10.9102C12.858 10.4607 12.8096 9.98077 12.7661 9.52522C12.6765 8.58442 12.4574 7.62211 11.9224 6.84957C11.6371 6.43843 11.269 6.09913 10.8443 5.85561C10.2959 5.54107 9.68556 5.37836 9.09964 5.16226C8.51651 4.94725 7.96657 4.64337 7.42226 4.33895C6.90692 4.05078 6.40104 3.74319 5.91421 3.40469C4.84579 2.66209 3.87825 1.76234 3.11696 0.673551C3.08471 1.317 2.8169 1.96253 2.60135 2.55837C2.32155 3.32944 2.00447 4.09197 1.78167 4.884C1.6119 5.48791 1.5168 6.10029 1.43092 6.72069C1.37567 7.11924 1.27772 7.51099 1.23257 7.91106C1.19091 8.2811 1.25887 8.58942 1.3372 8.94529C1.48028 9.59641 1.5667 10.2604 1.70067 10.9135C1.77794 11.2897 1.85738 11.6456 2.05261 11.9748C2.24784 12.3039 2.5045 12.5824 2.77369 12.8411C3.37823 13.4224 4.03178 13.9734 4.76531 14.3633C5.53674 14.7735 6.38483 15.0165 7.24113 15.1391C8.09743 15.2616 9.00462 15.3032 9.85089 15.0856C10.5821 14.8976 11.2451 14.5121 11.9067 14.144C11.3236 14.6732 10.8063 15.2659 10.0297 15.4488C9.35343 15.6082 8.64079 15.5945 7.95633 15.5305C7.14663 15.4536 6.34714 15.2904 5.57009 15.0433C4.84171 14.8124 4.11806 14.5101 3.48192 14.0672C3.22096 13.8853 2.9726 13.6771 2.76578 13.4287C2.53477 13.1509 2.40162 12.8051 2.17505 12.5239C2.01169 12.3208 1.79119 12.1723 1.65199 11.9478C1.44432 11.6127 1.36816 11.1912 1.28091 10.8066C1.11724 10.0852 0.976916 9.35761 0.841248 8.62978C0.819387 8.51 0.821787 8.39225 0.82062 8.27135C0.817521 7.89434 0.826269 7.51699 0.851853 7.14071C0.881085 6.71538 0.924264 6.27993 1.05229 5.87234C1.22492 5.31972 1.4501 4.78416 1.65905 4.24589C1.87592 3.68756 2.08327 3.12675 2.23802 2.54567C2.32168 2.23258 2.3936 1.91479 2.4584 1.59624C2.51341 1.32201 2.58402 1.05214 2.55717 0.771364C2.53718 0.557216 2.52406 0.36774 2.69879 0.215465Z" fill="#0C321E"/>
<path d="M10.5576 13.3664C10.3139 13.3122 10.0668 13.2601 9.82083 13.2244C9.58055 13.1897 9.33299 13.2339 9.08833 13.2094C8.82969 13.1841 8.59158 13.23 8.33581 13.2693C8.08893 13.3073 7.84976 13.2897 7.60776 13.2318C7.34557 13.169 7.10652 13.1158 6.83542 13.1304C6.57413 13.1443 6.31068 13.1742 6.05072 13.1305C5.77691 13.0844 5.5055 12.9566 5.24483 12.8605C4.99177 12.7669 4.736 12.6811 4.49751 12.551C4.23503 12.4081 3.95965 12.2591 3.71918 12.0786C3.59761 11.9856 3.48348 11.8823 3.37789 11.7697C3.34618 11.7365 3.10642 11.4375 3.10349 11.4381C3.13782 11.4305 3.31803 11.6573 3.35008 11.6883C3.45473 11.7901 3.56294 11.8877 3.67598 11.9789C3.89526 12.1597 4.13818 12.3062 4.3974 12.4142C4.6653 12.523 4.92452 12.6438 5.18843 12.7621C5.43892 12.8748 5.66119 12.9092 5.93148 12.906C6.48442 12.8991 7.03125 12.9628 7.58498 12.9369C8.12413 12.9116 8.64157 13.1065 9.17843 13.0856C9.31906 13.0806 9.45459 13.0583 9.59515 13.0768C9.74093 13.096 9.87634 13.151 10.0173 13.1834C10.3378 13.2581 10.6624 13.3241 10.9826 13.402C10.4693 13.0712 9.92674 12.793 9.38098 12.5267C9.11162 12.3954 8.84104 12.2671 8.57082 12.1384C8.44372 12.0775 8.31686 12.0163 8.19024 11.9548C8.04976 11.886 7.8729 11.887 7.71851 11.8678C7.43578 11.8327 7.16701 11.8045 6.88192 11.8222C6.59684 11.8398 6.34858 11.7689 6.08134 11.6807C5.79454 11.5858 5.49547 11.5362 5.21077 11.4354C4.93165 11.3366 4.70792 11.1298 4.44574 10.9928C4.305 10.9195 4.1567 10.8505 4.03829 10.7395C3.91989 10.6284 3.81852 10.5047 3.69365 10.4001C3.4578 10.2027 3.26454 9.98679 3.16446 9.68065C3.16467 9.64209 3.2268 9.73307 3.22421 9.72966C3.26113 9.76916 3.28798 9.82584 3.32099 9.87006C3.39023 9.96106 3.46441 10.0477 3.54315 10.1297C3.69669 10.2919 3.8497 10.451 4.04355 10.5593C4.24325 10.6701 4.40769 10.8149 4.59638 10.9428C4.78151 11.0674 4.99809 11.103 5.19804 11.1937C5.40412 11.2877 5.59846 11.4072 5.81155 11.4843C6.01765 11.5589 6.22391 11.571 6.43917 11.5918C6.64509 11.6117 6.84202 11.6776 7.04711 11.6997C7.26565 11.7233 7.48668 11.7003 7.7061 11.7115C7.21246 11.454 6.73663 11.1688 6.31994 10.7862C6.21995 10.6942 6.12325 10.5984 6.02985 10.4989C5.9809 10.4468 5.92938 10.3645 5.8724 10.3243C5.82353 10.2902 5.75238 10.2704 5.69845 10.2451C5.58968 10.1942 5.4801 10.1376 5.36072 10.1198C5.26341 10.1054 5.1638 10.1201 5.06683 10.1017C4.84272 10.0607 4.70228 9.86612 4.52417 9.7396C4.4086 9.65743 4.27477 9.60826 4.14939 9.54599C4.01618 9.47985 3.90579 9.38935 3.78675 9.30099C3.67971 9.2219 3.56121 9.17082 3.44887 9.10155C3.34866 9.03988 3.2818 8.95389 3.19533 8.87517C3.09965 8.7881 2.98466 8.73327 2.87959 8.66108C2.8523 8.64194 2.60682 8.38423 2.65539 8.3745C2.67876 8.37006 2.78405 8.46046 2.80655 8.47584C2.87001 8.51979 2.93115 8.56734 2.9897 8.61828C3.10846 8.72363 3.23943 8.81271 3.37955 8.88343C3.52256 8.95443 3.63388 9.05478 3.76457 9.14513C3.88527 9.22891 4.02406 9.27041 4.15093 9.34157C4.27781 9.41273 4.38982 9.51246 4.51319 9.59108C4.64767 9.67619 4.78919 9.7137 4.94182 9.74642C5.04704 9.76557 5.14668 9.80924 5.23351 9.87425C5.35863 9.9643 5.47923 9.99045 5.62582 10.0208C5.37681 9.69216 5.15389 9.34234 4.95929 8.97486C4.9444 8.94682 4.92669 8.88788 4.90336 8.86907C4.87583 8.84518 4.78442 8.82317 4.75134 8.80826C4.66235 8.76707 4.57736 8.71814 4.48867 8.67715C4.31957 8.59923 4.16419 8.53663 4.01447 8.41822C3.86474 8.29982 3.7121 8.1933 3.55686 8.08352C3.39769 7.97106 3.27783 7.81086 3.12911 7.68428C2.98768 7.56404 2.89573 7.42135 2.78018 7.27633C2.72556 7.21197 2.67615 7.14289 2.63244 7.0698C2.61844 7.04638 2.54043 6.85566 2.53723 6.85573C2.57724 6.85657 2.72196 7.1048 2.74959 7.14453C2.80929 7.23025 2.86304 7.31447 2.93782 7.38799C3.12417 7.57215 3.28384 7.76031 3.49969 7.90702C3.71554 8.05374 3.89813 8.22377 4.1286 8.34847C4.23794 8.40923 4.34195 8.47999 4.43944 8.55995C4.55926 8.65427 4.6903 8.67962 4.83052 8.72309C4.66715 8.39144 4.52087 8.05061 4.39232 7.70208C4.3241 7.51842 4.26023 7.33299 4.20071 7.14579C4.17562 7.06432 4.15952 6.96911 4.12297 6.89291C4.09052 6.82498 4.03154 6.79339 3.98237 6.73821C3.93567 6.68592 3.91183 6.61433 3.8645 6.56385C3.80314 6.49786 3.71307 6.48658 3.6503 6.42216C3.59744 6.36716 3.56811 6.29258 3.51526 6.23742C3.45082 6.17016 3.36791 6.1268 3.30456 6.05795C3.25626 6.0057 3.22415 5.94133 3.18289 5.88326C3.13416 5.81514 3.06629 5.76394 3.03172 5.68521C3.00812 5.63167 2.88201 5.21348 2.87278 5.21304C2.94213 5.21635 3.07786 5.57705 3.12432 5.63976C3.1674 5.69713 3.19113 5.75675 3.22831 5.81598C3.2731 5.88715 3.34118 5.92826 3.40274 5.9823C3.52891 6.09215 3.62141 6.20945 3.76174 6.3028C3.841 6.3553 3.85932 6.38616 3.89785 6.46724C3.93091 6.53742 3.98905 6.58089 4.04719 6.62824C3.98251 6.39354 3.92363 6.15709 3.87053 5.91887C3.84429 5.80175 3.81942 5.68424 3.79591 5.56634C3.77583 5.46525 3.72869 5.36878 3.71566 5.27316C3.71035 5.23379 3.72074 5.21276 3.70326 5.17372C3.68579 5.13468 3.64398 5.1192 3.62529 5.08123C3.58223 4.99134 3.58081 4.96646 3.50061 4.89097C3.363 4.76145 3.30414 4.56897 3.23143 4.39301C3.23403 4.45322 3.40871 4.63185 3.44845 4.69484C3.51601 4.79707 3.59668 4.8889 3.68817 4.96774C3.64618 4.70759 3.62235 4.48032 3.48624 4.2532C3.43624 4.16981 3.38747 4.09848 3.34866 4.00743C3.33948 3.9856 3.24433 3.72907 3.26161 3.73052C3.28939 3.73438 3.39522 3.97984 3.41843 4.0133C3.4896 4.11634 3.54094 4.22748 3.59942 4.33905C3.54739 3.91345 3.5117 3.48349 3.49567 3.05334C3.53099 3.32691 3.56958 3.59973 3.61141 3.87183C3.63457 3.79593 3.67038 3.72514 3.69507 3.64989C3.71977 3.57463 3.7125 3.49971 3.73001 3.42435C3.78039 3.62084 3.67319 3.83979 3.6493 4.02885C3.63597 4.13421 3.67686 4.27075 3.69491 4.37893C3.71816 4.51129 3.74244 4.64341 3.76776 4.77528C3.77277 4.73088 3.74717 4.69537 3.74778 4.65397C3.74869 4.5976 3.77965 4.5751 3.80001 4.52862C3.84195 4.43241 3.81152 4.34998 3.87601 4.26105C3.97211 4.12845 3.98272 3.92648 4.01571 3.76397C4.01803 3.7554 4.03796 3.83542 4.03873 3.84526C4.0425 3.90101 4.02407 3.94361 4.01879 3.99691C4.00849 4.10219 3.97732 4.19948 3.97716 4.30191C3.97753 4.38113 3.95413 4.40107 3.92542 4.47094C3.90273 4.52615 3.90759 4.56143 3.90229 4.62063C3.89293 4.73189 3.80728 4.80084 3.80359 4.91881C3.7996 5.05731 3.85895 5.2099 3.88895 5.34486C3.91624 5.47032 3.94275 5.59757 3.97358 5.72265C4.04755 6.02542 4.13025 6.32549 4.2217 6.62287C4.23654 6.46928 4.17525 6.33607 4.19985 6.18027C4.23026 5.98771 4.15954 5.84124 4.16245 5.6548C4.16795 5.30851 4.28187 4.95079 4.42354 4.63921C4.42514 4.63913 4.42674 4.63941 4.42823 4.64003C4.42971 4.64065 4.43106 4.64159 4.43218 4.6428C4.39914 4.83243 4.33376 5.00974 4.31292 5.20057C4.30339 5.28722 4.27208 5.37287 4.26738 5.45908C4.26268 5.54529 4.29714 5.63109 4.30467 5.71816C4.3122 5.80522 4.29966 5.89347 4.30509 5.98087C4.31102 6.07926 4.3424 6.17136 4.35515 6.26848C4.36865 6.37188 4.32857 6.43069 4.30818 6.52686C4.28912 6.61675 4.31203 6.70326 4.31778 6.79237C4.34327 7.18608 4.55978 7.60025 4.71995 7.95508C4.89078 8.33779 5.08985 8.70556 5.31535 9.05503C5.259 8.90302 5.24633 8.74981 5.23579 8.58852C5.22396 8.40826 5.14855 8.25499 5.09251 8.08785C4.9778 7.74307 4.99975 7.35301 4.95837 6.9925C4.93738 6.80928 4.95116 6.62644 4.93608 6.44321C4.92193 6.27353 4.89184 6.10722 4.90187 5.93486C4.91182 5.76721 4.90734 5.59834 4.92221 5.4311C4.92589 5.38727 5.02633 4.95259 5.06877 4.97014C5.07448 4.97247 4.96237 5.68452 4.96427 5.76252C4.96746 5.91443 4.99934 6.06319 5.00331 6.21534C5.00671 6.35142 5.00472 6.48706 5.02598 6.62162C5.06927 6.8967 5.1165 7.15155 5.10016 7.43307C5.08356 7.71962 5.22881 7.93875 5.27023 8.21333C5.31329 8.49867 5.29575 8.75464 5.40599 9.02356C5.45891 9.1537 5.49194 9.29835 5.56759 9.41457C5.64325 9.53079 5.74122 9.63793 5.83163 9.74208C6.22465 10.1954 6.65591 10.623 7.12376 10.9898C6.99191 10.7709 6.83217 10.5722 6.7049 10.3502C6.57553 10.1245 6.51582 9.86804 6.40928 9.63112C6.3107 9.41154 6.18703 9.20552 6.15909 8.95869C6.13 8.70081 6.15474 8.44089 6.11824 8.18188C6.08553 7.94628 6.02498 7.70732 6.07649 7.46903C6.13093 7.21666 6.15927 6.97659 6.19024 6.7204C6.22178 6.45936 6.32453 6.21931 6.30611 5.95239C6.2874 5.68124 6.2288 5.41161 6.1862 5.1435C6.17925 5.18622 6.25969 5.36332 6.27487 5.41818C6.31357 5.55421 6.3495 5.69286 6.36068 5.83517C6.38141 6.09942 6.35465 6.39472 6.33167 6.65833C6.30994 6.91665 6.24238 7.15039 6.27564 7.41182C6.31028 7.6796 6.30794 7.92 6.29001 8.1901C6.27199 8.46895 6.32701 8.70896 6.40812 8.97104C6.48606 9.22343 6.48706 9.49427 6.5731 9.74144C6.6604 9.99259 6.81402 10.2166 6.92463 10.4564C7.02856 10.6868 7.15939 10.9024 7.31408 11.0983C7.50049 11.333 7.82901 11.4862 8.08574 11.6254C8.3759 11.7827 8.67667 11.9204 8.97951 12.0505C8.82078 11.8796 8.68079 11.6854 8.53318 11.5038C8.38935 11.3267 8.2635 11.1428 8.17458 10.928C8.09013 10.7246 8.03232 10.5102 7.95133 10.3054C7.86212 10.0789 7.74439 9.86676 7.70703 9.62183C7.67266 9.39637 7.70226 9.16786 7.72775 8.94271C7.75434 8.70636 7.73857 8.46663 7.76918 8.2318C7.7998 7.99697 7.89306 7.77668 7.8777 7.53782C7.86235 7.29896 7.78876 7.06514 7.7531 6.83029C7.71276 6.56574 7.6688 6.34419 7.56115 6.09958C7.4535 5.85498 7.3706 5.60268 7.27242 5.35568C7.27406 5.40636 7.38894 5.54795 7.42102 5.60507C7.49643 5.73399 7.56373 5.86803 7.62249 6.00634C7.72382 6.25766 7.81185 6.5173 7.90949 6.77083C8.01433 7.04317 8.02962 7.2923 8.04083 7.58237C8.05142 7.86077 8.09414 8.13698 8.0291 8.41272C7.96284 8.69357 7.86911 8.93842 7.90144 9.23364C7.93246 9.51611 8.03543 9.78408 8.06559 10.0672C8.09484 10.3439 8.18012 10.5679 8.31596 10.8058C8.4518 11.0437 8.5759 11.2883 8.72221 11.5156C8.81065 11.6526 8.91799 11.768 9.03013 11.8834C9.1255 11.9816 9.21609 12.1405 9.33258 12.1985C9.63313 12.3481 9.95962 12.4534 10.268 12.5845C10.1223 12.3935 10.0572 12.1624 9.96125 11.9423C9.86825 11.7305 9.73859 11.5425 9.66131 11.3222C9.58329 11.0993 9.52867 10.8677 9.45445 10.6433C9.38137 10.4225 9.28175 10.219 9.29004 9.97807C9.29858 9.73229 9.42103 9.52002 9.45414 9.28018C9.48725 9.04034 9.4532 8.79401 9.43422 8.55265C9.41524 8.31129 9.44746 8.06683 9.41537 7.82757C9.38349 7.5858 9.29148 7.35835 9.25232 7.11782C9.17078 6.61779 8.85226 6.24897 8.70069 5.77843C8.69698 5.8226 8.80786 5.97177 8.83758 6.02094C8.91456 6.14806 8.9969 6.27023 9.06321 6.40453C9.18768 6.65611 9.30988 6.92519 9.41255 7.18724C9.50892 7.43123 9.5005 7.69455 9.5439 7.95127C9.58961 8.22217 9.67951 8.46528 9.67235 8.74589C9.66515 9.02127 9.60474 9.29521 9.62066 9.57102C9.63658 9.84682 9.65621 10.0977 9.61563 10.3731C9.57765 10.6348 9.66914 10.8475 9.78656 11.0709C9.90435 11.2919 9.98962 11.5307 10.0395 11.7793C10.1003 12.0679 10.2495 12.3598 10.4057 12.6038C10.4793 12.7189 10.6745 12.7651 10.7972 12.8253C10.9421 12.8963 11.0851 12.9717 11.2239 13.0549C11.1297 12.8558 11.0483 12.6502 10.9802 12.4393C10.9044 12.2016 10.9201 11.9376 10.9199 11.689C10.9198 11.2351 10.8309 10.7476 11.0219 10.3204C11.112 10.119 11.1807 9.95228 11.1768 9.72449C11.173 9.48694 11.122 9.25384 11.1176 9.0159C11.1133 8.79533 11.1439 8.5856 11.0565 8.37808C10.968 8.1676 10.861 7.97142 10.8091 7.74549C10.7632 7.5455 10.6822 7.37575 10.5799 7.20153C10.5295 7.11574 10.4754 7.03183 10.427 6.94486C10.4149 6.92329 10.3002 6.74397 10.3146 6.71637C10.337 6.67428 10.5949 6.98206 10.6106 7.00596C10.7307 7.18759 10.7807 7.40999 10.8878 7.59996C10.9934 7.78711 11.1035 7.95509 11.1652 8.16566C11.233 8.39663 11.2694 8.63541 11.3686 8.85488C11.5609 9.27964 11.3966 9.67491 11.389 10.1203C11.3853 10.3309 11.4261 10.5197 11.3717 10.7281C11.3083 10.9713 11.1024 11.1576 11.078 11.4085C11.0578 11.6154 11.1358 11.813 11.1699 12.0127C11.2088 12.2399 11.1369 12.4598 11.197 12.6889C11.2453 12.8738 11.3606 13.054 11.4775 13.1991C11.6241 13.3813 11.869 13.5126 12.0512 13.659C12.4092 13.9467 12.7545 14.2545 13.0673 14.5965C13.6698 15.2553 14.0507 16.014 14.2695 16.8998C14.3748 17.333 14.4509 17.7738 14.4974 18.2189C14.5091 18.3279 14.4702 18.4019 14.3578 18.4373C14.3181 18.4498 14.1384 18.4463 14.1115 18.4208C14.071 18.3823 14.0552 18.2036 14.0389 18.1451C14.0103 18.0392 13.9805 17.9339 13.9494 17.8291C13.693 16.9539 13.3234 16.1211 12.851 15.354C12.5808 14.9177 12.2919 14.4838 11.9262 14.1305C11.7351 13.948 11.532 13.78 11.3183 13.6278C11.1054 13.478 10.809 13.4234 10.5576 13.3664Z" fill="#0C321E"/>
<path d="M2.36556 5.74267C2.41192 5.58634 2.47064 5.44267 2.48861 5.27839C2.50658 5.1141 2.51304 4.95189 2.53744 4.78899C2.56063 4.64004 2.56863 4.48905 2.56128 4.3386C2.55257 4.16112 2.61353 4.02118 2.65746 3.85386C2.60483 3.99163 2.66903 4.21186 2.65445 4.36615C2.63474 4.57763 2.66665 4.79059 2.63301 5.00073C2.59828 5.22375 2.52338 5.43262 2.51619 5.66048C2.50865 5.90011 2.50678 6.07805 2.35138 6.27003C2.2005 6.45582 2.14515 6.60887 2.12977 6.85239C2.11498 7.08703 2.07507 7.31282 2.06843 7.54933C2.06186 7.77556 1.95297 7.9728 1.93238 8.19668C1.9144 8.39516 1.89973 8.61701 1.97603 8.80338C1.90843 8.74141 1.87143 8.55869 1.8583 8.46795C1.84026 8.34074 1.86708 8.22118 1.88764 8.09637C1.91187 7.94879 1.90888 7.79825 1.93815 7.65159C1.96543 7.51708 1.9999 7.39209 1.99594 7.25309C1.99235 7.13249 1.9579 7.02007 1.96496 6.89817C1.97294 6.77005 2.00588 6.6448 2.0617 6.53024C2.1248 6.39891 2.21528 6.282 2.27121 6.14669C2.32541 6.0168 2.32608 5.876 2.36556 5.74267Z" fill="#0C321E"/>
<path d="M3.11064 2.14762C3.10909 2.55708 2.95429 2.95282 2.84203 3.33815C2.90911 2.93369 2.94751 2.52462 3.11064 2.14762Z" fill="#0C321E"/>
<path d="M9.1367 14.6719C9.29328 14.6922 9.45132 14.6987 9.60916 14.6914C9.68475 14.687 9.92765 14.683 9.97367 14.6351C9.73651 14.7456 9.50739 14.7433 9.25564 14.7139C9.02904 14.6874 8.80344 14.6927 8.57623 14.6773C8.33543 14.6601 8.09788 14.6802 7.85785 14.6748C7.60078 14.6689 7.34796 14.6085 7.09277 14.5822C6.8602 14.5582 6.6396 14.5705 6.41276 14.5032C6.18841 14.4367 5.96812 14.3504 5.74629 14.2748C5.50706 14.1933 5.31756 14.0561 5.10557 13.9186C5.04895 13.8817 4.46214 13.5073 4.46776 13.5012C4.49547 13.4698 4.95148 13.7343 4.99626 13.7601C5.18365 13.8692 5.38495 13.9327 5.57533 14.0329C5.7657 14.1332 5.94501 14.272 6.1624 14.3093C6.34635 14.3416 6.53428 14.3077 6.71569 14.3607C6.91206 14.4182 7.10063 14.4773 7.30479 14.4991C7.50559 14.521 7.70717 14.5279 7.90672 14.5571C8.10278 14.5859 8.29333 14.61 8.49188 14.6094C8.71255 14.6096 8.91814 14.6466 9.1367 14.6719Z" fill="#0C321E"/>
<path d="M8.19435 14.2818C8.03666 14.2942 7.83838 14.2519 7.68767 14.2079C7.52034 14.1601 7.35913 14.1649 7.19037 14.1323C7.10157 14.1154 7.02218 14.0702 6.93584 14.0449C6.84014 14.0169 6.74006 14.0127 6.64411 13.9839C6.45815 13.928 6.27468 13.854 6.08984 13.7922C6.30211 13.8429 6.53066 13.8672 6.73767 13.931C6.84583 13.9663 6.95774 13.9878 7.07099 13.9949C7.2 14.0027 7.31312 14.0626 7.43986 14.0804C7.55633 14.0967 7.66365 14.0928 7.77643 14.1341C7.90266 14.1806 7.98539 14.1918 8.11733 14.1933C8.22342 14.1945 8.32551 14.2034 8.43234 14.1996C8.48779 14.196 8.54339 14.1979 8.59841 14.2053C8.63261 14.2107 8.70883 14.2461 8.73755 14.2407C8.55276 14.2297 8.3755 14.2677 8.19435 14.2818Z" fill="#0C321E"/>
<path d="M4.84553 3.02684C4.69835 2.87815 4.57863 2.722 4.45776 2.54907C4.47961 2.61965 4.65798 2.74687 4.71571 2.80666C4.82709 2.9215 4.93562 3.03981 5.05058 3.15007C5.25616 3.34681 5.49705 3.48619 5.70666 3.67484C5.92177 3.86833 6.15102 4.00185 6.40525 4.12888C6.53153 4.1919 6.63771 4.28323 6.76066 4.3517C6.87552 4.41562 6.98949 4.47878 7.10261 4.54643C7.35603 4.69832 7.64455 4.76893 7.91024 4.89456C8.16532 5.01456 8.42676 5.11919 8.69332 5.20794C8.95236 5.29494 9.19661 5.43815 9.42571 5.59053C9.48623 5.63049 10.0398 6.10553 10.0494 6.09639C10.0301 6.11499 9.7865 5.94488 9.75338 5.92289C9.64613 5.85186 9.54829 5.76966 9.44813 5.68845C9.23602 5.51627 9.02265 5.45974 8.774 5.3689C8.52534 5.27806 8.29627 5.16326 8.04384 5.08507C7.77365 5.00152 7.54815 4.8823 7.30329 4.7387C7.08582 4.61123 6.85133 4.50204 6.62776 4.38635C6.4008 4.2692 6.21579 4.12794 6.00578 3.9802C5.80116 3.83662 5.57284 3.72609 5.39253 3.548C5.21222 3.3699 5.02313 3.2069 4.84553 3.02684Z" fill="#0C321E"/>
<path d="M5.06299 3.55396C5.18584 3.64634 5.32408 3.74559 5.43135 3.85621C5.50129 3.92831 5.5484 3.94912 5.63499 3.99229C5.70517 4.02751 5.74425 4.09061 5.80275 4.1412C5.87084 4.19932 5.95888 4.21768 6.03001 4.27C6.09392 4.31699 6.15222 4.36621 6.21671 4.41207C6.24081 4.42926 6.52485 4.72207 6.53393 4.71289C6.49566 4.75213 6.13974 4.48614 6.10596 4.45482C6.05425 4.407 6.01956 4.38858 5.95806 4.35274C5.87876 4.30648 5.82695 4.22377 5.74563 4.17868C5.67935 4.14278 5.60782 4.13878 5.5498 4.08437C5.5202 4.0566 5.50767 4.01578 5.4794 3.98729C5.43999 3.94708 5.38681 3.93199 5.34123 3.90238C5.23118 3.83061 5.09828 3.66779 5.06299 3.55396Z" fill="#0C321E"/>
<path d="M2.30225 10.9827C2.38377 11.1336 2.44326 11.2882 2.51583 11.4411C2.54188 11.4958 2.608 11.5204 2.62903 11.5722C2.6523 11.6296 2.61171 11.6719 2.6417 11.7292C2.6652 11.7744 2.72831 11.7892 2.75055 11.836C2.76416 11.8641 2.75125 11.8924 2.76273 11.9191C2.77927 11.9579 2.80482 11.9655 2.8304 11.9936C2.87431 12.0411 2.89815 12.0975 2.93925 12.1461C2.97557 12.1854 3.00842 12.2282 3.03741 12.2738C3.03008 12.2604 2.92253 12.2234 2.90405 12.2077C2.8492 12.1611 2.76892 12.1056 2.722 12.0522C2.67508 11.9987 2.65725 11.9487 2.5992 11.9003C2.53143 11.8441 2.54135 11.8097 2.51102 11.7337C2.48367 11.664 2.40966 11.6515 2.37934 11.5905C2.35 11.5331 2.37665 11.4555 2.35279 11.3861C2.30807 11.2574 2.29082 11.1197 2.30225 10.9827Z" fill="#0C321E"/>
<path d="M12.4292 9.47799C12.4223 9.55997 12.3677 9.62681 12.3273 9.69317C12.3273 9.69317 12.3034 9.55553 12.3016 9.53735C12.2961 9.47067 12.295 9.40364 12.298 9.33671C12.3021 9.16857 12.2285 9.11655 12.1649 8.97691C12.1328 8.90681 12.1496 8.85161 12.1496 8.77866C12.1492 8.69337 12.1245 8.64445 12.0843 8.57216C12.0526 8.5149 12.015 8.46153 12.0046 8.3941C11.9925 8.31575 12.0234 8.24404 12.0266 8.16799C12.0336 8.00008 11.9131 7.94041 11.8683 7.80084C11.8235 7.66127 11.8754 7.53961 11.7969 7.40444C11.7184 7.26928 11.6226 7.16215 11.5525 7.02349C11.4704 6.86106 11.3701 6.71278 11.2671 6.56494C11.4465 6.80699 11.6947 7.0245 11.8224 7.30246C11.8805 7.42965 11.9564 7.54682 12.0475 7.65012C12.1409 7.75907 12.1764 7.82709 12.1643 7.9703C12.1523 8.11352 12.2125 8.21766 12.2663 8.34147C12.293 8.40303 12.3138 8.4597 12.3144 8.5285C12.315 8.60083 12.2909 8.66502 12.3113 8.73682C12.3483 8.8658 12.4671 8.93864 12.434 9.08649C12.4167 9.16338 12.3934 9.20102 12.4044 9.28332C12.4124 9.34768 12.4342 9.41085 12.4292 9.47799Z" fill="#0C321E"/>
<path d="M3.49399 1.59337C3.60688 1.6989 3.71031 1.81515 3.80299 1.94068C3.84253 1.99455 3.85803 2.06847 3.89643 2.12461C3.90068 2.13103 4.02193 2.27282 4.00659 2.27861C3.94035 2.30673 3.66864 1.98885 3.63615 1.93658C3.53872 1.78113 3.44915 1.62717 3.33838 1.47852C3.3901 1.51673 3.44578 1.54956 3.49399 1.59337Z" fill="#0C321E"/>
</svg>
