<svg width="16" height="14" viewBox="0 0 16 14" fill="none" xmlns="http://www.w3.org/2000/svg">
<path d="M10.1808 8.24649C10.0429 7.7731 10.027 7.34768 10.1722 6.89852C10.2738 6.58386 10.6985 6.16647 10.9778 6.00641C11.5322 5.68876 12.2491 5.72118 12.8185 5.48636C13.4039 5.24493 13.619 5.08169 13.9539 4.72338C14.0239 4.64849 14.3204 4.40924 14.3221 4.51302C14.3442 5.89409 14.9173 7.28744 14.0381 8.50024C13.947 8.62596 13.9186 8.72585 13.7651 8.90343C13.6117 9.08101 13.1685 9.40002 13.0492 9.44022C12.3089 9.68956 11.2926 10.0216 10.4065 9.09183C10.1031 8.77386 10.3185 8.7199 10.1808 8.24649Z" fill="#87CE29"/>
<path d="M14.4765 4.22156C14.3896 4.11952 14.2417 4.19614 14.151 4.25201C13.9908 4.35052 13.8491 4.48332 13.7099 4.61145C13.5654 4.74416 13.4243 4.88224 13.2691 5.00107C13.0342 5.18108 12.7768 5.2987 12.5017 5.39108C12.2198 5.48561 11.9312 5.5535 11.6439 5.62554C11.3947 5.68833 11.1303 5.74071 10.899 5.86221C10.5146 6.06422 10.2023 6.43047 10.0117 6.83208C9.91182 7.0425 9.84062 7.27474 9.83527 7.51042C9.8278 7.81412 9.97083 8.06563 10.0749 8.33794C10.0335 8.15799 9.96264 7.98054 9.94431 7.79523C9.92668 7.61405 9.97373 7.43047 10.0176 7.2564C10.1079 6.89615 10.2497 6.53505 10.503 6.26589C10.6381 6.12265 10.801 6.01212 10.9804 5.94211C11.2116 5.85153 11.4586 5.82361 11.6989 5.77351C11.9392 5.72341 12.1696 5.63735 12.3989 5.55058C12.616 5.46833 12.8307 5.37798 13.0398 5.27435C13.4985 5.04758 13.9273 4.75396 14.2872 4.37496C14.2618 4.6268 14.3276 4.89313 14.3764 5.13681C14.4396 5.45244 14.5177 5.76688 14.5576 6.08735C14.5879 6.33167 14.5887 6.57495 14.5855 6.82101C14.5835 6.97896 14.5986 7.1367 14.5923 7.2947C14.5868 7.44124 14.5421 7.55664 14.4908 7.69044C14.3967 7.93494 14.324 8.18793 14.2335 8.43385C14.1813 8.57551 14.1295 8.70904 14.034 8.82598C13.9385 8.94292 13.8227 9.03594 13.7029 9.12092C13.4338 9.31197 13.1475 9.48801 12.8396 9.59713C12.5154 9.71202 12.172 9.75745 11.8323 9.75601C11.4926 9.75456 11.1377 9.71805 10.8218 9.58466C10.5489 9.46944 10.314 9.2816 10.0789 9.10031C10.2741 9.33953 10.4401 9.59937 10.7306 9.71554C10.9839 9.81649 11.261 9.85225 11.5311 9.8668C11.8501 9.88387 12.1703 9.8667 12.4866 9.81556C12.7833 9.76794 13.0821 9.6926 13.3553 9.55688C13.4674 9.50131 13.5762 9.43479 13.6711 9.35021C13.7772 9.25578 13.8493 9.12913 13.9539 9.03295C14.0291 8.96357 14.1237 8.91859 14.191 8.83933C14.2913 8.72159 14.3459 8.56183 14.4025 8.41752C14.5086 8.1468 14.606 7.87227 14.7013 7.59731C14.7169 7.55234 14.7229 7.50641 14.7305 7.45921C14.7539 7.3131 14.7729 7.16597 14.7847 7.01835C14.7985 6.85148 14.8071 6.67987 14.7817 6.51413C14.7472 6.28965 14.6913 6.06857 14.6418 5.84752C14.5906 5.61814 14.5431 5.38837 14.5173 5.15369C14.5033 5.02702 14.4941 4.89997 14.4877 4.77224C14.4822 4.66261 14.4708 4.55375 14.4979 4.44568C14.5192 4.36355 14.5355 4.29069 14.4765 4.22156Z" fill="#DCEEC0"/>
<path d="M10.6488 8.87605C10.7468 8.86891 10.8458 8.86317 10.9434 8.86349C11.0392 8.86377 11.1324 8.89509 11.2287 8.89988C11.3307 8.90507 11.4207 8.93657 11.5175 8.9666C11.6099 8.99444 11.7065 9.00376 11.8025 8.99409C11.9076 8.98485 12.0037 8.97793 12.1085 8.99922C12.2091 9.01975 12.3097 9.04656 12.413 9.04458C12.522 9.04253 12.6349 9.00856 12.7419 8.98613C12.8452 8.96453 12.9501 8.94582 13.0502 8.90909C13.1606 8.86873 13.2762 8.82679 13.3803 8.77058C13.4331 8.74148 13.4836 8.70796 13.5314 8.67035C13.5457 8.6592 13.6564 8.55695 13.6575 8.55732C13.6446 8.55243 13.5613 8.62956 13.5469 8.64029C13.5003 8.67381 13.4525 8.7054 13.4032 8.73433C13.3074 8.79193 13.2045 8.83486 13.0974 8.8618C12.9869 8.88863 12.8791 8.9204 12.7696 8.95132C12.6656 8.98009 12.5773 8.9811 12.4726 8.96428C12.2582 8.92969 12.042 8.92284 11.8285 8.88082C11.6205 8.8399 11.4081 8.88573 11.2008 8.84668C11.1461 8.83653 11.0951 8.81972 11.0395 8.81926C10.9817 8.81781 10.9261 8.83157 10.8691 8.83682C10.7403 8.84738 10.6103 8.8542 10.4813 8.86601C10.7002 8.76711 10.9274 8.69045 11.1551 8.6185C11.2671 8.58301 11.38 8.54882 11.4926 8.51413C11.5456 8.49772 11.5985 8.48131 11.6514 8.46492C11.7099 8.44629 11.7786 8.45688 11.8395 8.45836C11.9514 8.46097 12.0575 8.46535 12.1672 8.48883C12.2768 8.51232 12.3774 8.49903 12.4864 8.47973C12.6035 8.45997 12.7224 8.45747 12.8389 8.43477C12.9528 8.41263 13.0523 8.34509 13.1622 8.30704C13.2213 8.28665 13.2829 8.26863 13.3354 8.23232C13.3879 8.19601 13.4346 8.15385 13.4897 8.12035C13.5929 8.05733 13.6808 7.98459 13.7377 7.87148C13.7398 7.85645 13.7103 7.88819 13.7119 7.88704C13.6951 7.90028 13.6815 7.92074 13.6657 7.93606C13.6334 7.96741 13.5995 7.99681 13.5641 8.02411C13.4949 8.07825 13.4261 8.1312 13.3444 8.16202C13.2604 8.19358 13.1879 8.2403 13.1071 8.27871C13.0279 8.31639 12.9415 8.31786 12.8588 8.34147C12.7732 8.36611 12.6908 8.40121 12.6038 8.41892C12.5193 8.43599 12.4385 8.42868 12.3536 8.42442C12.2725 8.4203 12.1921 8.43444 12.1112 8.43174C12.0248 8.42829 11.9403 8.40661 11.8545 8.39824C12.0615 8.32668 12.2631 8.24346 12.4474 8.11891C12.4917 8.08903 12.5349 8.05743 12.5771 8.0241C12.5992 8.0067 12.6237 7.9777 12.6485 7.96544C12.6695 7.95495 12.6984 7.95142 12.7207 7.94473C12.766 7.93115 12.8123 7.91549 12.8593 7.91551C12.8979 7.9156 12.9354 7.92686 12.9746 7.92539C13.064 7.9224 13.13 7.85501 13.2066 7.81609C13.2563 7.79091 13.3113 7.77949 13.3637 7.76247C13.4193 7.74456 13.4675 7.71582 13.5192 7.68837C13.5654 7.66377 13.6144 7.65079 13.6622 7.63062C13.7047 7.61224 13.7358 7.58292 13.7741 7.5573C13.8163 7.52899 13.8637 7.51438 13.9093 7.49234C13.921 7.48668 14.0315 7.40058 14.0132 7.39392C14.0045 7.39092 13.9582 7.42002 13.9486 7.42466C13.9214 7.43804 13.8949 7.45296 13.8691 7.46934C13.8168 7.50342 13.7606 7.53048 13.702 7.54986C13.6423 7.56913 13.5932 7.60184 13.5371 7.62935C13.4852 7.65481 13.429 7.66295 13.3755 7.6833C13.322 7.70365 13.2726 7.73584 13.2198 7.7592C13.1626 7.78443 13.1055 7.79083 13.044 7.79483C13.002 7.79617 12.9607 7.80739 12.9232 7.82766C12.8692 7.85536 12.8211 7.85855 12.7621 7.86191C12.8782 7.74862 12.9854 7.62562 13.0827 7.49414C13.0901 7.48404 13.1005 7.46258 13.1107 7.45581C13.1228 7.44806 13.1596 7.44487 13.1733 7.44088C13.2102 7.43028 13.2461 7.41592 13.283 7.40521C13.3532 7.38462 13.4173 7.36931 13.4825 7.33221C13.5477 7.29511 13.6132 7.26231 13.68 7.22864C13.7484 7.19467 13.8043 7.13886 13.8695 7.09828C13.9316 7.05968 13.9758 7.00966 14.0292 6.95998C14.0542 6.93813 14.0775 6.91416 14.0988 6.8883C14.1052 6.87993 14.1471 6.81037 14.1484 6.8106C14.1328 6.80864 14.062 6.89665 14.0488 6.91051C14.0222 6.94117 13.993 6.96917 13.9615 6.99416C13.8781 7.05528 13.805 7.11881 13.7125 7.16366C13.62 7.20851 13.5391 7.26362 13.4422 7.29891C13.3962 7.31622 13.3516 7.33777 13.3091 7.36329C13.2573 7.39321 13.2046 7.39527 13.1475 7.40412C13.2307 7.28413 13.3078 7.15957 13.3785 7.03099C13.4157 6.96353 13.4515 6.89519 13.4856 6.82595C13.5005 6.79576 13.512 6.75977 13.5307 6.73219C13.5473 6.70778 13.5721 6.69889 13.5944 6.68032C13.6168 6.66176 13.6292 6.63638 13.6506 6.61932C13.6783 6.59728 13.7139 6.59809 13.7421 6.57665C13.7658 6.55875 13.7817 6.5311 13.8054 6.51274C13.8342 6.49042 13.8692 6.47824 13.8978 6.45525C13.9197 6.43767 13.936 6.41454 13.9554 6.39433C13.9784 6.37075 14.0077 6.35471 14.0258 6.32645C14.0381 6.307 14.1117 6.15188 14.1154 6.15226C14.0882 6.14947 14.0142 6.28137 13.9924 6.30341C13.9726 6.32323 13.9596 6.34502 13.9417 6.36585C13.9201 6.39112 13.8912 6.40294 13.8643 6.42014C13.8088 6.45561 13.766 6.49577 13.7059 6.52395C13.6721 6.53974 13.6631 6.55067 13.6434 6.57999C13.6264 6.60525 13.6013 6.61879 13.5759 6.63383C13.6148 6.54639 13.6516 6.45803 13.6864 6.36875C13.7035 6.32471 13.7201 6.28051 13.7361 6.23613C13.7499 6.19806 13.7739 6.16321 13.7844 6.12716C13.7888 6.1122 13.7857 6.10331 13.7951 6.08918C13.8045 6.07505 13.8215 6.0715 13.8308 6.05783C13.8528 6.02533 13.8549 6.0158 13.8904 5.99109C13.9515 5.94874 13.9857 5.87743 14.0247 5.81317C14.0201 5.83634 13.9417 5.89573 13.9225 5.9179C13.8902 5.95367 13.8535 5.98464 13.8133 6.00994C13.8449 5.91141 13.8676 5.82446 13.9338 5.74416C13.9585 5.71675 13.9812 5.68749 14.0018 5.65662C14.0067 5.64864 14.0585 5.55465 14.0519 5.55442C14.0412 5.55432 13.9854 5.64406 13.9744 5.65521C13.9421 5.69186 13.9121 5.7306 13.8845 5.7712C13.9298 5.60852 13.9691 5.44396 14.0006 5.27789C13.9708 5.38202 13.9397 5.48581 13.9073 5.58925C13.9029 5.55851 13.8931 5.52893 13.8879 5.49831C13.8828 5.4677 13.8902 5.43924 13.8877 5.40874C13.8566 5.48221 13.8853 5.57348 13.8833 5.64818C13.8824 5.6899 13.8587 5.7406 13.845 5.78157C13.8283 5.83166 13.8111 5.88157 13.7934 5.9313C13.794 5.91372 13.8061 5.90149 13.8082 5.88535C13.8112 5.86333 13.8005 5.85304 13.7953 5.83365C13.7847 5.79388 13.8014 5.76362 13.7815 5.72541C13.7521 5.66832 13.7598 5.58929 13.7566 5.52419C13.7509 5.53368 13.7463 5.54386 13.7429 5.5545C13.7381 5.57593 13.7427 5.59352 13.7417 5.61453C13.7395 5.656 13.7459 5.69559 13.7396 5.7354C13.7349 5.76611 13.7428 5.7753 13.7494 5.80409C13.755 5.82678 13.7511 5.84021 13.7496 5.86365C13.7468 5.90736 13.776 5.93905 13.7704 5.98503C13.7638 6.03913 13.7315 6.09499 13.7121 6.14564C13.6941 6.19282 13.6763 6.24063 13.657 6.28757C13.6104 6.40089 13.5605 6.51265 13.5075 6.62287C13.5108 6.56239 13.5424 6.51414 13.5421 6.45225C13.5419 6.37568 13.5778 6.32302 13.5878 6.25008C13.6061 6.11515 13.583 5.96975 13.546 5.84045C13.5454 5.84028 13.5448 5.84024 13.5441 5.84035C13.5435 5.84046 13.5429 5.8407 13.5424 5.84106C13.5441 5.91661 13.559 5.98925 13.5558 6.06461C13.5544 6.09846 13.5616 6.13388 13.5583 6.16759C13.555 6.2013 13.5366 6.23263 13.5286 6.26602C13.5206 6.29941 13.5202 6.33465 13.5129 6.36813C13.5048 6.40591 13.4871 6.43969 13.4765 6.47689C13.4652 6.51632 13.4773 6.54139 13.4795 6.58C13.4816 6.61593 13.4679 6.64815 13.4601 6.68251C13.427 6.83372 13.3185 6.9823 13.2354 7.11116C13.1464 7.24995 13.0474 7.38131 12.9392 7.50404C12.9701 7.4482 12.9841 7.38949 12.9977 7.32738C13.0127 7.25763 13.0512 7.20296 13.0828 7.14106C13.1478 7.01381 13.1621 6.86108 13.1995 6.72337C13.2184 6.65298 13.2238 6.5816 13.2405 6.51135C13.256 6.44623 13.2775 6.38346 13.2838 6.3162C13.2898 6.25078 13.3015 6.18518 13.3056 6.11964C13.3066 6.10243 13.2931 5.92773 13.2759 5.9321C13.2735 5.93251 13.275 6.21575 13.2697 6.24599C13.2594 6.30464 13.2383 6.36073 13.2279 6.41962C13.2185 6.47229 13.211 6.52508 13.195 6.57605C13.162 6.68042 13.1287 6.77655 13.1184 6.88695C13.108 6.99915 13.0389 7.0759 13.0064 7.18018C12.9728 7.28857 12.9646 7.38886 12.9059 7.48703C12.8775 7.5345 12.8565 7.58879 12.8198 7.6296C12.7816 7.66974 12.7409 7.70715 12.6979 7.74158C12.5186 7.8969 12.3259 8.03418 12.1225 8.1516C12.1866 8.07424 12.2604 8.00621 12.3229 7.92735C12.3853 7.84848 12.4248 7.75107 12.4802 7.66555C12.5314 7.586 12.5916 7.51311 12.617 7.41843C12.6435 7.31998 12.6494 7.2176 12.6786 7.11914C12.7052 7.02952 12.7428 6.94028 12.7369 6.8446C12.7306 6.74341 12.7338 6.64856 12.7371 6.54718C12.7403 6.44393 12.7145 6.34478 12.7374 6.24224C12.7607 6.1375 12.7994 6.03653 12.8319 5.93504C12.8321 5.95203 12.7903 6.01611 12.7812 6.03658C12.7568 6.08672 12.7374 6.13932 12.7232 6.19355C12.6996 6.295 12.6927 6.41154 12.6859 6.51527C12.6792 6.61722 12.6919 6.71141 12.6633 6.811C12.636 6.90938 12.6187 7.01041 12.6116 7.11241C12.6023 7.22174 12.5667 7.31176 12.5198 7.40896C12.4746 7.50251 12.4583 7.60753 12.4103 7.69864C12.3623 7.78974 12.2887 7.86905 12.2316 7.95609C12.1776 8.03955 12.1141 8.11571 12.0424 8.18282C11.9562 8.26346 11.8197 8.30377 11.7117 8.34294C11.5895 8.38744 11.4648 8.42351 11.3395 8.45653C11.4112 8.39962 11.4771 8.33248 11.545 8.26994C11.611 8.20963 11.6711 8.14538 11.7183 8.06705C11.763 7.99298 11.7981 7.91301 11.8417 7.8381C11.8897 7.75552 11.948 7.67992 11.9769 7.58676C12.0036 7.50117 12.0051 7.41075 12.009 7.32171C12.0125 7.22837 12.0328 7.13623 12.0347 7.04327C12.0367 6.9503 12.0135 6.85934 12.0335 6.76747C12.0535 6.6756 12.0959 6.58892 12.1236 6.49989C12.1549 6.39939 12.1851 6.31589 12.2413 6.2271C12.2975 6.1383 12.3445 6.04511 12.3974 5.95431C12.3937 5.9742 12.3409 6.02232 12.3248 6.04262C12.288 6.08835 12.2539 6.13652 12.223 6.18684C12.1688 6.27865 12.1192 6.37439 12.0666 6.46718C12.0099 6.56635 11.9891 6.66284 11.9678 6.7751C11.9472 6.88263 11.9144 6.98742 11.9234 7.09825C11.9325 7.21107 11.9545 7.31164 11.9245 7.42446C11.8958 7.53235 11.8401 7.63015 11.8116 7.73868C11.7841 7.84414 11.7376 7.92659 11.6708 8.01113C11.604 8.09567 11.5415 8.18351 11.4711 8.26338C11.4281 8.30979 11.3808 8.35156 11.3299 8.38804C11.2869 8.4206 11.2425 8.47716 11.1938 8.49301C11.0683 8.5337 10.9353 8.55548 10.8077 8.58889C10.8755 8.52312 10.9144 8.43647 10.9647 8.35718C11.0133 8.2803 11.0747 8.21471 11.1178 8.13363C11.1608 8.05254 11.1961 7.96471 11.2381 7.88189C11.2802 7.79906 11.3302 7.72699 11.341 7.63309C11.3522 7.53711 11.3171 7.4476 11.3185 7.3525C11.3198 7.2574 11.3474 7.16369 11.369 7.0711C11.3906 6.97851 11.3926 6.88163 11.4189 6.7906C11.4452 6.69958 11.4947 6.61549 11.5241 6.52429C11.5853 6.33473 11.7306 6.20937 11.8174 6.0359C11.8163 6.05332 11.7643 6.10489 11.7498 6.12223C11.7124 6.16709 11.6733 6.20999 11.6396 6.25824C11.5764 6.34866 11.5131 6.44616 11.4575 6.54202C11.4057 6.6313 11.3934 6.73396 11.3614 6.83122C11.3277 6.9338 11.2785 7.02298 11.2647 7.13239C11.2512 7.23975 11.2586 7.34962 11.2364 7.45586C11.2141 7.56211 11.1916 7.65833 11.191 7.76764C11.1904 7.87145 11.1423 7.94881 11.0835 8.02875C11.0247 8.10782 10.9775 8.19566 10.9435 8.28929C10.9029 8.39786 10.8277 8.50263 10.7526 8.58845C10.7172 8.62893 10.6387 8.63558 10.5876 8.65183C10.5271 8.671 10.4671 8.69211 10.4082 8.71639C10.4566 8.64456 10.5003 8.5694 10.5391 8.49142C10.5824 8.40337 10.5921 8.30001 10.6069 8.20343C10.6337 8.02719 10.6969 7.843 10.6479 7.666C10.6248 7.58265 10.6081 7.51379 10.6228 7.4256C10.6383 7.33338 10.6717 7.24597 10.6878 7.15387C10.7023 7.06842 10.7029 6.98521 10.7487 6.9097C10.7946 6.83418 10.8486 6.76301 10.8821 6.67827C10.9117 6.60326 10.9532 6.54193 11.0029 6.48034C11.0275 6.44986 11.0535 6.42038 11.0774 6.38935C11.0833 6.38163 11.1385 6.31865 11.1345 6.30722C11.1283 6.28957 11.01 6.39423 11.0024 6.40256C10.9451 6.46624 10.9126 6.54968 10.8597 6.61708C10.8069 6.68448 10.7551 6.74239 10.7184 6.82016C10.6786 6.90597 10.6503 6.99665 10.5987 7.07561C10.499 7.22954 10.5396 7.3925 10.5163 7.56591C10.5052 7.64787 10.4783 7.71895 10.4871 7.80294C10.4974 7.9011 10.5663 7.98536 10.561 8.08426C10.5567 8.16575 10.5148 8.23768 10.4897 8.3136C10.4612 8.39951 10.4762 8.48916 10.4394 8.57469C10.4096 8.64379 10.3542 8.70702 10.3003 8.75667C10.2327 8.81894 10.1297 8.85582 10.0503 8.90216C9.89341 8.99198 9.74303 9.0941 9.60047 9.20764C9.3276 9.42878 9.13488 9.70148 8.99769 10.0329C8.93071 10.1946 9.15996 10.223 9.21127 10.1313C9.24529 10.0713 9.28039 10.0124 9.31657 9.95464C9.41402 9.79992 9.5219 9.65274 9.63939 9.51425C9.77007 9.36035 9.90785 9.20849 10.0707 9.09238C10.1557 9.03245 10.2445 8.9789 10.3365 8.93213C10.429 8.88763 10.5479 8.88345 10.6488 8.87605Z" fill="#DCEEC0"/>
<path d="M14.2801 6.38768C14.2711 6.32435 14.2571 6.2651 14.2599 6.20068C14.2626 6.13626 14.2696 6.07246 14.2697 6.00781C14.2696 5.9486 14.2754 5.88949 14.2872 5.83147C14.3009 5.76306 14.2855 5.70517 14.2784 5.6376C14.2907 5.69422 14.2528 5.77634 14.2493 5.83675C14.2445 5.9201 14.2195 6.00106 14.22 6.08453C14.2203 6.17309 14.237 6.25852 14.2264 6.34747C14.2153 6.44097 14.2054 6.51018 14.2546 6.59351C14.3022 6.67441 14.3146 6.73705 14.3063 6.83254C14.2982 6.92476 14.3003 7.01446 14.289 7.10665C14.2783 7.19494 14.309 7.2779 14.3036 7.36607C14.2989 7.44416 14.2916 7.53119 14.2509 7.59899C14.2808 7.57882 14.306 7.51028 14.3165 7.47591C14.3309 7.42755 14.3275 7.3795 14.327 7.32986C14.3262 7.27107 14.3364 7.21279 14.3338 7.15408C14.3313 7.1004 14.3251 7.0498 14.3348 6.99608C14.3434 6.94984 14.3634 6.90769 14.3678 6.86002C14.3723 6.80978 14.3669 6.75921 14.3519 6.71148C14.3352 6.65684 14.3069 6.60617 14.2932 6.55046C14.2796 6.49643 14.2876 6.44175 14.2801 6.38768Z" fill="#DCEEC0"/>
<path d="M14.2027 4.94836C14.1792 5.10747 14.216 5.27006 14.2368 5.42594C14.2346 5.26501 14.2438 5.10384 14.2027 4.94836Z" fill="#DCEEC0"/>
<path d="M11.1239 9.46499C11.0619 9.46378 11.0001 9.45716 10.9392 9.44521C10.9101 9.43892 10.816 9.42357 10.801 9.40234C10.8866 9.45892 10.9757 9.4713 11.0752 9.47433C11.1648 9.47712 11.2521 9.49252 11.3413 9.4993C11.4357 9.50654 11.5269 9.5281 11.6207 9.53983C11.7209 9.55237 11.8226 9.5436 11.9233 9.54798C12.015 9.5521 12.1 9.56967 12.1922 9.55657C12.2845 9.54346 12.374 9.52296 12.4646 9.50633C12.5623 9.48848 12.6441 9.4461 12.7344 9.40476C12.7585 9.39374 13.0085 9.28219 13.0067 9.27947C12.9977 9.26553 12.805 9.34209 12.7862 9.34953C12.7069 9.38106 12.625 9.3941 12.5451 9.42204C12.4653 9.44998 12.3875 9.49347 12.3008 9.49555C12.2275 9.49674 12.1565 9.47343 12.0829 9.48363C12.0032 9.49451 11.9265 9.50646 11.846 9.50325C11.7655 9.50004 11.6879 9.49129 11.6084 9.49105C11.5314 9.49236 11.4544 9.48788 11.3781 9.47763C11.2923 9.46479 11.2102 9.46767 11.1239 9.46499Z" fill="#DCEEC0"/>
<path d="M11.5128 9.36774C11.5733 9.3816 11.6524 9.37643 11.7139 9.36828C11.7818 9.35917 11.8441 9.37049 11.9116 9.36783C11.947 9.36633 11.9805 9.35339 12.0153 9.34853C12.0542 9.34319 12.0933 9.34734 12.1322 9.34177C12.2078 9.3308 12.2835 9.31254 12.3588 9.29926C12.2734 9.30674 12.1834 9.303 12.099 9.31568C12.055 9.32312 12.0102 9.32499 11.9658 9.32126C11.9153 9.3168 11.8678 9.33356 11.8176 9.33319C11.7713 9.33271 11.7299 9.32503 11.6837 9.33463C11.6389 9.34458 11.5927 9.34568 11.5477 9.33787C11.5065 9.33229 11.4663 9.32978 11.425 9.32219C11.4036 9.31758 11.3819 9.31513 11.3601 9.31489C11.3465 9.31495 11.3147 9.32434 11.304 9.32056C11.3767 9.32687 11.4432 9.35159 11.5128 9.36774Z" fill="#DCEEC0"/>
<path d="M13.4769 5.18972C13.5409 5.1408 13.6008 5.08616 13.6559 5.02644C13.6432 5.05266 13.5664 5.09172 13.5403 5.11159C13.4902 5.14974 13.4414 5.18946 13.39 5.22569C13.2985 5.29019 13.1968 5.33045 13.1042 5.39157C13.0092 5.4543 12.9124 5.49295 12.8061 5.52759C12.7534 5.54477 12.7063 5.57412 12.6549 5.59366C12.6065 5.61191 12.5585 5.62977 12.5107 5.6496C12.4032 5.69396 12.287 5.70473 12.1764 5.73819C12.0703 5.77023 11.9626 5.7959 11.8538 5.81506C11.7481 5.83404 11.6448 5.87545 11.5468 5.92145C11.5211 5.93352 11.2779 6.08603 11.2748 6.08197C11.2812 6.0903 11.3857 6.03827 11.3999 6.03161C11.4458 6.01019 11.4889 5.98388 11.5324 5.95816C11.6249 5.90357 11.7111 5.89438 11.813 5.87303C11.9149 5.85168 12.0108 5.82071 12.1134 5.80484C12.2232 5.78797 12.3179 5.75474 12.4214 5.71307C12.5134 5.67614 12.6109 5.64746 12.7046 5.61518C12.7982 5.58291 12.8798 5.53866 12.97 5.49363C13.0581 5.44964 13.1532 5.41991 13.2337 5.36118C13.3142 5.30244 13.3973 5.24932 13.4769 5.18972Z" fill="#DCEEC0"/>
<path d="M13.3615 5.3818C13.3083 5.41049 13.2488 5.44104 13.2005 5.47787C13.1691 5.50187 13.1497 5.50718 13.1135 5.519C13.0842 5.52854 13.0648 5.55096 13.0395 5.56688C13.0097 5.58558 12.9745 5.58761 12.9437 5.60379C12.9162 5.6184 12.8905 5.63416 12.8628 5.64824C12.8529 5.65339 12.7248 5.75085 12.7218 5.74677C12.7344 5.76424 12.8883 5.68146 12.9033 5.67132C12.9232 5.65826 12.9445 5.64781 12.9668 5.6402C13.0003 5.62683 13.0253 5.59739 13.0595 5.5849C13.0875 5.5748 13.1154 5.57737 13.1411 5.55992C13.1543 5.55086 13.1616 5.53574 13.1742 5.52622C13.1919 5.51293 13.2134 5.51008 13.2329 5.5013C13.2798 5.47938 13.3409 5.42425 13.3615 5.3818Z" fill="#DCEEC0"/>
<path d="M13.9958 8.42647C13.9552 8.48036 13.923 8.537 13.8857 8.59213C13.8723 8.61197 13.8453 8.61766 13.834 8.63659C13.8216 8.65751 13.8349 8.6761 13.8199 8.69677C13.8081 8.71299 13.7827 8.71514 13.7717 8.7319C13.7649 8.74202 13.768 8.75381 13.7621 8.76355C13.7534 8.77755 13.743 8.77909 13.7314 8.78856C13.7118 8.80452 13.6989 8.82496 13.6802 8.842C13.6638 8.85518 13.6485 8.86991 13.6346 8.886C13.6381 8.88114 13.6822 8.87303 13.6902 8.86798C13.7142 8.85272 13.7485 8.83573 13.7701 8.81809C13.7916 8.80045 13.8014 8.78156 13.8265 8.76622C13.8559 8.74838 13.8539 8.73438 13.8706 8.70658C13.8854 8.68168 13.9148 8.68053 13.9305 8.65861C13.9462 8.63669 13.9395 8.60623 13.9529 8.58078C13.9778 8.53317 13.9924 8.48048 13.9958 8.42647Z" fill="#DCEEC0"/>
<path d="M10.1511 7.25778C10.1487 7.29 10.1663 7.31907 10.178 7.34721C10.178 7.34721 10.1954 7.29511 10.1972 7.28798C10.2032 7.2624 10.2076 7.23643 10.2104 7.21025C10.2187 7.14467 10.2504 7.12879 10.2833 7.0782C10.3 7.05297 10.2967 7.03035 10.301 7.00206C10.3062 6.96892 10.3187 6.95135 10.3386 6.9256C10.3543 6.90525 10.372 6.88634 10.38 6.86113C10.3894 6.83132 10.3815 6.80208 10.3849 6.77194C10.392 6.70667 10.4423 6.69022 10.468 6.63827C10.4937 6.58633 10.4806 6.53645 10.5191 6.4885C10.5576 6.44056 10.601 6.40444 10.6365 6.35455C10.6788 6.29732 10.7248 6.24331 10.7744 6.19293C10.6905 6.27665 10.5812 6.34674 10.5153 6.44715C10.4851 6.49334 10.4486 6.53458 10.407 6.56949C10.3644 6.60637 10.3467 6.63076 10.343 6.68705C10.3393 6.74334 10.3097 6.78038 10.2815 6.82535C10.2668 6.84613 10.2567 6.87003 10.2518 6.89534C10.2472 6.92332 10.2528 6.9496 10.2406 6.9763C10.2188 7.02479 10.1683 7.04576 10.1724 7.1051C10.1745 7.13599 10.1814 7.15219 10.1729 7.18342C10.1653 7.20811 10.1531 7.23134 10.1511 7.25778Z" fill="#DCEEC0"/>
<path d="M15.6027 5.08829C15.5434 5.11052 15.4861 5.13839 15.4316 5.17154C15.4082 5.18574 15.3911 5.21173 15.3678 5.227C15.3652 5.22878 15.2973 5.26362 15.3023 5.26838C15.3235 5.28986 15.4757 5.21182 15.4962 5.19702C15.5572 5.15315 15.6147 5.10865 15.6798 5.06946C15.6538 5.07435 15.628 5.08064 15.6027 5.08829Z" fill="#DCEEC0"/>
<path d="M8.33147 8.3177C8.69869 7.52437 8.83967 6.78338 8.70498 5.95873C8.61059 5.38127 7.97755 4.53954 7.53102 4.18657C6.64452 3.48574 5.38016 3.35618 4.44524 2.79662C3.48418 2.2215 3.15085 1.87899 2.65934 1.16532C2.55649 1.01602 2.1009 0.519755 2.07032 0.701085C1.66426 3.11428 0.2901 5.40583 1.50749 7.75903C1.63372 8.00289 1.65681 8.18534 1.87846 8.53627C2.1001 8.88721 2.79145 9.56131 2.98976 9.66273C4.22007 10.2921 5.91184 11.1381 7.71115 9.74026C8.32717 9.26158 7.96425 9.11103 8.33147 8.3177Z" fill="#87CE29"/>
<path d="M1.87752 0.149888C2.05727 -0.00611807 2.2958 0.166555 2.44051 0.288437C2.69488 0.502644 2.9076 0.772072 3.11753 1.03259C3.33519 1.30278 3.54582 1.58129 3.78595 1.82994C4.14931 2.20627 4.56903 2.47928 5.02639 2.71268C5.49509 2.95136 5.98252 3.14567 6.46622 3.34729C6.88597 3.5222 7.33524 3.68282 7.70797 3.95575C8.32753 4.40955 8.77718 5.13223 9.00432 5.88531C9.1233 6.28 9.18553 6.70496 9.133 7.11957C9.06524 7.65304 8.7478 8.05661 8.4931 8.50673C8.61358 8.20215 8.78479 7.91005 8.86572 7.58972C8.9448 7.27698 8.91111 6.94314 8.88089 6.62624C8.81853 5.97177 8.66611 5.30234 8.29397 4.76492C8.09546 4.47891 7.83944 4.24287 7.54399 4.07347C7.16249 3.85466 6.73789 3.74146 6.33029 3.59114C5.92464 3.44156 5.54207 3.23017 5.16342 3.0184C4.80492 2.81794 4.45301 2.60396 4.11434 2.36848C3.37109 1.85189 2.69802 1.22598 2.16842 0.468557C2.14599 0.916172 1.95969 1.36524 1.80974 1.77974C1.6151 2.31613 1.39452 2.84659 1.23953 3.39756C1.12143 3.81768 1.05527 4.24368 0.995526 4.67526C0.957096 4.95251 0.888958 5.22504 0.857548 5.50335C0.828563 5.76077 0.875839 5.97525 0.93033 6.22281C1.02986 6.67576 1.08998 7.1377 1.18318 7.592C1.23693 7.85368 1.29219 8.10131 1.42801 8.33027C1.56382 8.55924 1.74237 8.753 1.92963 8.93297C2.35018 9.33732 2.80482 9.72063 3.31511 9.99188C3.85175 10.2772 4.44173 10.4463 5.03742 10.5315C5.6331 10.6168 6.26419 10.6457 6.8529 10.4944C7.36157 10.3636 7.8228 10.0954 8.28302 9.83932C7.87736 10.2075 7.51753 10.6198 6.97729 10.747C6.50684 10.8579 6.01109 10.8483 5.53495 10.8038C4.97168 10.7504 4.41551 10.6368 3.87495 10.4649C3.36825 10.3043 2.86484 10.094 2.42231 9.78586C2.24077 9.65935 2.068 9.51448 1.92413 9.34169C1.76342 9.14849 1.6708 8.90791 1.51318 8.71228C1.39954 8.57097 1.24615 8.4677 1.14932 8.31152C1.00485 8.07842 0.951872 7.78516 0.891175 7.51762C0.777315 7.01576 0.6797 6.50964 0.585322 6.00332C0.570114 5.92 0.571784 5.83809 0.570972 5.75398C0.568817 5.49172 0.574902 5.22921 0.5927 4.96745C0.613035 4.67157 0.643072 4.36865 0.732131 4.0851C0.852226 3.70068 1.00887 3.32811 1.15423 2.95366C1.3051 2.56526 1.44933 2.17513 1.55699 1.7709C1.61519 1.5531 1.66522 1.33203 1.7103 1.11043C1.74856 0.919661 1.79768 0.73192 1.77901 0.536601C1.7651 0.387629 1.75597 0.255819 1.87752 0.149888Z" fill="#DCEEC0"/>
<path d="M7.34452 9.29831C7.17495 9.2606 7.00304 9.22434 6.83194 9.19952C6.66479 9.17538 6.49258 9.20613 6.32238 9.18912C6.14246 9.17152 5.97681 9.20342 5.79889 9.23077C5.62714 9.25723 5.46077 9.24499 5.29242 9.20469C5.11003 9.16098 4.94373 9.12402 4.75514 9.13418C4.57337 9.14385 4.3901 9.16465 4.20926 9.1342C4.01878 9.10212 3.82998 9.01322 3.64864 8.94639C3.4726 8.8813 3.29467 8.82156 3.12877 8.73107C2.94617 8.63167 2.75461 8.52799 2.58732 8.40246C2.50275 8.33775 2.42335 8.26588 2.3499 8.18756C2.32784 8.16449 2.16105 7.95648 2.15901 7.9569C2.1829 7.95164 2.30826 8.1094 2.33055 8.13096C2.40335 8.20179 2.47863 8.26966 2.55727 8.33312C2.70981 8.45886 2.8788 8.56081 3.05912 8.63589C3.24549 8.71158 3.42582 8.79567 3.60941 8.87792C3.78366 8.95634 3.93828 8.98025 4.12631 8.97802C4.51096 8.97322 4.89137 9.01753 5.27657 8.99953C5.65163 8.98197 6.01159 9.1175 6.38506 9.10297C6.48289 9.09948 6.57717 9.08397 6.67495 9.09688C6.77636 9.11022 6.87056 9.1485 6.96864 9.17105C7.19156 9.22297 7.41741 9.26893 7.64014 9.32306C7.28303 9.09294 6.90562 8.89944 6.52596 8.7142C6.33858 8.62283 6.15035 8.53363 5.96237 8.44409C5.87396 8.40172 5.78571 8.35914 5.69762 8.31633C5.59989 8.26849 5.47687 8.26916 5.36946 8.25579C5.17278 8.23139 4.98581 8.21179 4.78749 8.22406C4.58917 8.23633 4.41647 8.18699 4.23056 8.12564C4.03105 8.05963 3.823 8.02514 3.62495 7.95503C3.43077 7.8863 3.27514 7.7424 3.09275 7.64712C2.99485 7.5961 2.89168 7.54816 2.80931 7.4709C2.72694 7.39365 2.65642 7.30755 2.56956 7.23484C2.40549 7.0975 2.27105 6.94729 2.20143 6.73432C2.20157 6.7075 2.24479 6.77079 2.24299 6.76841C2.26867 6.79589 2.28735 6.83532 2.31031 6.86609C2.35849 6.92939 2.41009 6.98969 2.46486 7.0467C2.57168 7.15953 2.67811 7.27022 2.81297 7.34556C2.95189 7.42265 3.06628 7.52335 3.19755 7.61233C3.32633 7.699 3.477 7.72375 3.61609 7.78691C3.75945 7.8523 3.89465 7.9354 4.04288 7.98901C4.18626 8.04092 4.32974 8.04936 4.47949 8.06383C4.62273 8.07764 4.75973 8.12351 4.9024 8.13891C5.05443 8.15533 5.20819 8.13931 5.36083 8.14711C5.01743 7.96796 4.68642 7.76958 4.39655 7.50339C4.32698 7.4394 4.25971 7.37279 4.19474 7.30356C4.16069 7.26729 4.12485 7.21001 4.08521 7.18206C4.05121 7.15834 4.00172 7.14457 3.96421 7.12699C3.88854 7.09156 3.81231 7.05221 3.72926 7.03983C3.66156 7.0298 3.59227 7.04003 3.52481 7.02721C3.36891 6.99874 3.27121 6.86335 3.14731 6.77533C3.06692 6.71817 2.97382 6.68396 2.88659 6.64064C2.79393 6.59464 2.71713 6.53168 2.63433 6.47021C2.55986 6.41519 2.47743 6.37966 2.39928 6.33147C2.32957 6.28857 2.28306 6.22875 2.2229 6.17399C2.15634 6.11342 2.07635 6.07528 2.00326 6.02506C1.98427 6.01174 1.81351 5.83246 1.84729 5.82569C1.86355 5.82261 1.93679 5.8855 1.95245 5.89619C1.9966 5.92677 2.03913 5.95985 2.07986 5.99529C2.16247 6.06857 2.25358 6.13054 2.35105 6.17973C2.45054 6.22912 2.52798 6.29893 2.6189 6.36179C2.70286 6.42007 2.79941 6.44894 2.88767 6.49844C2.97593 6.54794 3.05385 6.61732 3.13967 6.67201C3.23323 6.73122 3.33168 6.75732 3.43785 6.78008C3.51105 6.7934 3.58037 6.82377 3.64076 6.869C3.72781 6.93164 3.8117 6.94984 3.91368 6.97096C3.74045 6.74233 3.58538 6.49898 3.45 6.24334C3.43965 6.22383 3.42732 6.18283 3.4111 6.16974C3.39194 6.15313 3.32836 6.13782 3.30535 6.12744C3.24344 6.09879 3.18432 6.06475 3.12262 6.03624C3.00498 5.98203 2.89689 5.93848 2.79274 5.85611C2.68858 5.77374 2.5824 5.69964 2.4744 5.62328C2.36368 5.54505 2.28029 5.4336 2.17684 5.34554C2.07845 5.2619 2.01449 5.16263 1.9341 5.06175C1.89611 5.01698 1.86173 4.96892 1.83133 4.91808C1.82159 4.90179 1.76732 4.76911 1.76509 4.76916C1.79293 4.76974 1.8936 4.94242 1.91282 4.97006C1.95435 5.0297 1.99175 5.08829 2.04376 5.13943C2.1734 5.26754 2.28447 5.39843 2.43463 5.5005C2.58479 5.60256 2.7118 5.72084 2.87214 5.80759C2.9482 5.84985 3.02055 5.89908 3.08837 5.95471C3.17172 6.02032 3.26288 6.03795 3.36043 6.0682C3.24677 5.83748 3.14502 5.60038 3.05559 5.35793C3.00813 5.23016 2.9637 5.10117 2.9223 4.97094C2.90485 4.91427 2.89364 4.84804 2.86822 4.79503C2.84565 4.74777 2.80461 4.7258 2.77041 4.68741C2.73792 4.65103 2.72134 4.60123 2.68841 4.56611C2.64573 4.52021 2.58307 4.51236 2.5394 4.46754C2.50263 4.42929 2.48222 4.37741 2.44546 4.33903C2.40063 4.29225 2.34296 4.26208 2.29889 4.21418C2.26529 4.17783 2.24295 4.13305 2.21424 4.09266C2.18035 4.04527 2.13314 4.00965 2.10908 3.95489C2.09267 3.91764 2.00494 3.62673 1.99852 3.62642C2.04676 3.62872 2.14118 3.87964 2.1735 3.92327C2.20347 3.96318 2.21998 4.00465 2.24584 4.04586C2.277 4.09536 2.32436 4.12396 2.36719 4.16156C2.45496 4.23798 2.5193 4.31958 2.61693 4.38452C2.67207 4.42104 2.68481 4.4425 2.71161 4.49891C2.73461 4.54773 2.77506 4.57797 2.8155 4.61091C2.77051 4.44764 2.72954 4.28315 2.69261 4.11743C2.67435 4.03596 2.65705 3.95421 2.6407 3.8722C2.62673 3.80187 2.59394 3.73476 2.58487 3.66824C2.58117 3.64086 2.5884 3.62623 2.57625 3.59907C2.56409 3.57191 2.535 3.56114 2.52201 3.53473C2.49205 3.4722 2.49106 3.45488 2.43527 3.40237C2.33954 3.31227 2.2986 3.17837 2.24802 3.05597C2.24983 3.09785 2.37134 3.22211 2.39898 3.26593C2.44599 3.33705 2.5021 3.40093 2.56575 3.45577C2.53654 3.27481 2.51996 3.1167 2.42527 2.95871C2.39049 2.90069 2.35657 2.85107 2.32957 2.78774C2.32318 2.77255 2.25699 2.59409 2.26901 2.5951C2.28834 2.59779 2.36195 2.76854 2.3781 2.79182C2.42761 2.8635 2.46332 2.94081 2.50401 3.01843C2.46781 2.72236 2.44299 2.42326 2.43183 2.12402C2.45641 2.31433 2.48325 2.50412 2.51235 2.6934C2.52846 2.64061 2.55337 2.59136 2.57055 2.53901C2.58773 2.48665 2.58267 2.43454 2.59486 2.38212C2.6299 2.5188 2.55533 2.67111 2.53871 2.80263C2.52943 2.87593 2.55788 2.97092 2.57043 3.04617C2.58661 3.13825 2.6035 3.23016 2.62111 3.32189C2.6246 3.29101 2.60679 3.2663 2.60722 3.2375C2.60785 3.19829 2.62938 3.18264 2.64355 3.1503C2.67273 3.08337 2.65155 3.02603 2.69642 2.96417C2.76327 2.87192 2.77065 2.73142 2.7936 2.61837C2.79521 2.61241 2.80908 2.66808 2.80962 2.67492C2.81224 2.7137 2.79942 2.74334 2.79574 2.78042C2.78858 2.85366 2.76689 2.92134 2.76679 2.99259C2.76704 3.0477 2.75076 3.06157 2.73079 3.11017C2.71501 3.14858 2.71838 3.17313 2.7147 3.21431C2.70819 3.29171 2.64861 3.33967 2.64604 3.42174C2.64327 3.51809 2.68455 3.62424 2.70542 3.71812C2.72441 3.8054 2.74284 3.89392 2.7643 3.98093C2.81575 4.19155 2.87328 4.4003 2.9369 4.60717C2.94722 4.50033 2.90458 4.40766 2.9217 4.29927C2.94285 4.16532 2.89366 4.06343 2.89568 3.93373C2.8995 3.69284 2.97876 3.44398 3.07731 3.22723C3.07842 3.22718 3.07953 3.22737 3.08057 3.2278C3.0816 3.22823 3.08254 3.22889 3.08332 3.22973C3.06033 3.36165 3.01485 3.485 3.00036 3.61775C2.99373 3.67802 2.97194 3.73761 2.96868 3.79758C2.96541 3.85755 2.98938 3.91724 2.99462 3.97781C2.99985 4.03837 2.99113 4.09976 2.99491 4.16056C2.99903 4.22901 3.02086 4.29308 3.02973 4.36064C3.03912 4.43257 3.01124 4.47348 2.99706 4.54039C2.9838 4.60292 2.99973 4.66309 3.00374 4.72508C3.02147 4.99897 3.17208 5.28709 3.28351 5.53393C3.40234 5.80016 3.54083 6.056 3.6977 6.29911C3.6585 6.19337 3.64969 6.08678 3.64235 5.97458C3.63413 5.84918 3.58167 5.74256 3.54268 5.62629C3.46288 5.38644 3.47815 5.1151 3.44937 4.86431C3.43476 4.73684 3.44435 4.60966 3.43386 4.48219C3.42401 4.36415 3.40308 4.24846 3.41006 4.12856C3.41698 4.01193 3.41387 3.89446 3.42421 3.77811C3.42677 3.74762 3.49664 3.44524 3.52616 3.45745C3.53014 3.45907 3.45215 3.9544 3.45347 4.00867C3.45569 4.11434 3.47787 4.21783 3.48063 4.32367C3.483 4.41834 3.48161 4.51269 3.4964 4.6063C3.52651 4.79766 3.55937 4.97495 3.548 5.17079C3.53646 5.37013 3.6375 5.52256 3.66631 5.71358C3.69627 5.91207 3.68406 6.09014 3.76075 6.27722C3.79757 6.36775 3.82054 6.46838 3.87317 6.54923C3.9258 6.63007 3.99396 6.70461 4.05685 6.77706C4.33026 7.09238 4.63026 7.3899 4.95572 7.64501C4.864 7.49278 4.75288 7.3545 4.66434 7.20007C4.57435 7.04306 4.53281 6.86469 4.45869 6.69986C4.39012 6.54711 4.30409 6.4038 4.28465 6.23209C4.26441 6.0527 4.28162 5.87188 4.25623 5.6917C4.23347 5.5278 4.19136 5.36157 4.22719 5.1958C4.26506 5.02025 4.28477 4.85324 4.30632 4.67502C4.32826 4.49343 4.39974 4.32644 4.38692 4.14075C4.37391 3.95212 4.33314 3.76456 4.30351 3.57804C4.29867 3.60776 4.35463 3.73097 4.36519 3.76913C4.39211 3.86375 4.41711 3.96021 4.42489 4.0592C4.4393 4.24303 4.42069 4.44846 4.40471 4.63184C4.38959 4.81154 4.34259 4.97414 4.36573 5.156C4.38983 5.34229 4.3882 5.50952 4.37573 5.69742C4.36319 5.8914 4.40146 6.05836 4.45789 6.24068C4.5121 6.41625 4.5128 6.60467 4.57266 6.77661C4.63339 6.95132 4.74025 7.10718 4.8172 7.27399C4.8895 7.43426 4.98051 7.58425 5.08812 7.7205C5.2178 7.88378 5.44633 7.99033 5.62492 8.08716C5.82678 8.19662 6.03601 8.2924 6.24668 8.38291C6.13626 8.26403 6.03887 8.1289 5.93619 8.00258C5.83613 7.87942 5.74859 7.75144 5.68673 7.60207C5.62798 7.46058 5.58776 7.31139 5.53143 7.16893C5.46937 7.01133 5.38747 6.86379 5.36148 6.69341C5.33757 6.53656 5.35816 6.3776 5.37589 6.22097C5.39439 6.05656 5.38342 5.88978 5.40471 5.72643C5.42601 5.56307 5.49089 5.40982 5.48021 5.24366C5.46952 5.07749 5.41833 4.91483 5.39353 4.75147C5.36546 4.56743 5.33488 4.41331 5.25999 4.24315C5.1851 4.07299 5.12744 3.89748 5.05914 3.72564C5.06028 3.7609 5.1402 3.8594 5.16252 3.89914C5.21497 3.98882 5.26179 4.08206 5.30266 4.17828C5.37316 4.35311 5.43439 4.53373 5.50232 4.7101C5.57525 4.89955 5.58588 5.07286 5.59368 5.27465C5.60105 5.46832 5.63077 5.66046 5.58553 5.85228C5.53943 6.04766 5.47423 6.21799 5.49672 6.42336C5.51829 6.61986 5.58993 6.80627 5.61091 7.00319C5.63126 7.19572 5.69058 7.35156 5.78508 7.51704C5.87958 7.68252 5.9659 7.85271 6.06769 8.01083C6.12921 8.10614 6.20389 8.18638 6.28189 8.26667C6.34824 8.33496 6.41126 8.44551 6.49229 8.48585C6.70137 8.58994 6.92849 8.6632 7.14299 8.75438C7.04164 8.62149 6.9964 8.46074 6.92963 8.30768C6.86493 8.16029 6.77473 8.02952 6.72097 7.87625C6.6667 7.72119 6.6287 7.56011 6.57708 7.40398C6.52623 7.25038 6.45694 7.10882 6.4627 6.94123C6.46864 6.77025 6.55383 6.62258 6.57686 6.45573C6.59989 6.28889 6.5762 6.11753 6.563 5.94963C6.5498 5.78173 6.57221 5.61166 6.54989 5.44522C6.52771 5.27704 6.46371 5.11881 6.43646 4.95149C6.37974 4.60364 6.15816 4.34706 6.05272 4.01973C6.05014 4.05046 6.12727 4.15423 6.14795 4.18844C6.20149 4.27687 6.25878 4.36186 6.3049 4.45529C6.39149 4.6303 6.4765 4.81748 6.54793 4.99978C6.61496 5.16951 6.60911 5.35269 6.6393 5.53127C6.6711 5.71973 6.73363 5.88885 6.72865 6.08405C6.72365 6.27562 6.68162 6.46619 6.6927 6.65806C6.70377 6.84992 6.71742 7.02442 6.6892 7.21603C6.66278 7.39807 6.72642 7.54606 6.80811 7.70144C6.89005 7.8552 6.94936 8.02133 6.98405 8.19422C7.02636 8.39505 7.13014 8.59811 7.23884 8.76783C7.28998 8.84785 7.4258 8.88002 7.51115 8.9219C7.61197 8.97129 7.71142 9.02372 7.80797 9.08166C7.74244 8.94315 7.68581 8.80008 7.63848 8.65342C7.58574 8.48805 7.59664 8.30436 7.59652 8.13146C7.59642 7.81569 7.53464 7.47656 7.6675 7.17936C7.73016 7.03929 7.77791 6.92328 7.77524 6.76482C7.77259 6.59957 7.73713 6.43741 7.73406 6.27189C7.73108 6.11845 7.75236 5.97255 7.69152 5.82819C7.62996 5.68177 7.55557 5.54529 7.51947 5.38812C7.48752 5.249 7.43113 5.13092 7.36001 5.00972C7.32493 4.95004 7.2873 4.89166 7.25362 4.83116C7.24521 4.81616 7.1654 4.69141 7.17545 4.67222C7.19102 4.64293 7.37041 4.85705 7.38134 4.87367C7.46491 5.00002 7.49967 5.15473 7.5742 5.28689C7.64767 5.41707 7.72427 5.53393 7.76715 5.68042C7.81429 5.84109 7.83964 6.0072 7.90867 6.15987C8.04244 6.45536 7.92811 6.73033 7.92282 7.04014C7.92027 7.18667 7.94866 7.31799 7.91081 7.46296C7.86669 7.63214 7.72348 7.7618 7.70647 7.9363C7.69248 8.08023 7.74668 8.2177 7.77043 8.3566C7.79746 8.51465 7.74749 8.66763 7.78929 8.82703C7.8229 8.95563 7.90312 9.08099 7.98438 9.18194C8.08636 9.30867 8.25675 9.40001 8.38348 9.50186C8.63258 9.70203 8.87274 9.9161 9.09033 10.1541C9.50946 10.6123 9.77443 11.1401 9.92666 11.7563C9.9999 12.0577 10.0529 12.3643 10.0852 12.674C10.0934 12.7498 10.0663 12.8013 9.9881 12.8259C9.96049 12.8346 9.8355 12.8322 9.81677 12.8144C9.78859 12.7877 9.77761 12.6633 9.76625 12.6226C9.74638 12.549 9.72563 12.4757 9.70399 12.4028C9.52564 11.794 9.26854 11.2146 8.93992 10.681C8.75195 10.3775 8.55095 10.0756 8.29657 9.82989C8.16364 9.70293 8.02232 9.58607 7.87365 9.48019C7.72556 9.37596 7.51936 9.33798 7.34452 9.29831Z" fill="#DCEEC0"/>
<path d="M1.64568 3.99485C1.67793 3.88609 1.71878 3.78615 1.73128 3.67187C1.74378 3.55758 1.74828 3.44474 1.76525 3.33142C1.78138 3.2278 1.78694 3.12276 1.78183 3.0181C1.77578 2.89464 1.81818 2.79729 1.84874 2.68089C1.81213 2.77674 1.85679 2.92994 1.84665 3.03727C1.83294 3.18439 1.85514 3.33253 1.83173 3.47872C1.80757 3.63386 1.75547 3.77916 1.75047 3.93767C1.74522 4.10437 1.74392 4.22816 1.63582 4.36171C1.53086 4.49095 1.49235 4.59742 1.48165 4.76683C1.47137 4.93006 1.4436 5.08713 1.43898 5.25165C1.43441 5.40903 1.35866 5.54624 1.34434 5.70198C1.33183 5.84006 1.32163 5.99439 1.37471 6.12403C1.32768 6.08093 1.30194 5.95382 1.2928 5.89069C1.28025 5.8022 1.29891 5.71903 1.31321 5.6322C1.33007 5.52954 1.32799 5.42481 1.34835 5.32279C1.36733 5.22922 1.39131 5.14227 1.38856 5.04558C1.38606 4.96168 1.36209 4.88347 1.367 4.79868C1.37256 4.70955 1.39547 4.62242 1.4343 4.54272C1.4782 4.45136 1.54114 4.37003 1.58005 4.27591C1.61775 4.18554 1.61822 4.0876 1.64568 3.99485Z" fill="#DCEEC0"/>
<path d="M2.16398 1.49392C2.1629 1.77877 2.05521 2.05406 1.97712 2.32212C2.02378 2.04075 2.05049 1.75618 2.16398 1.49392Z" fill="#DCEEC0"/>
<path d="M6.35618 10.2064C6.4651 10.2205 6.57504 10.2251 6.68485 10.22C6.73743 10.2169 6.9064 10.2141 6.93842 10.1808C6.77343 10.2577 6.61405 10.2561 6.43892 10.2356C6.28128 10.2172 6.12434 10.2209 5.96628 10.2102C5.79877 10.1982 5.63352 10.2122 5.46654 10.2084C5.28771 10.2043 5.11184 10.1623 4.93431 10.144C4.77253 10.1273 4.61907 10.1359 4.46126 10.0891C4.30519 10.0428 4.15195 9.98276 3.99763 9.93016C3.83121 9.8735 3.69939 9.77802 3.55191 9.68239C3.51253 9.65669 3.10431 9.39625 3.10822 9.39201C3.1275 9.37019 3.44472 9.55417 3.47587 9.57215C3.60623 9.64805 3.74627 9.69218 3.8787 9.76192C4.01113 9.83167 4.13587 9.92819 4.2871 9.95416C4.41507 9.97664 4.5458 9.95306 4.672 9.98993C4.8086 10.0299 4.93978 10.0711 5.08181 10.0862C5.22149 10.1014 5.36173 10.1062 5.50054 10.1266C5.63693 10.1466 5.76949 10.1634 5.90761 10.1629C6.06111 10.163 6.20414 10.1888 6.35618 10.2064Z" fill="#DCEEC0"/>
<path d="M5.70082 9.93506C5.59113 9.94364 5.45319 9.91423 5.34835 9.88361C5.23195 9.85037 5.1198 9.85372 5.0024 9.83106C4.94063 9.8193 4.8854 9.78782 4.82534 9.77022C4.75876 9.75079 4.68914 9.74786 4.6224 9.72783C4.49303 9.68894 4.3654 9.63741 4.23682 9.59448C4.38448 9.62976 4.54347 9.64665 4.68748 9.691C4.76272 9.71557 4.84057 9.7305 4.91935 9.73547C5.0091 9.74091 5.08779 9.78257 5.17596 9.79491C5.25698 9.8063 5.33164 9.80355 5.41009 9.8323C5.4979 9.86466 5.55546 9.87243 5.64724 9.87347C5.72104 9.87429 5.79206 9.88049 5.86638 9.87784C5.90495 9.87536 5.94363 9.87669 5.98191 9.88181C6.0057 9.88557 6.05872 9.91019 6.0787 9.90648C5.95015 9.89883 5.82684 9.92526 5.70082 9.93506Z" fill="#DCEEC0"/>
<path d="M3.37107 2.10555C3.26869 2.00212 3.1854 1.89349 3.10132 1.77319C3.11652 1.82229 3.2406 1.91079 3.28076 1.95238C3.35824 2.03227 3.43374 2.11458 3.51371 2.19128C3.65672 2.32814 3.8243 2.4251 3.97012 2.55634C4.11976 2.69094 4.27924 2.78382 4.45609 2.87219C4.54394 2.91603 4.6178 2.97956 4.70333 3.0272C4.78324 3.07166 4.86252 3.1156 4.94121 3.16266C5.1175 3.26832 5.31821 3.31744 5.50304 3.40484C5.68049 3.48832 5.86236 3.5611 6.04779 3.62284C6.22799 3.68336 6.39791 3.78298 6.55728 3.88899C6.59938 3.91679 6.98449 4.24725 6.99113 4.2409C6.97771 4.25383 6.80826 4.13549 6.78522 4.12019C6.71062 4.07079 6.64256 4.0136 6.57288 3.95711C6.42533 3.83733 6.27689 3.79801 6.10392 3.73481C5.93094 3.67162 5.77158 3.59176 5.59598 3.53737C5.40802 3.47924 5.25115 3.39631 5.08082 3.29642C4.92953 3.20774 4.7664 3.13178 4.61088 3.0513C4.45299 2.9698 4.32429 2.87154 4.1782 2.76876C4.03586 2.66888 3.87703 2.59199 3.75159 2.4681C3.62615 2.3442 3.49461 2.23081 3.37107 2.10555Z" fill="#DCEEC0"/>
<path d="M3.52222 2.47217C3.60768 2.53644 3.70385 2.60548 3.77847 2.68243C3.82712 2.73259 3.8599 2.74707 3.92013 2.7771C3.96895 2.8016 3.99614 2.8455 4.03684 2.88068C4.0842 2.92112 4.14545 2.93389 4.19493 2.97029C4.23939 3.00298 4.27995 3.03721 4.32481 3.06912C4.34157 3.08108 4.53917 3.28477 4.54548 3.27838C4.51886 3.30568 4.27126 3.12064 4.24776 3.09886C4.21179 3.06559 4.18766 3.05278 4.14488 3.02785C4.08971 2.99566 4.05367 2.93813 3.9971 2.90676C3.95099 2.88178 3.90123 2.87901 3.86087 2.84115C3.84028 2.82184 3.83156 2.79344 3.8119 2.77362C3.78448 2.74564 3.74748 2.73515 3.71578 2.71455C3.63922 2.66462 3.54677 2.55136 3.52222 2.47217Z" fill="#DCEEC0"/>
<path d="M1.60181 7.64014C1.65852 7.74512 1.6999 7.85269 1.75039 7.95902C1.76851 7.99712 1.8145 8.01423 1.82913 8.05027C1.84533 8.0902 1.81708 8.11959 1.83795 8.15943C1.85429 8.19093 1.8982 8.20119 1.91367 8.23378C1.92314 8.25333 1.91416 8.27297 1.92214 8.29158C1.93365 8.31857 1.95142 8.32382 1.96922 8.34336C1.99977 8.37641 2.01635 8.41566 2.04494 8.44948C2.07021 8.47685 2.09306 8.50658 2.11323 8.53832C2.10812 8.52899 2.03331 8.50323 2.02045 8.49231C1.9823 8.45991 1.92645 8.42134 1.89381 8.38414C1.86117 8.34693 1.84876 8.31213 1.80838 8.27849C1.76124 8.23936 1.76814 8.21545 1.74704 8.16257C1.72801 8.11409 1.67653 8.10542 1.65544 8.06297C1.63503 8.02304 1.65357 7.96905 1.63697 7.92076C1.60586 7.83125 1.59386 7.73545 1.60181 7.64014Z" fill="#DCEEC0"/>
<path d="M8.64631 6.59336C8.64152 6.65039 8.6035 6.69689 8.5754 6.74305C8.5754 6.74305 8.55879 6.6473 8.55752 6.63466C8.55375 6.58827 8.55293 6.54164 8.55505 6.49508C8.55789 6.37811 8.50672 6.34193 8.46246 6.24479C8.44012 6.19602 8.4518 6.15762 8.45184 6.10688C8.4515 6.04754 8.43437 6.01351 8.40639 5.96322C8.3843 5.92338 8.35821 5.88626 8.35093 5.83935C8.34252 5.78485 8.36405 5.73497 8.36627 5.68206C8.3711 5.56525 8.28728 5.52374 8.25612 5.42665C8.22497 5.32956 8.26108 5.24492 8.20645 5.15089C8.15182 5.05687 8.08521 4.98234 8.03645 4.88588C7.9793 4.77289 7.90955 4.66974 7.83789 4.56689C7.96269 4.73528 8.13537 4.88658 8.22419 5.07995C8.26464 5.16843 8.31743 5.24994 8.38081 5.3218C8.44575 5.39759 8.47043 5.44491 8.46205 5.54454C8.45367 5.64416 8.49556 5.71661 8.53297 5.80274C8.55159 5.84556 8.56604 5.88499 8.56646 5.93285C8.56689 5.98317 8.55014 6.02782 8.56427 6.07777C8.59005 6.16749 8.67265 6.21816 8.64967 6.32102C8.63762 6.3745 8.62142 6.40069 8.62904 6.45794C8.63461 6.50271 8.6498 6.54666 8.64631 6.59336Z" fill="#DCEEC0"/>
<path d="M2.43101 1.10847C2.50954 1.18187 2.58149 1.26274 2.64596 1.35007C2.67347 1.38754 2.68425 1.43897 2.71096 1.47802C2.71392 1.48249 2.79826 1.58112 2.7876 1.58515C2.74152 1.60472 2.5525 1.38358 2.5299 1.34722C2.46212 1.23908 2.39981 1.13198 2.32275 1.02856C2.35873 1.05515 2.39747 1.07798 2.43101 1.10847Z" fill="#DCEEC0"/>
</svg>
