<svg width="33" height="32" viewBox="0 0 33 32" fill="none" xmlns="http://www.w3.org/2000/svg">
<path d="M17.6867 7.84009H7.31333C5.03333 7.84009 3.16669 9.70674 3.16669 11.9867V27.1334C3.16669 29.0668 4.55335 29.8934 6.24668 28.9467L11.4867 26.0267C12.0467 25.7201 12.9534 25.7201 13.5 26.0267L18.74 28.9467C20.4333 29.8934 21.82 29.0668 21.82 27.1334V11.9867C21.8333 9.70674 19.9667 7.84009 17.6867 7.84009Z" stroke="#00874A" stroke-width="1.5" stroke-linecap="round" stroke-linejoin="round"/>
<path d="M21.8334 11.9867V27.1334C21.8334 29.0668 20.4467 29.8801 18.7534 28.9467L13.5134 26.0267C12.9534 25.7201 12.0467 25.7201 11.4867 26.0267L6.24668 28.9467C4.55335 29.8801 3.16669 29.0668 3.16669 27.1334V11.9867C3.16669 9.70674 5.03333 7.84009 7.31333 7.84009H17.6867C19.9667 7.84009 21.8334 9.70674 21.8334 11.9867Z" stroke="#00874A" stroke-width="2" stroke-linecap="round" stroke-linejoin="round"/>
<path opacity="0.4" d="M29.8334 6.8134V21.9601C29.8334 23.8934 28.4467 24.7067 26.7534 23.7734L21.8334 21.0267V11.9867C21.8334 9.70674 19.9667 7.84009 17.6867 7.84009H11.1667V6.8134C11.1667 4.5334 13.0333 2.66675 15.3133 2.66675H25.6867C27.9667 2.66675 29.8334 4.5334 29.8334 6.8134Z" stroke="#00874A" stroke-width="2" stroke-linecap="round" stroke-linejoin="round"/>
</svg>
