<svg width="68" height="45" viewBox="0 0 68 45" fill="none" xmlns="http://www.w3.org/2000/svg">
<path d="M67.6582 0.299226L38.7886 20.5594V0.519445C38.7886 0.326753 38.6224 0.216644 38.4839 0.299226L7.14848 22.2936C7.14848 22.2936 7.00995 22.624 7.14848 22.7341L38.4839 44.7285C38.4839 44.7285 38.7886 44.7285 38.7886 44.5082V24.4683L67.6582 44.7285C67.6582 44.7285 67.963 44.7285 67.963 44.5082V0.546973C67.963 0.354281 67.7967 0.244172 67.6582 0.326754V0.299226Z" fill="white"/>
<path d="M6.34465 0.0789795H0.664942C0.304765 0.0789795 0 0.436836 0 0.877274V44.0953C0 44.5357 0.304765 44.8936 0.664942 44.8936H6.34465C6.70483 44.8936 7.0096 44.5357 7.0096 44.0953V0.877274C7.0096 0.436836 6.70483 0.0789795 6.34465 0.0789795Z" fill="white"/>
</svg>
