<svg width="16" height="17" viewBox="0 0 16 17" fill="none" xmlns="http://www.w3.org/2000/svg">
<g clip-path="url(#clip0_889_1131)">
<path d="M16 8.5C16 4.08172 12.4183 0.5 8 0.5C3.58172 0.5 0 4.08172 0 8.5C0 12.493 2.92547 15.8027 6.75 16.4028V10.8125H4.71875V8.5H6.75V6.7375C6.75 4.7325 7.94438 3.625 9.77172 3.625C10.6467 3.625 11.5625 3.78125 11.5625 3.78125V5.75H10.5538C9.56 5.75 9.25 6.36672 9.25 7V8.5H11.4688L11.1141 10.8125H9.25V16.4028C13.0745 15.8027 16 12.493 16 8.5Z" fill="#1877F2"/>
<path d="M11.1141 10.8125L11.4688 8.5H9.25V7C9.25 6.36734 9.56 5.75 10.5538 5.75H11.5625V3.78125C11.5625 3.78125 10.647 3.625 9.77172 3.625C7.94438 3.625 6.75 4.7325 6.75 6.7375V8.5H4.71875V10.8125H6.75V16.4028C7.5783 16.5324 8.4217 16.5324 9.25 16.4028V10.8125H11.1141Z" fill="white"/>
</g>
<defs>
<clipPath id="clip0_889_1131">
<rect width="16" height="16" fill="white" transform="translate(0 0.5)"/>
</clipPath>
</defs>
</svg>
