<svg width="60" height="50" viewBox="0 0 60 50" fill="none" xmlns="http://www.w3.org/2000/svg">
<path d="M38.1785 30.9245C37.6616 29.1493 37.6018 27.554 38.1463 25.8696C38.5273 24.6897 40.1201 23.1245 41.1672 22.5243C43.2463 21.3331 45.9345 21.4547 48.0699 20.5741C50.2649 19.6687 51.0716 19.0566 52.3276 17.7129C52.5901 17.4321 53.7019 16.5349 53.7082 16.9241C53.7912 22.1031 55.9402 27.3281 52.6434 31.876C52.3015 32.3475 52.1953 32.722 51.6197 33.388C51.0441 34.0539 49.3824 35.2502 48.9349 35.4009C46.1587 36.3359 42.3479 37.5809 39.0247 34.0945C37.8873 32.9021 38.695 32.6997 38.1785 30.9245Z" fill="#DCEEC0"/>
<path d="M54.287 15.83C53.9611 15.4473 53.4062 15.7347 53.0661 15.9441C52.4654 16.3136 51.9341 16.8115 51.412 17.292C50.8703 17.7897 50.341 18.3075 49.7592 18.7531C48.8784 19.4281 47.9132 19.8692 46.8814 20.2156C45.8244 20.5701 44.742 20.8247 43.6646 21.0948C42.7303 21.3303 41.7386 21.5267 40.8712 21.9823C39.4299 22.7399 38.2587 24.1133 37.5439 25.6193C37.1695 26.4084 36.9025 27.2793 36.8824 28.1631C36.8544 29.3019 37.3908 30.2451 37.781 31.2662C37.6257 30.5914 37.3601 29.926 37.2913 29.2311C37.2252 28.5517 37.4016 27.8633 37.566 27.2105C37.9046 25.8596 38.4364 24.5055 39.3864 23.4961C39.8929 22.959 40.504 22.5445 41.1766 22.2819C42.0437 21.9423 42.9699 21.8376 43.871 21.6497C44.7722 21.4619 45.6361 21.1391 46.4961 20.8137C47.3102 20.5053 48.1152 20.1665 48.8991 19.7779C50.6194 18.9275 52.2273 17.8264 53.5768 16.4052C53.4816 17.3496 53.7285 18.3483 53.9115 19.2621C54.1485 20.4457 54.4415 21.6249 54.5909 22.8266C54.7047 23.7428 54.7075 24.6551 54.6957 25.5778C54.688 26.1701 54.7448 26.7616 54.7211 27.3541C54.7004 27.9036 54.533 28.3364 54.3404 28.8381C53.9877 29.755 53.7151 30.7037 53.3756 31.6259C53.18 32.1571 52.9855 32.6578 52.6274 33.0964C52.2693 33.5349 51.8353 33.8837 51.3858 34.2024C50.3768 34.9188 49.3031 35.579 48.1486 35.9881C46.9328 36.419 45.6452 36.5893 44.3713 36.5839C43.0974 36.5785 41.7664 36.4416 40.582 35.9414C39.5585 35.5093 38.6778 34.8049 37.7959 34.1251C38.528 35.0222 39.1506 35.9966 40.24 36.4322C41.1896 36.8107 42.2289 36.9448 43.2416 36.9994C44.4379 37.0634 45.6385 36.999 46.8249 36.8072C47.9374 36.6287 49.0581 36.3462 50.0823 35.8372C50.5028 35.6288 50.9106 35.3794 51.2665 35.0622C51.6646 34.7081 51.935 34.2331 52.327 33.8725C52.6092 33.6123 52.9639 33.4436 53.2164 33.1464C53.5925 32.7049 53.7972 32.1058 54.0095 31.5646C54.4071 30.5495 54.7724 29.52 55.1299 28.4889C55.1885 28.3202 55.211 28.148 55.2393 27.971C55.3272 27.4231 55.3982 26.8714 55.4426 26.3178C55.4943 25.6921 55.5266 25.0485 55.4313 24.427C55.3021 23.5852 55.0925 22.7562 54.9069 21.9273C54.7148 21.0671 54.5365 20.2055 54.4397 19.3254C54.3872 18.8504 54.3528 18.374 54.3288 17.895C54.3081 17.4839 54.2655 17.0757 54.367 16.6704C54.4472 16.3624 54.508 16.0892 54.287 15.83Z" fill="#0C321E"/>
<path d="M39.9322 33.2854C40.2996 33.2586 40.6708 33.2371 41.037 33.2383C41.3963 33.2393 41.7456 33.3568 42.1069 33.3747C42.4892 33.3942 42.827 33.5123 43.1898 33.625C43.5362 33.7294 43.8987 33.7643 44.2586 33.728C44.6528 33.6934 45.0131 33.6674 45.406 33.7473C45.7833 33.8243 46.1605 33.9248 46.5477 33.9174C46.9565 33.9097 47.3802 33.7823 47.7813 33.6982C48.1688 33.6172 48.5619 33.547 48.9374 33.4093C49.3513 33.2579 49.785 33.1007 50.1752 32.8899C50.3733 32.7808 50.5627 32.6551 50.7419 32.514C50.7954 32.4722 51.2105 32.0888 51.2147 32.0902C51.1665 32.0718 50.8542 32.3611 50.8 32.4013C50.6252 32.527 50.4461 32.6454 50.2612 32.754C49.902 32.9699 49.5159 33.1309 49.1145 33.232C48.7002 33.3326 48.2957 33.4517 47.8852 33.5676C47.4951 33.6755 47.164 33.6793 46.7714 33.6162C45.9675 33.4865 45.1568 33.4609 44.3561 33.3033C43.5759 33.1498 42.7794 33.3217 42.0022 33.1753C41.7973 33.1372 41.6059 33.0742 41.3973 33.0724C41.1806 33.067 40.972 33.1186 40.7585 33.1383C40.2753 33.1779 39.788 33.2034 39.3042 33.2477C40.125 32.8769 40.9768 32.5894 41.8308 32.3196C42.2508 32.1865 42.6743 32.0583 43.0964 31.9282C43.2952 31.8667 43.4937 31.8051 43.6919 31.7437C43.9115 31.6738 44.169 31.7135 44.3972 31.7191C44.8169 31.7289 45.2148 31.7453 45.626 31.8333C46.0373 31.9214 46.4145 31.8716 46.8233 31.7992C47.2621 31.7251 47.7082 31.7157 48.145 31.6306C48.5722 31.5476 48.9452 31.2943 49.3575 31.1516C49.5789 31.0752 49.8099 31.0076 50.0068 30.8714C50.2037 30.7353 50.3787 30.5772 50.5855 30.4515C50.9725 30.2152 51.302 29.9424 51.5153 29.5183C51.5232 29.4619 51.4129 29.581 51.4187 29.5766C51.3559 29.6263 51.3046 29.703 51.2453 29.7605C51.1244 29.878 50.9973 29.9883 50.8645 30.0907C50.6049 30.2937 50.3471 30.4922 50.0407 30.6078C49.7255 30.7261 49.4539 30.9014 49.1508 31.0454C48.8536 31.1867 48.5299 31.1922 48.2197 31.2807C47.8988 31.3731 47.5895 31.5047 47.2633 31.5712C46.9464 31.6352 46.6435 31.6078 46.3252 31.5918C46.0212 31.5763 45.7195 31.6294 45.4163 31.6192C45.0924 31.6063 44.7755 31.525 44.4537 31.4936C45.2296 31.2253 45.9857 30.9132 46.6771 30.4461C46.8431 30.3341 47.0051 30.2156 47.1632 30.0906C47.2461 30.0254 47.3379 29.9166 47.4312 29.8706C47.5098 29.8313 47.618 29.8181 47.7019 29.793C47.8718 29.742 48.0454 29.6833 48.2215 29.6834C48.3664 29.6837 48.5069 29.726 48.6538 29.7205C48.989 29.7092 49.2368 29.4565 49.5241 29.3106C49.7102 29.2161 49.9164 29.1733 50.1128 29.1095C50.3216 29.0423 50.5022 28.9346 50.6962 28.8316C50.8695 28.7394 51.0533 28.6907 51.2325 28.6151C51.3919 28.5462 51.5083 28.4362 51.6519 28.3401C51.8104 28.234 51.9881 28.1792 52.1591 28.0965C52.2028 28.0753 52.6173 27.7524 52.5487 27.7275C52.516 27.7162 52.3424 27.8253 52.3065 27.8427C52.2044 27.8929 52.1049 27.9488 52.0083 28.0103C51.812 28.1381 51.6015 28.2395 51.3817 28.3122C51.1577 28.3845 50.9736 28.5072 50.7633 28.6103C50.5685 28.7058 50.3578 28.7363 50.1571 28.8126C49.9565 28.8889 49.7713 29.0097 49.5735 29.0973C49.3591 29.1918 49.1446 29.2159 48.914 29.2309C48.7566 29.2359 48.6018 29.2779 48.461 29.354C48.2587 29.4579 48.0784 29.4698 47.8571 29.4824C48.2925 29.0576 48.6946 28.5963 49.0594 28.1033C49.0871 28.0654 49.1259 27.9849 49.1642 27.9596C49.2096 27.9305 49.3476 27.9185 49.3989 27.9036C49.5373 27.8638 49.6721 27.81 49.8105 27.7698C50.0737 27.6926 50.3141 27.6352 50.5585 27.4961C50.8029 27.3569 51.0488 27.2339 51.299 27.1077C51.5558 26.9803 51.7654 26.771 52.0099 26.6188C52.2427 26.4741 52.4084 26.2865 52.6085 26.1002C52.7023 26.0183 52.7896 25.9284 52.8695 25.8314C52.8938 25.8 53.0505 25.5392 53.0555 25.54C52.9969 25.5327 52.7315 25.8627 52.6822 25.9147C52.5824 26.0297 52.4727 26.1347 52.3546 26.2284C52.042 26.4576 51.7679 26.6958 51.4211 26.864C51.0743 27.0322 50.7709 27.2388 50.4074 27.3712C50.2347 27.4361 50.0677 27.5169 49.9082 27.6126C49.7139 27.7248 49.5162 27.7325 49.3022 27.7657C49.6144 27.3158 49.9035 26.8487 50.1684 26.3665C50.3082 26.1135 50.4421 25.8572 50.57 25.5976C50.6261 25.4844 50.6691 25.3494 50.7394 25.246C50.8014 25.1545 50.8944 25.1211 50.9783 25.0515C51.0622 24.9819 51.1085 24.8867 51.1887 24.8227C51.2927 24.7401 51.4264 24.7431 51.5319 24.6627C51.6209 24.5956 51.6804 24.4919 51.7695 24.4231C51.8773 24.3394 52.0085 24.2937 52.116 24.2075C52.198 24.1416 52.259 24.0548 52.332 23.979C52.418 23.8906 52.528 23.8305 52.5959 23.7245C52.6421 23.6516 52.918 23.0698 52.9318 23.0713C52.8297 23.0608 52.5522 23.5554 52.4706 23.6381C52.3962 23.7124 52.3476 23.7941 52.2805 23.8722C52.1994 23.967 52.0912 24.0113 51.9902 24.0758C51.7821 24.2088 51.6216 24.3594 51.3964 24.4651C51.2695 24.5243 51.2358 24.5653 51.1617 24.6753C51.0982 24.77 51.0041 24.8207 50.9087 24.8772C51.0546 24.5493 51.1927 24.2179 51.323 23.8831C51.3872 23.718 51.4494 23.5522 51.5095 23.3858C51.5614 23.243 51.6513 23.1123 51.6907 22.9772C51.7071 22.9211 51.6955 22.8877 51.7307 22.8347C51.7658 22.7818 51.8298 22.7684 51.8648 22.7172C51.9472 22.5953 51.9549 22.5596 52.0881 22.4669C52.3173 22.3081 52.4456 22.0407 52.5917 21.7997C52.5745 21.8866 52.2806 22.1093 52.2086 22.1924C52.0875 22.3266 51.9496 22.4427 51.7989 22.5376C51.9174 22.1681 52.0026 21.842 52.251 21.5409C52.3435 21.4381 52.4287 21.3284 52.506 21.2127C52.5241 21.1827 52.7185 20.8303 52.6936 20.8294C52.6536 20.829 52.4442 21.1656 52.403 21.2074C52.2822 21.3448 52.1696 21.4901 52.0659 21.6423C52.236 21.0323 52.3831 20.4152 52.5015 19.7924C52.3895 20.1829 52.2728 20.5721 52.1515 20.96C52.135 20.8448 52.0981 20.7338 52.0789 20.619C52.0597 20.5042 52.0872 20.3975 52.0781 20.2831C51.9613 20.5586 52.0688 20.9009 52.0616 21.181C52.058 21.3375 51.9694 21.5276 51.9178 21.6812C51.8552 21.869 51.7908 22.0562 51.7245 22.2427C51.7267 22.1768 51.772 22.1309 51.7797 22.0704C51.7911 21.9878 51.7509 21.9492 51.7314 21.8765C51.6917 21.7274 51.7542 21.6139 51.6799 21.4706C51.5695 21.2565 51.5983 20.9602 51.5863 20.7161C51.5648 20.7516 51.5476 20.7898 51.535 20.8297C51.517 20.9101 51.5343 20.976 51.5304 21.0548C51.5222 21.2103 51.5462 21.3588 51.5228 21.5081C51.5049 21.6232 51.5345 21.6577 51.5595 21.7656C51.5804 21.8507 51.5656 21.9011 51.5602 21.989C51.5497 22.1529 51.6592 22.2718 51.6383 22.4442C51.6133 22.6471 51.4923 22.8565 51.4196 23.0465C51.3519 23.2234 51.2852 23.4027 51.2129 23.5787C51.038 24.0036 50.8511 24.4227 50.6522 24.836C50.6646 24.6092 50.7833 24.4283 50.7821 24.1962C50.7811 23.9091 50.9158 23.7116 50.9534 23.4381C51.0222 22.9321 50.9353 22.3869 50.7967 21.902C50.7944 21.9014 50.792 21.9012 50.7896 21.9016C50.7873 21.902 50.7851 21.9029 50.783 21.9043C50.7895 22.1876 50.8455 22.46 50.8335 22.7426C50.8281 22.8695 50.855 23.0023 50.8427 23.1288C50.8304 23.2552 50.7613 23.3727 50.7313 23.4979C50.7012 23.6231 50.6997 23.7552 50.6725 23.8808C50.642 24.0225 50.5759 24.1492 50.5359 24.2886C50.4935 24.4365 50.5388 24.5305 50.5471 24.6753C50.5551 24.81 50.5037 24.9309 50.4746 25.0597C50.3503 25.6267 49.9436 26.1839 49.6317 26.6671C49.2982 27.1876 48.9269 27.6802 48.5211 28.1404C48.6369 27.931 48.6894 27.7109 48.7404 27.4779C48.7969 27.2164 48.9413 27.0114 49.0598 26.7792C49.3035 26.3021 49.3572 25.7293 49.4975 25.2129C49.568 24.949 49.5885 24.6813 49.6511 24.4179C49.7093 24.1737 49.7899 23.9383 49.8134 23.6861C49.8359 23.4407 49.8798 23.1947 49.8951 22.9489C49.8991 22.8844 49.8484 22.2293 49.7837 22.2457C49.7747 22.2472 49.7804 23.3094 49.7607 23.4228C49.7218 23.6427 49.6428 23.853 49.6037 24.0739C49.5684 24.2714 49.5403 24.4693 49.4806 24.6605C49.3568 25.0519 49.2317 25.4124 49.193 25.8263C49.154 26.2471 48.8949 26.5349 48.773 26.9259C48.647 27.3324 48.6164 27.7085 48.3963 28.0766C48.2899 28.2546 48.2112 28.4582 48.0734 28.6113C47.93 28.7618 47.7774 28.902 47.6164 29.0312C46.9439 29.6136 46.2214 30.1284 45.4585 30.5687C45.6989 30.2786 45.9759 30.0235 46.2099 29.7278C46.4439 29.432 46.5922 29.0668 46.7999 28.7461C46.992 28.4477 47.2177 28.1744 47.3127 27.8194C47.4122 27.4502 47.4345 27.0663 47.5439 26.6971C47.6436 26.361 47.7847 26.0263 47.7627 25.6675C47.7389 25.2881 47.7509 24.9324 47.7633 24.5522C47.7752 24.165 47.6787 23.7932 47.7643 23.4087C47.8516 23.0159 47.9968 22.6373 48.1189 22.2567C48.1196 22.3204 47.9627 22.5607 47.9286 22.6375C47.8371 22.8255 47.7643 23.0228 47.7112 23.2261C47.6225 23.6065 47.5966 24.0436 47.5715 24.4326C47.5461 24.8149 47.5937 25.1681 47.4865 25.5415C47.3843 25.9105 47.3194 26.2893 47.2928 26.6718C47.2579 27.0818 47.1244 27.4194 46.9485 27.7839C46.779 28.1347 46.7178 28.5285 46.5378 28.8701C46.3578 29.2118 46.0817 29.5092 45.8676 29.8356C45.6653 30.1485 45.427 30.4341 45.1583 30.6858C44.835 30.9882 44.323 31.1393 43.9181 31.2863C43.4597 31.4531 42.9921 31.5884 42.5224 31.7122C42.7913 31.4988 43.0384 31.247 43.2931 31.0125C43.5403 30.7864 43.7657 30.5454 43.943 30.2517C44.1105 29.9739 44.2422 29.674 44.4057 29.3931C44.5854 29.0834 44.804 28.8 44.9127 28.4506C45.0126 28.1296 45.0181 27.7906 45.0328 27.4567C45.046 27.1067 45.122 26.7611 45.1294 26.4125C45.1368 26.0639 45.0498 25.7228 45.1248 25.3783C45.1998 25.0338 45.3586 24.7088 45.4627 24.3749C45.5802 23.998 45.6932 23.6849 45.904 23.3519C46.1147 23.0189 46.2912 22.6695 46.4893 22.329C46.4756 22.4036 46.2774 22.584 46.2172 22.6601C46.079 22.8316 45.9515 23.0123 45.8353 23.201C45.6322 23.5452 45.4463 23.9043 45.2489 24.2522C45.0365 24.6241 44.9583 24.9859 44.8783 25.4069C44.8013 25.8101 44.6781 26.2031 44.7118 26.6187C44.7462 27.0418 44.8287 27.4189 44.7162 27.842C44.6086 28.2466 44.3995 28.6133 44.2927 29.0203C44.1894 29.4158 44.0152 29.7249 43.7646 30.042C43.5141 30.359 43.2797 30.6884 43.0158 30.9879C42.8545 31.162 42.6771 31.3186 42.4862 31.4554C42.3252 31.5775 42.1587 31.7896 41.976 31.849C41.5052 32.0016 41.0064 32.0833 40.5282 32.2086C40.7824 31.9619 40.928 31.637 41.1167 31.3397C41.2991 31.0514 41.5295 30.8054 41.6909 30.5013C41.8523 30.1973 41.9845 29.8679 42.1422 29.5573C42.2999 29.2467 42.4876 28.9765 42.528 28.6244C42.5701 28.2644 42.4384 27.9288 42.4435 27.5721C42.4485 27.2155 42.5521 26.8641 42.6331 26.5169C42.7141 26.1697 42.7214 25.8064 42.82 25.465C42.9186 25.1237 43.1043 24.8084 43.2144 24.4664C43.4439 23.7555 43.9891 23.2854 44.3143 22.6349C44.3104 22.7003 44.1153 22.8937 44.0611 22.9587C43.9206 23.1269 43.7739 23.2878 43.6477 23.4687C43.4107 23.8078 43.1734 24.1734 42.9649 24.5329C42.7707 24.8677 42.7246 25.2526 42.6046 25.6173C42.4783 26.002 42.2937 26.3365 42.242 26.7467C42.1912 27.1493 42.2188 27.5613 42.1355 27.9597C42.0523 28.3582 41.9676 28.719 41.9654 29.1289C41.9634 29.5182 41.7829 29.8083 41.5622 30.1081C41.3419 30.4046 41.165 30.7339 41.0373 31.0851C40.8851 31.4922 40.603 31.8851 40.3216 32.2069C40.1888 32.3587 39.8942 32.3836 39.7026 32.4446C39.4758 32.5165 39.2508 32.5956 39.0299 32.6867C39.2114 32.4173 39.3755 32.1355 39.521 31.8431C39.6831 31.5128 39.7196 31.1253 39.775 30.7631C39.8755 30.1022 40.1127 29.4115 39.9291 28.7477C39.8422 28.4352 39.7794 28.177 39.8349 27.8463C39.8929 27.5004 40.0182 27.1726 40.0783 26.8273C40.1328 26.5068 40.135 26.1948 40.307 25.9116C40.4789 25.6285 40.6816 25.3616 40.8071 25.0438C40.9182 24.7625 41.0738 24.5325 41.26 24.3016C41.3523 24.1873 41.4499 24.0767 41.5394 23.9604C41.5616 23.9314 41.7686 23.6952 41.7538 23.6524C41.7304 23.5862 41.2866 23.9787 41.2583 24.0099C41.0433 24.2487 40.9215 24.5616 40.7233 24.8143C40.525 25.0671 40.3309 25.2843 40.1933 25.5759C40.044 25.8977 39.938 26.2377 39.7443 26.5338C39.3704 27.1111 39.5226 27.7222 39.4353 28.3724C39.3937 28.6798 39.2928 28.9463 39.3258 29.2613C39.3647 29.6294 39.6228 29.9453 39.6031 30.3162C39.5868 30.6218 39.4297 30.8915 39.3358 31.1762C39.2288 31.4984 39.2851 31.8346 39.1469 32.1553C39.0353 32.4144 38.8277 32.6515 38.6255 32.8377C38.3719 33.0712 37.9857 33.2095 37.688 33.3833C37.0995 33.7201 36.5356 34.1031 36.001 34.5288C34.9778 35.3581 34.2551 36.3807 33.7406 37.6236C33.4895 38.2301 34.3492 38.3365 34.5416 37.9924C34.6691 37.7675 34.8008 37.5468 34.9364 37.3301C35.3019 36.7499 35.7064 36.1979 36.147 35.6786C36.637 35.1015 37.1537 34.532 37.7645 34.0966C38.0831 33.8719 38.4162 33.6711 38.7613 33.4957C39.1078 33.3288 39.5538 33.3131 39.9322 33.2854Z" fill="#0C321E"/>
<path d="M53.5505 23.953C53.5166 23.7155 53.4642 23.4933 53.4745 23.2517C53.4847 23.0102 53.5109 22.7709 53.5114 22.5285C53.5108 22.3065 53.5327 22.0848 53.5768 21.8672C53.6284 21.6107 53.5707 21.3936 53.5438 21.1402C53.59 21.3525 53.448 21.6605 53.4348 21.887C53.417 22.1996 53.323 22.5032 53.325 22.8162C53.326 23.1483 53.3888 23.4687 53.349 23.8022C53.3072 24.1528 53.2703 24.4123 53.4546 24.7248C53.6331 25.0282 53.6798 25.2631 53.6486 25.6212C53.6181 25.967 53.6261 26.3034 53.5836 26.6491C53.5434 26.9802 53.6588 27.2913 53.6385 27.6219C53.6208 27.9147 53.5935 28.2411 53.4409 28.4954C53.5531 28.4197 53.6474 28.1627 53.6868 28.0338C53.7408 27.8525 53.7283 27.6723 53.7261 27.4861C53.7234 27.2656 53.7613 27.0471 53.7519 26.8269C53.7423 26.6257 53.7193 26.4359 53.7556 26.2345C53.7876 26.0611 53.8628 25.903 53.8792 25.7242C53.8961 25.5358 53.8759 25.3462 53.8198 25.1672C53.757 24.9623 53.6509 24.7723 53.5996 24.5634C53.5483 24.3608 53.5786 24.1557 53.5505 23.953Z" fill="#0C321E"/>
<path d="M53.2603 18.5566C53.1721 19.1532 53.3101 19.763 53.3883 20.3475C53.3801 19.744 53.4144 19.1396 53.2603 18.5566Z" fill="#0C321E"/>
<path d="M41.715 35.4932C41.4824 35.4887 41.2507 35.4639 41.0224 35.419C40.9132 35.3955 40.5602 35.3379 40.5042 35.2583C40.8249 35.4704 41.1592 35.5169 41.5324 35.5282C41.8684 35.5387 42.1955 35.5965 42.53 35.6219C42.8843 35.649 43.2263 35.7299 43.5778 35.7739C43.9536 35.8209 44.3349 35.788 44.7128 35.8044C45.0566 35.8199 45.3753 35.8858 45.7211 35.8366C46.067 35.7875 46.4028 35.7106 46.7423 35.6482C47.1088 35.5813 47.4158 35.4224 47.7541 35.2674C47.8448 35.226 48.7821 34.8077 48.7755 34.7975C48.7417 34.7453 48.0191 35.0324 47.9484 35.0602C47.6512 35.1785 47.3441 35.2274 47.0445 35.3322C46.7449 35.4369 46.4533 35.6 46.1283 35.6078C45.8532 35.6123 45.5873 35.5249 45.311 35.5631C45.0123 35.6039 44.7245 35.6487 44.4227 35.6367C44.1208 35.6246 43.83 35.5918 43.5317 35.591C43.2429 35.5959 42.9542 35.5791 42.6681 35.5406C42.3463 35.4925 42.0385 35.5033 41.715 35.4932Z" fill="#0C321E"/>
<path d="M43.1723 35.1281C43.3992 35.1801 43.6958 35.1607 43.9265 35.1301C44.1811 35.096 44.4146 35.1384 44.6678 35.1284C44.8007 35.1228 44.9263 35.0743 45.0566 35.0561C45.2026 35.036 45.3493 35.0516 45.4952 35.0307C45.7787 34.9896 46.0623 34.9211 46.3449 34.8713C46.0245 34.8994 45.6872 34.8853 45.3707 34.9329C45.2054 34.9608 45.0377 34.9678 44.8712 34.9538C44.6816 34.9371 44.5034 34.9999 44.3152 34.9985C44.1418 34.9967 43.9864 34.968 43.8131 35.0039C43.645 35.0413 43.4721 35.0454 43.3032 35.0161C43.1486 34.9952 42.9979 34.9857 42.843 34.9573C42.763 34.94 42.6815 34.9308 42.5997 34.9299C42.5486 34.9301 42.4295 34.9654 42.3892 34.9512C42.6619 34.9748 42.9114 35.0676 43.1723 35.1281Z" fill="#0C321E"/>
<path d="M50.5388 19.4611C50.7786 19.2776 51.0031 19.0728 51.2098 18.8488C51.1623 18.9471 50.8743 19.0936 50.7764 19.1681C50.5884 19.3112 50.4053 19.4601 50.2128 19.596C49.8697 19.8379 49.4881 19.9888 49.1408 20.218C48.7848 20.4533 48.4216 20.5982 48.023 20.7281C47.8254 20.7925 47.6488 20.9026 47.4561 20.9759C47.2746 21.0443 47.0946 21.1112 46.9152 21.1856C46.5123 21.352 46.0766 21.3923 45.6619 21.5178C45.2639 21.638 44.8601 21.7342 44.4522 21.8061C44.0556 21.8773 43.6683 22.0325 43.301 22.205C43.2044 22.2503 42.2926 22.8222 42.2808 22.807C42.3049 22.8382 42.6965 22.6431 42.75 22.6181C42.9222 22.5378 43.0837 22.4392 43.2467 22.3427C43.5935 22.138 43.9171 22.1035 44.2992 22.0235C44.6813 21.9434 45.0407 21.8273 45.4253 21.7678C45.8374 21.7045 46.1924 21.5799 46.5804 21.4236C46.9254 21.2852 47.2913 21.1776 47.6424 21.0566C47.9935 20.9355 48.2995 20.7696 48.6378 20.6007C48.9679 20.4358 49.3248 20.3243 49.6267 20.104C49.9285 19.8838 50.2402 19.6846 50.5388 19.4611Z" fill="#0C321E"/>
<path d="M50.1049 20.1822C49.9055 20.2898 49.6824 20.4043 49.5013 20.5424C49.3836 20.6324 49.3106 20.6523 49.1749 20.6967C49.065 20.7324 48.9924 20.8165 48.8975 20.8762C48.7858 20.9463 48.6536 20.954 48.5381 21.0146C48.435 21.0694 48.3388 21.1285 48.235 21.1813C48.1978 21.2006 47.7175 21.5661 47.7062 21.5508C47.7534 21.6163 48.3306 21.3059 48.3866 21.2679C48.4614 21.2189 48.5414 21.1797 48.625 21.1512C48.7504 21.101 48.8444 20.9906 48.9726 20.9438C49.0774 20.9059 49.1821 20.9156 49.2785 20.8501C49.328 20.8162 49.3554 20.7594 49.4026 20.7237C49.4689 20.6739 49.5496 20.6632 49.6228 20.6303C49.7986 20.5481 50.0278 20.3414 50.1049 20.1822Z" fill="#0C321E"/>
<path d="M52.4841 31.598C52.3321 31.8001 52.2111 32.0125 52.0713 32.2192C52.0213 32.2936 51.9198 32.3149 51.8776 32.3859C51.8309 32.4644 51.8807 32.5341 51.8247 32.6116C51.7803 32.6724 51.6853 32.6805 51.644 32.7433C51.6183 32.7813 51.6301 32.8255 51.6078 32.862C51.5754 32.9145 51.5363 32.9203 51.4927 32.9558C51.4194 33.0156 51.3708 33.0923 51.3009 33.1562C51.2392 33.2056 51.1819 33.2609 51.1297 33.3212C51.1431 33.303 51.3083 33.2726 51.3384 33.2536C51.4284 33.1964 51.557 33.1327 51.6378 33.0666C51.7185 33.0004 51.7551 32.9295 51.8495 32.872C51.9597 32.8051 51.9522 32.7526 52.0148 32.6484C52.0701 32.555 52.1805 32.5507 52.2394 32.4685C52.2983 32.3863 52.2732 32.2721 52.3235 32.1766C52.4166 31.9981 52.4714 31.8005 52.4841 31.598Z" fill="#0C321E"/>
<path d="M38.0665 27.2158C38.0574 27.3367 38.1232 27.4457 38.1674 27.5512C38.1674 27.5512 38.2326 27.3558 38.2391 27.3291C38.2618 27.2332 38.2784 27.1358 38.2886 27.0376C38.3198 26.7917 38.4386 26.7321 38.562 26.5424C38.6248 26.4478 38.6123 26.363 38.6287 26.2569C38.6481 26.1326 38.6949 26.0668 38.7694 25.9702C38.8283 25.8939 38.8949 25.823 38.9249 25.7284C38.96 25.6167 38.9304 25.507 38.9431 25.394C38.9696 25.1492 39.1584 25.0875 39.2548 24.8927C39.3511 24.6979 39.3021 24.5109 39.4465 24.3311C39.5909 24.1513 39.7535 24.0159 39.8865 23.8288C40.0451 23.6142 40.2179 23.4116 40.4036 23.2227C40.0891 23.5366 39.6792 23.7995 39.432 24.176C39.3189 24.3492 39.1821 24.5039 39.026 24.6348C38.8661 24.7731 38.7997 24.8645 38.7859 25.0756C38.7721 25.2867 38.661 25.4256 38.5553 25.5943C38.5004 25.6722 38.4623 25.7618 38.4439 25.8567C38.4269 25.9616 38.4478 26.0602 38.4022 26.1603C38.3203 26.3421 38.1308 26.4208 38.1461 26.6433C38.1543 26.7591 38.1801 26.8199 38.1481 26.937C38.1198 27.0296 38.0739 27.1167 38.0665 27.2158Z" fill="#0C321E"/>
<path d="M58.5094 19.0816C58.2872 19.165 58.0725 19.2695 57.8679 19.3938C57.7801 19.4471 57.7161 19.5445 57.6288 19.6018C57.6191 19.6085 57.3644 19.7391 57.3833 19.757C57.4628 19.8375 58.0335 19.5449 58.1102 19.4894C58.339 19.3249 58.5547 19.158 58.7986 19.011C58.7012 19.0294 58.6047 19.0529 58.5094 19.0816Z" fill="#0C321E"/>
<path d="M31.2427 31.1921C32.6198 28.2171 33.1484 25.4385 32.6433 22.3461C32.2894 20.1806 29.9155 17.0242 28.241 15.7005C24.9167 13.0725 20.1754 12.5866 16.6695 10.4883C13.0655 8.3316 11.8156 7.04719 9.97243 4.37098C9.58672 3.81109 7.87829 1.95012 7.76361 2.6301C6.2409 11.6795 1.08786 20.2727 5.65303 29.0971C6.12639 30.0116 6.21297 30.6958 7.04413 32.0118C7.87529 33.3278 10.4678 35.8556 11.2115 36.2359C15.8251 38.5962 22.1692 41.7684 28.9165 36.5267C31.2266 34.7316 29.8656 34.1671 31.2427 31.1921Z" fill="#DCEEC0"/>
<path d="M7.04056 0.562076C7.71462 -0.0229425 8.60909 0.624574 9.15175 1.08163C10.1056 1.8849 10.9033 2.89524 11.6905 3.87217C12.5067 4.88539 13.2966 5.92979 14.1971 6.86219C15.5597 8.27344 17.1336 9.29721 18.8487 10.1724C20.6063 11.0675 22.4341 11.7961 24.248 12.5522C25.822 13.2081 27.5068 13.8105 28.9045 14.8339C31.2278 16.5356 32.914 19.2457 33.7658 22.0697C34.212 23.5498 34.4453 25.1434 34.2483 26.6981C33.9942 28.6986 32.8038 30.212 31.8487 31.8999C32.3005 30.7578 32.9425 29.6624 33.246 28.4612C33.5426 27.2884 33.4162 26.0365 33.3029 24.8482C33.0691 22.3939 32.4975 19.8836 31.102 17.8683C30.3576 16.7957 29.3975 15.9106 28.2896 15.2753C26.859 14.4548 25.2667 14.0303 23.7383 13.4666C22.2171 12.9057 20.7825 12.113 19.3625 11.3189C18.0182 10.5672 16.6985 9.76476 15.4285 8.88171C12.6414 6.9445 10.1174 4.59737 8.13142 1.75707C8.04729 3.43561 7.34868 5.11959 6.78637 6.67395C6.05647 8.68539 5.22931 10.6746 4.6481 12.7407C4.20524 14.3161 3.95713 15.9136 3.7331 17.532C3.58899 18.5717 3.33347 19.5937 3.21569 20.6373C3.107 21.6026 3.28428 22.407 3.48862 23.3353C3.86187 25.0339 4.08732 26.7661 4.43681 28.4697C4.63836 29.451 4.84559 30.3796 5.3549 31.2382C5.8642 32.0968 6.53373 32.8234 7.23595 33.4983C8.81299 35.0146 10.5179 36.452 12.4314 37.4692C14.4439 38.5391 16.6562 39.1731 18.89 39.4928C21.1238 39.8126 23.4904 39.9211 25.698 39.3535C27.6055 38.863 29.3351 37.8573 31.0609 36.8971C29.5397 38.2776 28.1904 39.8237 26.1645 40.3008C24.4003 40.7167 22.5413 40.6808 20.7558 40.5139C18.6435 40.3134 16.5579 39.8876 14.5308 39.243C12.6307 38.6406 10.743 37.8519 9.08349 36.6966C8.40273 36.2222 7.75485 35.679 7.21533 35.031C6.61269 34.3065 6.26534 33.4043 5.67429 32.6707C5.24815 32.1408 4.67295 31.7535 4.30982 31.1679C3.76807 30.2938 3.5694 29.194 3.34179 28.1908C2.91482 26.3088 2.54876 24.4109 2.19485 22.5122C2.13782 22.1998 2.14408 21.8926 2.14104 21.5772C2.13296 20.5937 2.15578 19.6093 2.22252 18.6278C2.29877 17.5182 2.41141 16.3823 2.74538 15.319C3.19573 13.8774 3.78314 12.4803 4.32824 11.0761C4.89398 9.61963 5.43487 8.15665 5.83856 6.64082C6.05681 5.82406 6.24443 4.99505 6.41347 4.16405C6.55696 3.44869 6.74116 2.74467 6.67113 2.01223C6.61898 1.45359 6.58474 0.959311 7.04056 0.562076Z" fill="#0C321E"/>
<path d="M27.5418 34.8686C26.906 34.7272 26.2613 34.5912 25.6197 34.4982C24.9929 34.4076 24.3471 34.523 23.7089 34.4592C23.0342 34.3932 22.413 34.5128 21.7458 34.6153C21.1018 34.7146 20.4779 34.6687 19.8466 34.5176C19.1626 34.3536 18.539 34.215 17.8318 34.2531C17.1502 34.2894 16.4629 34.3674 15.7848 34.2532C15.0705 34.1329 14.3625 33.7995 13.6825 33.5489C13.0223 33.3049 12.3551 33.0808 11.733 32.7415C11.0482 32.3687 10.3299 31.98 9.70254 31.5092C9.38542 31.2665 9.08768 30.9971 8.81222 30.7034C8.72952 30.6169 8.10405 29.8368 8.09642 29.8384C8.18597 29.8187 8.65608 30.4103 8.73967 30.4911C9.01268 30.7567 9.29496 31.0112 9.58986 31.2492C10.1619 31.7207 10.7956 32.103 11.4718 32.3846C12.1707 32.6684 12.8469 32.9837 13.5353 33.2922C14.1888 33.5863 14.7686 33.6759 15.4737 33.6675C16.9161 33.6495 18.3426 33.8157 19.7871 33.7482C21.1936 33.6824 22.5434 34.1906 23.9439 34.1361C24.3108 34.123 24.6643 34.0649 25.031 34.1133C25.4113 34.1633 25.7645 34.3068 26.1323 34.3914C26.9683 34.5861 27.8152 34.7584 28.6504 34.9614C27.3113 34.0985 25.896 33.3729 24.4723 32.6782C23.7696 32.3356 23.0638 32.0011 22.3589 31.6653C22.0273 31.5065 21.6964 31.3468 21.3661 31.1862C20.9996 31.0068 20.5382 31.0094 20.1355 30.9592C19.3979 30.8677 18.6968 30.7942 17.9531 30.8402C17.2094 30.8862 16.5618 30.7012 15.8646 30.4712C15.1165 30.2236 14.3363 30.0943 13.5936 29.8314C12.8655 29.5737 12.2818 29.034 11.5979 28.6767C11.2308 28.4854 10.8439 28.3056 10.535 28.0159C10.2261 27.7262 9.96168 27.4033 9.63595 27.1307C9.02069 26.6157 8.51653 26.0524 8.25546 25.2538C8.25601 25.1532 8.41808 25.3905 8.41133 25.3816C8.50764 25.4847 8.57768 25.6325 8.66379 25.7479C8.84444 25.9853 9.03794 26.2114 9.24333 26.4252C9.64388 26.8483 10.043 27.2634 10.5487 27.5459C11.0697 27.835 11.4986 28.2126 11.9909 28.5463C12.4738 28.8713 13.0388 28.9641 13.5604 29.2009C14.098 29.4461 14.605 29.7578 15.1608 29.9588C15.6985 30.1535 16.2365 30.1851 16.7981 30.2394C17.3353 30.2912 17.849 30.4632 18.384 30.5209C18.9541 30.5825 19.5307 30.5224 20.1031 30.5517C18.8154 29.8799 17.5741 29.1359 16.4871 28.1377C16.2262 27.8978 15.974 27.648 15.7303 27.3884C15.6026 27.2524 15.4682 27.0376 15.3196 26.9328C15.1921 26.8438 15.0065 26.7922 14.8658 26.7263C14.5821 26.5934 14.2962 26.4458 13.9848 26.3994C13.7309 26.3618 13.4711 26.4002 13.2181 26.3521C12.6335 26.2453 12.2671 25.7376 11.8025 25.4076C11.501 25.1932 11.1519 25.0649 10.8248 24.9025C10.4773 24.73 10.1893 24.4939 9.87882 24.2634C9.59958 24.057 9.29045 23.9238 8.99739 23.7431C8.73599 23.5822 8.56157 23.3579 8.33598 23.1526C8.0864 22.9254 7.78643 22.7824 7.51234 22.5941C7.44114 22.5441 6.80078 21.8718 6.92747 21.8465C6.98843 21.8349 7.2631 22.0707 7.3218 22.1108C7.48736 22.2255 7.64685 22.3495 7.79958 22.4824C8.10938 22.7572 8.45105 22.9896 8.81656 23.1741C9.18964 23.3593 9.48004 23.6211 9.82096 23.8568C10.1358 24.0753 10.4979 24.1836 10.8288 24.3692C11.1598 24.5549 11.452 24.815 11.7739 25.0201C12.1247 25.2421 12.4939 25.34 12.892 25.4254C13.1665 25.4753 13.4264 25.5892 13.6529 25.7588C13.9793 25.9937 14.2939 26.0619 14.6763 26.1411C14.0267 25.2838 13.4452 24.3712 12.9376 23.4126C12.8987 23.3395 12.8525 23.1857 12.7917 23.1366C12.7199 23.0743 12.4814 23.0169 12.3951 22.978C12.163 22.8706 11.9413 22.7429 11.7099 22.636C11.2688 22.4327 10.8634 22.2694 10.4729 21.9605C10.0823 21.6516 9.68408 21.3738 9.27911 21.0874C8.86389 20.794 8.55121 20.3761 8.16325 20.0459C7.79432 19.7322 7.55444 19.36 7.25301 18.9817C7.11053 18.8138 6.98162 18.6336 6.8676 18.4429C6.83108 18.3818 6.62758 17.8843 6.61924 17.8845C6.72361 17.8867 7.10112 18.5342 7.17322 18.6379C7.32895 18.8615 7.46917 19.0812 7.66424 19.273C8.15036 19.7534 8.56689 20.2442 9.12997 20.627C9.69305 21.0097 10.1694 21.4533 10.7706 21.7785C11.0558 21.9371 11.3271 22.1217 11.5815 22.3302C11.894 22.5763 12.2359 22.6424 12.6017 22.7558C12.1755 21.8907 11.7939 21.0015 11.4586 20.0923C11.2806 19.6132 11.114 19.1295 10.9587 18.6412C10.8933 18.4286 10.8512 18.1803 10.7559 17.9815C10.6713 17.8043 10.5174 17.7219 10.3891 17.5779C10.2673 17.4415 10.2051 17.2548 10.0816 17.1231C9.92157 16.9509 9.6866 16.9215 9.52287 16.7534C9.38497 16.61 9.30844 16.4154 9.17059 16.2715C9.00247 16.0961 8.7862 15.9829 8.62094 15.8033C8.49494 15.667 8.41118 15.4991 8.30353 15.3477C8.17643 15.1699 7.99938 15.0364 7.90918 14.831C7.84761 14.6913 7.51864 13.6004 7.49458 13.5993C7.67547 13.6079 8.02955 14.5488 8.15076 14.7124C8.26314 14.8621 8.32504 15.0176 8.42202 15.1721C8.53887 15.3578 8.71646 15.465 8.87706 15.606C9.20621 15.8926 9.44749 16.1986 9.81358 16.4421C10.0203 16.579 10.0681 16.6595 10.1686 16.8711C10.2549 17.0541 10.4066 17.1675 10.5582 17.2911C10.3895 16.6788 10.2359 16.062 10.0974 15.4405C10.0289 15.135 9.96404 14.8285 9.90271 14.5209C9.85033 14.2572 9.72736 14.0055 9.69336 13.7561C9.6795 13.6534 9.70661 13.5985 9.66102 13.4967C9.61543 13.3948 9.50636 13.3545 9.45763 13.2554C9.3453 13.0209 9.34159 12.956 9.13238 12.7591C8.77339 12.4212 8.61985 11.9191 8.43018 11.4601C8.43696 11.6171 8.89264 12.0831 8.99629 12.2474C9.17255 12.5141 9.38298 12.7537 9.62166 12.9593C9.51212 12.2807 9.44994 11.6878 9.09487 11.0954C8.96446 10.8778 8.83723 10.6917 8.73599 10.4542C8.71204 10.3973 8.46381 9.72808 8.5089 9.73187C8.58137 9.74192 8.85743 10.3822 8.91799 10.4695C9.10366 10.7383 9.23757 11.0283 9.39013 11.3193C9.25441 10.2091 9.1613 9.08745 9.11948 7.96532C9.21163 8.67896 9.31228 9.39068 9.42142 10.1005C9.48182 9.90249 9.57524 9.71783 9.63966 9.52151C9.70408 9.32518 9.68511 9.12975 9.73081 8.93317C9.86223 9.44573 9.58258 10.0169 9.52027 10.5101C9.48548 10.7849 9.59215 11.1411 9.63923 11.4233C9.69988 11.7686 9.76323 12.1133 9.82927 12.4573C9.84234 12.3415 9.77557 12.2488 9.77716 12.1408C9.77953 11.9938 9.86029 11.9351 9.91339 11.8138C10.0228 11.5628 9.94342 11.3478 10.1117 11.1158C10.3624 10.7699 10.39 10.2431 10.4761 9.81911C10.4821 9.79676 10.5341 10.0055 10.5361 10.0312C10.546 10.1766 10.4979 10.2877 10.4841 10.4268C10.4573 10.7014 10.3759 10.9552 10.3755 11.2224C10.3765 11.4291 10.3155 11.4811 10.2406 11.6634C10.1814 11.8074 10.194 11.8994 10.1802 12.0539C10.1558 12.3441 9.93238 12.524 9.92274 12.8317C9.91234 13.193 10.0672 13.5911 10.1454 13.9431C10.2166 14.2704 10.2858 14.6024 10.3662 14.9287C10.5591 15.7185 10.7749 16.5013 11.0135 17.2771C11.0522 16.8764 10.8923 16.5289 10.9565 16.1224C11.0358 15.6201 10.8513 15.238 10.8589 14.7517C10.8732 13.8483 11.1704 12.9151 11.54 12.1023C11.5442 12.1021 11.5483 12.1029 11.5522 12.1045C11.5561 12.1061 11.5596 12.1085 11.5625 12.1117C11.4763 12.6064 11.3058 13.0689 11.2514 13.5667C11.2266 13.7928 11.1449 14.0162 11.1326 14.2411C11.1204 14.466 11.2103 14.6898 11.2299 14.9169C11.2495 15.1441 11.2168 15.3743 11.231 15.6023C11.2465 15.8589 11.3283 16.0992 11.3616 16.3525C11.3968 16.6223 11.2922 16.7757 11.2391 17.0266C11.1893 17.2611 11.2491 17.4867 11.2641 17.7192C11.3306 18.7463 11.8954 19.8267 12.3132 20.7523C12.7589 21.7507 13.2782 22.7101 13.8664 23.6217C13.7194 23.2252 13.6864 22.8255 13.6589 22.4048C13.628 21.9345 13.4313 21.5347 13.2851 21.0987C12.9859 20.1993 13.0431 19.1817 12.9352 18.2413C12.8804 17.7633 12.9164 17.2864 12.877 16.8084C12.8401 16.3657 12.7616 15.9319 12.7878 15.4822C12.8138 15.0449 12.8021 14.6044 12.8408 14.1681C12.8505 14.0538 13.1125 12.9198 13.2232 12.9656C13.2381 12.9717 12.9456 14.8292 12.9506 15.0327C12.9589 15.429 13.0421 15.817 13.0524 16.2139C13.0613 16.5689 13.0561 16.9228 13.1116 17.2738C13.2245 17.9914 13.3477 18.6562 13.3051 19.3906C13.2618 20.1381 13.6407 20.7097 13.7487 21.426C13.8611 22.1704 13.8153 22.8381 14.1029 23.5396C14.2409 23.8791 14.3271 24.2565 14.5244 24.5597C14.7218 24.8628 14.9774 25.1423 15.2132 25.414C16.2385 26.5965 17.3635 27.7122 18.584 28.6688C18.24 28.098 17.8233 27.5794 17.4913 27.0003C17.1538 26.4115 16.9981 25.7426 16.7201 25.1246C16.463 24.5518 16.1404 24.0143 16.0675 23.3704C15.9916 22.6977 16.0561 22.0197 15.9609 21.344C15.8756 20.7294 15.7176 20.106 15.852 19.4844C15.994 18.8261 16.0679 18.1998 16.1487 17.5315C16.231 16.8505 16.4991 16.2243 16.451 15.528C16.4022 14.8206 16.2493 14.1173 16.1382 13.4178C16.1201 13.5293 16.3299 13.9913 16.3695 14.1344C16.4705 14.4893 16.5642 14.851 16.5933 15.2222C16.6474 15.9115 16.5776 16.6819 16.5177 17.3695C16.461 18.0434 16.2847 18.6532 16.3715 19.3351C16.4619 20.0337 16.4558 20.6608 16.409 21.3654C16.362 22.0929 16.5055 22.719 16.7171 23.4026C16.9204 24.061 16.923 24.7676 17.1475 25.4124C17.3752 26.0675 17.7759 26.652 18.0645 27.2775C18.3356 27.8785 18.6769 28.441 19.0805 28.9519C19.5667 29.5642 20.4237 29.9637 21.0934 30.3269C21.8504 30.7373 22.635 31.0965 23.425 31.4359C23.0109 30.9901 22.6457 30.4834 22.2607 30.0097C21.8855 29.5478 21.5572 29.0679 21.3252 28.5078C21.1049 27.9772 20.9541 27.4177 20.7428 26.8835C20.5101 26.2926 20.203 25.7393 20.1055 25.1003C20.0159 24.5122 20.0931 23.9161 20.1596 23.3287C20.2289 22.7122 20.1878 22.0868 20.2677 21.4742C20.3475 20.8616 20.5908 20.287 20.5508 19.6638C20.5107 19.0407 20.3187 18.4308 20.2257 17.8181C20.1205 17.128 20.0058 16.5501 19.725 15.912C19.4441 15.2739 19.2279 14.6157 18.9718 13.9713C18.9761 14.1036 19.2757 14.4729 19.3594 14.6219C19.5561 14.9582 19.7317 15.3079 19.885 15.6687C20.1493 16.3243 20.379 17.0016 20.6337 17.663C20.9072 18.3735 20.9471 19.0234 20.9763 19.7801C21.0039 20.5063 21.1154 21.2268 20.9457 21.9462C20.7729 22.6788 20.5283 23.3176 20.6127 24.0877C20.6936 24.8246 20.9622 25.5236 21.0409 26.262C21.1172 26.984 21.3396 27.5684 21.694 28.189C22.0484 28.8095 22.3721 29.4477 22.7538 30.0406C22.9845 30.398 23.2645 30.6989 23.557 31C23.8059 31.2561 24.0422 31.6707 24.346 31.8219C25.1301 32.2123 25.9818 32.487 26.7861 32.8289C26.4061 32.3306 26.2364 31.7278 25.986 31.1538C25.7434 30.6011 25.4052 30.1107 25.2036 29.536C25.0001 28.9545 24.8576 28.3505 24.664 27.765C24.4733 27.189 24.2135 26.6581 24.2351 26.0297C24.2574 25.3885 24.5768 24.8347 24.6632 24.2091C24.7495 23.5834 24.6607 22.9408 24.6112 22.3112C24.5617 21.6816 24.6457 21.0438 24.562 20.4197C24.4789 19.789 24.2388 19.1957 24.1367 18.5682C23.924 17.2638 23.093 16.3016 22.6977 15.0742C22.688 15.1894 22.9772 15.5785 23.0548 15.7068C23.2556 16.0384 23.4704 16.3571 23.6433 16.7075C23.9681 17.3638 24.2868 18.0657 24.5547 18.7493C24.8061 19.3858 24.7841 20.0727 24.8973 20.7424C25.0166 21.4491 25.2511 22.0833 25.2324 22.8153C25.2136 23.5337 25.056 24.2483 25.0976 24.9678C25.1391 25.6873 25.1903 26.3416 25.0844 27.0602C24.9854 27.7428 25.224 28.2978 25.5303 28.8804C25.8376 29.457 26.06 30.08 26.1901 30.7283C26.3488 31.4814 26.738 32.2429 27.1456 32.8794C27.3374 33.1794 27.8467 33.3001 28.1667 33.4571C28.5448 33.6423 28.9177 33.8389 29.2798 34.0562C29.034 33.5368 28.8217 33.0003 28.6442 32.4503C28.4464 31.8302 28.4873 31.1413 28.4869 30.493C28.4865 29.3089 28.2548 28.0371 28.753 26.9226C28.988 26.3974 29.1671 25.9624 29.1571 25.3682C29.1471 24.7485 29.0142 24.1404 29.0026 23.5197C28.9915 22.9443 29.0712 22.3972 28.8431 21.8558C28.6123 21.3067 28.3333 20.795 28.1979 20.2056C28.0781 19.6839 27.8667 19.2411 27.6 18.7866C27.4684 18.5628 27.3273 18.3439 27.201 18.117C27.1695 18.0607 26.8702 17.5929 26.9079 17.521C26.9663 17.4111 27.639 18.2141 27.6799 18.2764C27.9933 18.7502 28.1237 19.3304 28.4031 19.8259C28.6787 20.3141 28.9659 20.7524 29.1267 21.3017C29.3035 21.9042 29.3985 22.5271 29.6574 23.0996C30.159 24.2077 29.7303 25.2388 29.7105 26.4006C29.7009 26.9501 29.8074 27.4425 29.6654 27.9861C29.5 28.6205 28.963 29.1068 28.8992 29.7611C28.8467 30.3009 29.0499 30.8164 29.139 31.3373C29.2404 31.9299 29.053 32.5036 29.2097 33.1014C29.3358 33.5836 29.6366 34.0537 29.9413 34.4323C30.3237 34.9075 30.9627 35.25 31.4379 35.6319C32.372 36.3826 33.2726 37.1853 34.0886 38.0776C35.6603 39.7961 36.6539 41.7754 37.2248 44.0862C37.4994 45.2163 37.6981 46.3662 37.8193 47.5272C37.8499 47.8115 37.7483 48.0047 37.4552 48.0969C37.3516 48.1295 36.8829 48.1205 36.8127 48.0539C36.707 47.9536 36.6658 47.4873 36.6233 47.3347C36.5488 47.0586 36.4709 46.7837 36.3898 46.5103C35.721 44.2272 34.7569 42.0547 33.5245 40.0538C32.8197 38.9155 32.0659 37.7835 31.112 36.862C30.6135 36.3859 30.0836 35.9477 29.5261 35.5507C28.9708 35.1598 28.1975 35.0174 27.5418 34.8686Z" fill="#0C321E"/>
<path d="M6.17136 14.9809C6.29231 14.5731 6.44547 14.1983 6.49235 13.7698C6.53924 13.3412 6.55609 12.918 6.61974 12.4931C6.68024 12.1045 6.70109 11.7107 6.68192 11.3182C6.65922 10.8552 6.81823 10.4901 6.93284 10.0536C6.79555 10.4131 6.963 10.9876 6.92498 11.39C6.87358 11.9417 6.95681 12.4973 6.86904 13.0455C6.77845 13.6273 6.58306 14.1721 6.5643 14.7665C6.54463 15.3917 6.53975 15.8558 6.13437 16.3566C5.74077 16.8413 5.59638 17.2406 5.55627 17.8758C5.51769 18.4879 5.41358 19.0769 5.39625 19.6939C5.3791 20.2841 5.09504 20.7986 5.04133 21.3826C4.99444 21.9004 4.95617 22.4791 5.15522 22.9653C4.97886 22.8037 4.88233 22.327 4.84809 22.0903C4.80102 21.7584 4.87099 21.4465 4.92462 21.121C4.98783 20.736 4.98005 20.3432 5.05639 19.9607C5.12756 19.6098 5.21747 19.2837 5.20715 18.9211C5.19779 18.6065 5.1079 18.3132 5.12632 17.9953C5.14715 17.661 5.23306 17.3343 5.37869 17.0354C5.54331 16.6928 5.77932 16.3879 5.92524 16.0349C6.06663 15.696 6.06837 15.3287 6.17136 14.9809Z" fill="#0C321E"/>
<path d="M8.11509 5.60116C8.11105 6.66933 7.70721 7.70167 7.41437 8.70686C7.58936 7.65176 7.68953 6.58464 8.11509 5.60116Z" fill="#0C321E"/>
<path d="M23.8351 38.2727C24.2435 38.3258 24.6558 38.3428 25.0676 38.3236C25.2647 38.3121 25.8984 38.3017 26.0184 38.1768C25.3997 38.465 24.802 38.4591 24.1453 38.3823C23.5542 38.3132 22.9657 38.327 22.373 38.2868C21.7448 38.2419 21.1251 38.2944 20.499 38.2804C19.8283 38.2649 19.1688 38.1074 18.5031 38.0387C17.8964 37.9762 17.321 38.0082 16.7292 37.8327C16.1439 37.6591 15.5693 37.4341 14.9906 37.2369C14.3665 37.0244 13.8722 36.6663 13.3192 36.3077C13.1715 36.2114 11.6407 35.2347 11.6553 35.2188C11.7276 35.137 12.9172 35.8269 13.034 35.8943C13.5229 36.1789 14.048 36.3444 14.5446 36.606C15.0412 36.8675 15.509 37.2295 16.0761 37.3268C16.556 37.4112 17.0462 37.3227 17.5194 37.461C18.0317 37.6109 18.5236 37.7652 19.0562 37.8219C19.58 37.8792 20.1059 37.897 20.6264 37.9733C21.1379 38.0484 21.635 38.1114 22.1529 38.1097C22.7286 38.1102 23.2649 38.2067 23.8351 38.2727Z" fill="#0C321E"/>
<path d="M21.3769 37.2576C20.9656 37.2898 20.4483 37.1795 20.0552 37.0647C19.6187 36.94 19.1981 36.9526 18.7579 36.8676C18.5262 36.8235 18.3191 36.7055 18.0939 36.6395C17.8442 36.5666 17.5832 36.5556 17.3329 36.4805C16.8478 36.3347 16.3691 36.1415 15.887 35.9805C16.4407 36.1128 17.0369 36.1761 17.5769 36.3424C17.8591 36.4345 18.151 36.4905 18.4464 36.5092C18.783 36.5296 19.0781 36.6858 19.4087 36.7321C19.7125 36.7748 19.9925 36.7645 20.2867 36.8723C20.616 36.9936 20.8318 37.0228 21.176 37.0267C21.4528 37.0297 21.7191 37.053 21.9978 37.043C22.1424 37.0337 22.2875 37.0387 22.431 37.0579C22.5202 37.072 22.719 37.1644 22.7939 37.1504C22.3119 37.1218 21.8495 37.2209 21.3769 37.2576Z" fill="#0C321E"/>
<path d="M12.6407 7.89478C12.2568 7.5069 11.9445 7.09955 11.6292 6.64844C11.6861 6.83256 12.1514 7.16443 12.302 7.32039C12.5926 7.61998 12.8757 7.92862 13.1756 8.21624C13.7119 8.72946 14.3403 9.09307 14.8871 9.58519C15.4483 10.09 16.0463 10.4383 16.7095 10.7696C17.0389 10.934 17.3159 11.1723 17.6366 11.3509C17.9363 11.5176 18.2336 11.6824 18.5287 11.8589C19.1898 12.2551 19.9424 12.4393 20.6355 12.767C21.3009 13.0801 21.983 13.353 22.6783 13.5846C23.3541 13.8115 23.9912 14.1851 24.5889 14.5826C24.7467 14.6868 26.1909 15.9261 26.2158 15.9022C26.1655 15.9507 25.5301 15.507 25.4436 15.4496C25.1639 15.2643 24.9087 15.0499 24.6474 14.838C24.094 14.3889 23.5374 14.2414 22.8888 14.0044C22.2401 13.7675 21.6425 13.468 20.984 13.264C20.2792 13.0461 19.6909 12.7351 19.0522 12.3605C18.4849 12.0279 17.8732 11.7431 17.2899 11.4413C16.6979 11.1357 16.2153 10.7672 15.6674 10.3818C15.1336 10.0072 14.538 9.7189 14.0676 9.2543C13.5973 8.7897 13.104 8.36449 12.6407 7.89478Z" fill="#0C321E"/>
<path d="M13.2083 9.27197C13.5287 9.51298 13.8894 9.77188 14.1692 10.0605C14.3516 10.2485 14.4745 10.3028 14.7004 10.4154C14.8835 10.5073 14.9854 10.6719 15.1381 10.8039C15.3157 10.9555 15.5453 11.0034 15.7309 11.1399C15.8976 11.2625 16.0497 11.3909 16.2179 11.5105C16.2808 11.5554 17.0218 12.3192 17.0455 12.2952C16.9456 12.3976 16.0171 11.7037 15.929 11.622C15.7941 11.4973 15.7036 11.4492 15.5432 11.3557C15.3363 11.235 15.2012 11.0193 14.989 10.9017C14.8161 10.808 14.6295 10.7976 14.4782 10.6556C14.401 10.5832 14.3683 10.4767 14.2945 10.4024C14.1917 10.2975 14.053 10.2581 13.9341 10.1809C13.647 9.99367 13.3003 9.56893 13.2083 9.27197Z" fill="#0C321E"/>
<path d="M6.00659 28.6494C6.21925 29.0431 6.37444 29.4465 6.56376 29.8452C6.63173 29.9881 6.80419 30.0523 6.85906 30.1874C6.91978 30.3371 6.81387 30.4473 6.89211 30.5968C6.95341 30.7149 7.11805 30.7533 7.17608 30.8756C7.21157 30.9489 7.17789 31.0225 7.20784 31.0923C7.25099 31.1935 7.31764 31.2132 7.38438 31.2865C7.49892 31.4104 7.56111 31.5576 7.66833 31.6844C7.76308 31.787 7.84877 31.8985 7.9244 32.0176C7.90526 31.9826 7.62471 31.886 7.5765 31.845C7.43342 31.7235 7.22398 31.5789 7.10158 31.4394C6.97918 31.2999 6.93267 31.1694 6.78124 31.0432C6.60446 30.8965 6.63034 30.8068 6.55121 30.6085C6.47986 30.4267 6.2868 30.3942 6.20772 30.235C6.13117 30.0853 6.20069 29.8828 6.13844 29.7018C6.0218 29.3661 5.97678 29.0068 6.00659 28.6494Z" fill="#0C321E"/>
<path d="M32.4239 24.7252C32.4059 24.939 32.2633 25.1134 32.158 25.2865C32.158 25.2865 32.0957 24.9274 32.0909 24.88C32.0768 24.7061 32.0737 24.5312 32.0816 24.3566C32.0923 23.918 31.9004 23.7823 31.7344 23.418C31.6507 23.2351 31.6945 23.0911 31.6946 22.9008C31.6934 22.6783 31.6291 22.5507 31.5242 22.3621C31.4413 22.2128 31.3435 22.0736 31.3162 21.8976C31.2847 21.6932 31.3654 21.5062 31.3738 21.3078C31.3919 20.8698 31.0775 20.7141 30.9607 20.35C30.8439 19.9859 30.9793 19.6686 30.7744 19.316C30.5695 18.9634 30.3198 18.6839 30.1369 18.3222C29.9226 17.8984 29.6611 17.5116 29.3923 17.126C29.8603 17.7574 30.5079 18.3248 30.8409 19.0499C30.9926 19.3817 31.1906 19.6874 31.4282 19.9569C31.6718 20.2411 31.7643 20.4185 31.7329 20.7921C31.7015 21.1657 31.8586 21.4374 31.9989 21.7604C32.0687 21.9209 32.1229 22.0688 32.1244 22.2482C32.1261 22.4369 32.0632 22.6044 32.1162 22.7917C32.2129 23.1282 32.5227 23.3182 32.4365 23.7039C32.3913 23.9044 32.3305 24.0026 32.3591 24.2173C32.38 24.3852 32.437 24.55 32.4239 24.7252Z" fill="#0C321E"/>
<path d="M9.11542 4.15656C9.4099 4.43184 9.67971 4.73509 9.92149 5.06256C10.0246 5.20309 10.0651 5.39594 10.1652 5.54238C10.1763 5.55913 10.4926 5.92901 10.4526 5.94411C10.2798 6.01748 9.571 5.18823 9.48625 5.05188C9.2321 4.64634 8.99844 4.24474 8.70947 3.85693C8.84439 3.95663 8.98965 4.04225 9.11542 4.15656Z" fill="#0C321E"/>
</svg>
