<svg width="41" height="40" viewBox="0 0 41 40" fill="none" xmlns="http://www.w3.org/2000/svg">
<path d="M21.5333 34.6837C20.9666 34.8837 20.0333 34.8837 19.4666 34.6837C14.6333 33.0337 3.83325 26.1503 3.83325 14.4837C3.83325 9.33366 7.98325 5.16699 13.0999 5.16699C16.1333 5.16699 18.8166 6.63366 20.4999 8.90033C22.1833 6.63366 24.8833 5.16699 27.8999 5.16699C33.0166 5.16699 37.1666 9.33366 37.1666 14.4837C37.1666 26.1503 26.3666 33.0337 21.5333 34.6837Z" stroke="#00874A" stroke-width="2" stroke-linecap="round" stroke-linejoin="round"/>
<path opacity="0.4" d="M20.7297 23.267L23.3565 24.9313C23.6923 25.144 24.1092 24.8276 24.0095 24.4356L23.2506 21.4501C23.2292 21.367 23.2317 21.2795 23.2579 21.1977C23.284 21.1159 23.3327 21.0432 23.3984 20.9878L25.754 19.0272C26.0635 18.7696 25.9037 18.2559 25.5061 18.2301L22.4298 18.0305C22.347 18.0246 22.2675 17.9952 22.2007 17.9459C22.1338 17.8965 22.0824 17.8292 22.0523 17.7518L20.905 14.8626C20.8738 14.7804 20.8184 14.7096 20.746 14.6597C20.6737 14.6098 20.5878 14.583 20.4999 14.583C20.412 14.583 20.3262 14.6098 20.2538 14.6597C20.1815 14.7096 20.126 14.7804 20.0948 14.8626L18.9475 17.7518C18.9175 17.8292 18.866 17.8965 18.7992 17.9459C18.7324 17.9952 18.6529 18.0246 18.57 18.0305L15.4938 18.2301C15.0961 18.2559 14.9364 18.7696 15.2459 19.0272L17.6015 20.9878C17.6671 21.0432 17.7158 21.1159 17.742 21.1977C17.7681 21.2795 17.7706 21.367 17.7493 21.4501L17.0454 24.2189C16.9258 24.6892 17.4261 25.0689 17.829 24.8136L20.2702 23.267C20.3388 23.2233 20.4185 23.2001 20.4999 23.2001C20.5813 23.2001 20.661 23.2233 20.7297 23.267V23.267Z" stroke="#00874A" stroke-width="2" stroke-linecap="round" stroke-linejoin="round"/>
</svg>
