<svg width="16" height="17" viewBox="0 0 16 17" fill="none" xmlns="http://www.w3.org/2000/svg">
<rect y="0.5" width="16" height="16" rx="6" fill="url(#paint0_linear_889_1134)"/>
<path d="M7.99884 3.57316C9.60416 3.57316 9.79426 3.5802 10.4256 3.60836C11.0123 3.63418 11.3292 3.73275 11.5404 3.81489C11.8197 3.92285 12.0215 4.05428 12.2304 4.26316C12.4416 4.47439 12.5707 4.67388 12.6787 4.95317C12.7608 5.16439 12.8594 5.48358 12.8852 6.06797C12.9134 6.70165 12.9204 6.89175 12.9204 8.49472C12.9204 10.1 12.9134 10.2901 12.8852 10.9215C12.8594 11.5082 12.7608 11.8251 12.6787 12.0363C12.5707 12.3156 12.4393 12.5174 12.2304 12.7263C12.0192 12.9375 11.8197 13.0666 11.5404 13.1746C11.3292 13.2567 11.01 13.3553 10.4256 13.3811C9.79191 13.4092 9.60181 13.4163 7.99884 13.4163C6.39352 13.4163 6.20342 13.4092 5.57209 13.3811C4.98535 13.3553 4.66851 13.2567 4.45728 13.1746C4.17799 13.0666 3.97616 12.9352 3.76728 12.7263C3.55605 12.5151 3.42697 12.3156 3.31901 12.0363C3.23686 11.8251 3.13829 11.5059 3.11248 10.9215C3.08431 10.2878 3.07727 10.0977 3.07727 8.49472C3.07727 6.88941 3.08431 6.6993 3.11248 6.06797C3.13829 5.48123 3.23686 5.16439 3.31901 4.95317C3.42697 4.67388 3.5584 4.47204 3.76728 4.26316C3.9785 4.05194 4.17799 3.92285 4.45728 3.81489C4.66851 3.73275 4.98769 3.63418 5.57209 3.60836C6.20342 3.5802 6.39352 3.57316 7.99884 3.57316ZM7.99884 2.49121C6.3677 2.49121 6.16352 2.49825 5.5228 2.52642C4.88443 2.55458 4.44555 2.65784 4.06534 2.8057C3.6687 2.9606 3.33309 3.16479 2.99982 3.5004C2.66421 3.83367 2.46002 4.16928 2.30512 4.56357C2.15726 4.94613 2.054 5.38266 2.02584 6.02103C1.99767 6.6641 1.99063 6.86828 1.99063 8.49942C1.99063 10.1306 1.99767 10.3347 2.02584 10.9755C2.054 11.6138 2.15726 12.0527 2.30512 12.4329C2.46002 12.8296 2.66421 13.1652 2.99982 13.4984C3.33309 13.8317 3.6687 14.0382 4.06299 14.1908C4.44555 14.3386 4.88208 14.4419 5.52045 14.4701C6.16117 14.4982 6.36536 14.5053 7.99649 14.5053C9.62762 14.5053 9.83181 14.4982 10.4725 14.4701C11.1109 14.4419 11.5498 14.3386 11.93 14.1908C12.3243 14.0382 12.6599 13.8317 12.9932 13.4984C13.3264 13.1652 13.533 12.8296 13.6855 12.4353C13.8334 12.0527 13.9366 11.6162 13.9648 10.9778C13.993 10.3371 14 10.1329 14 8.50176C14 6.87063 13.993 6.66645 13.9648 6.02573C13.9366 5.38735 13.8334 4.94847 13.6855 4.56827C13.5377 4.16928 13.3335 3.83367 12.9979 3.5004C12.6646 3.16713 12.329 2.9606 11.9347 2.80805C11.5521 2.66019 11.1156 2.55693 10.4772 2.52876C9.83416 2.49825 9.62997 2.49121 7.99884 2.49121Z" fill="white"/>
<path d="M7.99884 5.41309C6.29495 5.41309 4.9126 6.79544 4.9126 8.49933C4.9126 10.2032 6.29495 11.5856 7.99884 11.5856C9.70273 11.5856 11.0851 10.2032 11.0851 8.49933C11.0851 6.79544 9.70273 5.41309 7.99884 5.41309ZM7.99884 10.5013C6.89343 10.5013 5.99689 9.60475 5.99689 8.49933C5.99689 7.39392 6.89343 6.49738 7.99884 6.49738C9.10426 6.49738 10.0008 7.39392 10.0008 8.49933C10.0008 9.60475 9.10426 10.5013 7.99884 10.5013Z" fill="white"/>
<path d="M11.9276 5.29132C11.9276 5.6903 11.6038 6.01183 11.2071 6.01183C10.8082 6.01183 10.4866 5.68795 10.4866 5.29132C10.4866 4.89233 10.8105 4.5708 11.2071 4.5708C11.6038 4.5708 11.9276 4.89468 11.9276 5.29132Z" fill="white"/>
<defs>
<linearGradient id="paint0_linear_889_1134" x1="8" y1="0.5" x2="8" y2="16.5" gradientUnits="userSpaceOnUse">
<stop stop-color="#2615DF"/>
<stop offset="0.317708" stop-color="#9019A4"/>
<stop offset="0.723958" stop-color="#EC4B19"/>
<stop offset="1" stop-color="#FF9900"/>
</linearGradient>
</defs>
</svg>
