<svg width="33" height="32" viewBox="0 0 33 32" fill="none" xmlns="http://www.w3.org/2000/svg">
<path opacity="0.4" d="M15.1933 26H10.4999C9.67325 26 8.93992 25.9733 8.28659 25.88C4.77992 25.4933 3.83325 23.84 3.83325 19.3333V12.6667C3.83325 8.16 4.77992 6.50667 8.28659 6.12C8.93992 6.02667 9.67325 6 10.4999 6H15.1133" stroke="white" stroke-width="2" stroke-linecap="round" stroke-linejoin="round"/>
<path d="M20.5266 6H22.4999C23.3266 6 24.0599 6.02667 24.7133 6.12C28.2199 6.50667 29.1666 8.16 29.1666 12.6667V19.3333C29.1666 23.84 28.2199 25.4933 24.7133 25.88C24.0599 25.9733 23.3266 26 22.4999 26H20.5266" stroke="white" stroke-width="2" stroke-linecap="round" stroke-linejoin="round"/>
<path d="M20.5 2.66675V29.3334" stroke="white" stroke-width="2" stroke-linecap="round" stroke-linejoin="round"/>
<path opacity="0.4" d="M11.1667 11.3333V20.6666" stroke="white" stroke-width="2" stroke-linecap="round" stroke-linejoin="round"/>
</svg>
