<svg width="33" height="32" viewBox="0 0 33 32" fill="none" xmlns="http://www.w3.org/2000/svg">
<path opacity="0.4" d="M24.1633 9.54675C24.0833 9.53342 23.9899 9.53342 23.9099 9.54675C22.0699 9.48009 20.6033 7.97342 20.6033 6.10675C20.6033 4.20008 22.1366 2.66675 24.0433 2.66675C25.9499 2.66675 27.4833 4.21342 27.4833 6.10675C27.4699 7.97342 26.0033 9.48009 24.1633 9.54675Z" stroke="#EFF5EC" stroke-width="2" stroke-linecap="round" stroke-linejoin="round"/>
<path opacity="0.4" d="M22.7898 19.2534C24.6164 19.5601 26.6298 19.2401 28.0431 18.2934C29.9231 17.0401 29.9231 14.9867 28.0431 13.7334C26.6164 12.7867 24.5764 12.4667 22.7498 12.7867" stroke="#EFF5EC" stroke-width="2" stroke-linecap="round" stroke-linejoin="round"/>
<path opacity="0.4" d="M8.12322 9.54675C8.20322 9.53342 8.29656 9.53342 8.37656 9.54675C10.2166 9.48009 11.6832 7.97342 11.6832 6.10675C11.6832 4.20008 10.1499 2.66675 8.24322 2.66675C6.33656 2.66675 4.80322 4.21342 4.80322 6.10675C4.81656 7.97342 6.28322 9.48009 8.12322 9.54675Z" stroke="#EFF5EC" stroke-width="2" stroke-linecap="round" stroke-linejoin="round"/>
<path opacity="0.4" d="M9.49658 19.2534C7.66992 19.5601 5.65659 19.2401 4.24325 18.2934C2.36325 17.0401 2.36325 14.9867 4.24325 13.7334C5.66992 12.7867 7.70991 12.4667 9.53658 12.7867" stroke="#EFF5EC" stroke-width="2" stroke-linecap="round" stroke-linejoin="round"/>
<path d="M16.1664 19.5067C16.0864 19.4934 15.9931 19.4934 15.9131 19.5067C14.0731 19.44 12.6064 17.9334 12.6064 16.0667C12.6064 14.16 14.1398 12.6267 16.0464 12.6267C17.9531 12.6267 19.4864 14.1734 19.4864 16.0667C19.4731 17.9334 18.0064 19.4534 16.1664 19.5067Z" stroke="#EFF5EC" stroke-width="2" stroke-linecap="round" stroke-linejoin="round"/>
<path d="M12.2865 23.7067C10.4065 24.9601 10.4065 27.0134 12.2865 28.2667C14.4198 29.6934 17.9131 29.6934 20.0465 28.2667C21.9265 27.0134 21.9265 24.9601 20.0465 23.7067C17.9265 22.2934 14.4198 22.2934 12.2865 23.7067Z" stroke="#EFF5EC" stroke-width="2" stroke-linecap="round" stroke-linejoin="round"/>
</svg>
