<svg width="29" height="35" viewBox="0 0 29 35" fill="none" xmlns="http://www.w3.org/2000/svg">
<g clip-path="url(#clip0_948_2522)">
<path d="M8.56054 16.1383C13.0635 16.1383 16.7138 12.5256 16.7138 8.06917C16.7138 3.61269 13.0635 0 8.56054 0C4.05759 0 0.407227 3.61269 0.407227 8.06917C0.407227 12.5256 4.05759 16.1383 8.56054 16.1383Z" fill="#DCEEC0"/>
<path d="M21.885 33.958L14.2747 26.4267L18.9061 21.8437C19.6963 21.0618 20.7679 20.6226 21.8853 20.6226C23.0027 20.6226 24.0743 21.0618 24.8645 21.8437L26.518 23.4801C27.308 24.2621 27.7518 25.3227 27.7518 26.4286C27.7518 27.5344 27.308 28.595 26.518 29.377L21.885 33.958ZM15.1036 26.4267L21.885 33.1382L26.1014 28.9679C26.4383 28.6346 26.7056 28.2388 26.8879 27.8032C27.0702 27.3677 27.1641 26.9008 27.1641 26.4293C27.1641 25.9579 27.0702 25.491 26.8879 25.0554C26.7056 24.6199 26.4383 24.2241 26.1014 23.8908L24.4479 22.2543C24.1111 21.9209 23.7112 21.6564 23.2711 21.476C22.831 21.2955 22.3593 21.2026 21.8829 21.2026C21.4065 21.2026 20.9348 21.2955 20.4946 21.476C20.0545 21.6564 19.6546 21.9209 19.3178 22.2543L15.1036 26.4267Z" fill="#00874A"/>
<path d="M20.2424 31.7931L17.416 34.5903L17.8301 35.0002L20.6566 32.2029L20.2424 31.7931Z" fill="#00874A"/>
<path d="M15.866 27.823L13.2217 30.4399L13.6358 30.8498L16.2801 28.2328L15.866 27.823Z" fill="#00874A"/>
<path d="M5.62532 25.5842C4.54529 25.5841 3.48955 25.2671 2.59157 24.6732C1.69358 24.0793 0.993686 23.2353 0.580359 22.2478C0.167033 21.2603 0.0588423 20.1736 0.269457 19.1253C0.480073 18.0769 1.00004 17.1139 1.76362 16.358L11.3965 6.82446L11.811 7.23463L2.17806 16.7676C1.26379 17.6724 0.750154 18.8997 0.750154 20.1793C0.750154 21.4589 1.26379 22.6861 2.17806 23.591C3.09233 24.4958 4.33235 25.0041 5.62532 25.0041C6.91829 25.0041 8.15832 24.4958 9.07259 23.591L18.4575 14.3035C18.9857 13.7802 19.6128 13.3651 20.3032 13.0818C20.9935 12.7985 21.7335 12.6526 22.4808 12.6524C23.2282 12.6522 23.9682 12.7978 24.6587 13.0807C25.3492 13.3637 25.9766 13.7785 26.505 14.3015C27.0335 14.8245 27.4527 15.4454 27.7386 16.1288C28.0245 16.8121 28.1715 17.5445 28.1713 18.2842C28.1711 19.0238 28.0237 19.7561 27.7375 20.4393C27.4512 21.1226 27.0318 21.7433 26.503 22.266L25.6902 23.071L25.2763 22.6608L26.0891 21.8564C27.0313 20.906 27.5563 19.626 27.5499 18.2947C27.5435 16.9633 27.0063 15.6883 26.055 14.7468C25.1038 13.8054 23.8155 13.2737 22.4702 13.2674C21.125 13.2611 19.8316 13.7806 18.8714 14.7131L9.48703 24.0011C8.98108 24.5046 8.37926 24.9038 7.7164 25.1755C7.05354 25.4472 6.3428 25.5862 5.62532 25.5842Z" fill="#00874A"/>
<path d="M4.67003 17.3557C3.65222 17.3552 2.64026 17.2033 1.66814 16.9049L1.52039 16.8595L1.47506 16.7132C0.927618 14.9757 0.87133 13.123 1.31232 11.356C1.7533 9.58906 2.67472 7.97533 3.97663 6.68986C5.27561 5.40154 6.90616 4.48973 8.69151 4.0533C10.4769 3.61688 12.3488 3.67249 14.1045 4.21411L14.2523 4.25951L14.2981 4.40573C14.7666 5.89968 14.8741 7.48165 14.6118 9.02422C14.3495 10.5668 13.7248 12.0268 12.7881 13.2868C11.8514 14.5467 10.6287 15.5713 9.21869 16.278C7.80865 16.9848 6.25059 17.3539 4.67003 17.3557ZM1.98978 16.3949C3.62663 16.8694 5.36234 16.8991 7.01482 16.4811C8.66731 16.0631 10.1757 15.2127 11.3817 14.0191C12.5878 12.8255 13.4471 11.3327 13.8694 9.69723C14.2918 8.06179 14.2618 6.34401 13.7824 4.72404C12.1457 4.24751 10.4095 4.21665 8.75667 4.63471C7.10381 5.05276 5.59547 5.90426 4.39054 7.0995C3.18293 8.29215 2.3227 9.78507 1.90047 11.421C1.47824 13.0569 1.50964 14.7752 1.99138 16.3949H1.98978Z" fill="#00874A"/>
<path d="M4.3436 9.78149H4.14838V14.4728H4.3436V9.78149Z" fill="#00874A"/>
<path d="M10.1047 12.356H6.28672V12.5492H10.1047V12.356Z" fill="#00874A"/>
<path d="M8.22771 6.91479H8.03249V10.2378H8.22771V6.91479Z" fill="#00874A"/>
<path d="M17.6824 26.3294L17.5444 26.4661L21.9119 30.7885L22.0499 30.6519L17.6824 26.3294Z" fill="#00874A"/>
<path d="M18.9279 25.0931L18.7898 25.2297L23.1573 29.5522L23.2954 29.4155L18.9279 25.0931Z" fill="#00874A"/>
<path d="M20.1966 23.8307L20.0586 23.9673L24.4261 28.2897L24.5641 28.1531L20.1966 23.8307Z" fill="#00874A"/>
</g>
<defs>
<clipPath id="clip0_948_2522">
<rect width="28" height="35" fill="white" transform="translate(0.166672)"/>
</clipPath>
</defs>
</svg>
