<svg width="30" height="30" viewBox="0 0 20 20" fill="none" xmlns="http://www.w3.org/2000/svg">
<path d="M4.57627 8.75711C6.79409 8.75711 8.59199 6.93919 8.59199 4.69667C8.59199 2.45415 6.79409 0.63623 4.57627 0.63623C2.35845 0.63623 0.560547 2.45415 0.560547 4.69667C0.560547 6.93919 2.35845 8.75711 4.57627 8.75711Z" fill="#DCEEC0"/>
<path d="M4.16956 3.88916H4.04077V10.9391H4.16956V3.88916Z" fill="#00384F"/>
<path d="M3.16344 6.60964C2.77484 6.60914 2.401 6.45905 2.11792 6.18987C1.83483 5.92068 1.66374 5.5526 1.63942 5.16045L1.63379 5.06615L1.70417 5.00283C1.91662 4.8074 2.17962 4.67704 2.46253 4.62696C2.74544 4.57688 3.0366 4.60913 3.30208 4.71996C3.56826 4.82886 3.79836 5.01199 3.96557 5.24803C4.13279 5.48406 4.23022 5.76329 4.24653 6.05316L4.25253 6.14781L4.18215 6.21078C3.90317 6.46675 3.54015 6.60888 3.16344 6.60964ZM2.03529 5.23196C2.06362 5.43018 2.14268 5.61747 2.26462 5.77529C2.38657 5.9331 2.54717 6.05597 2.73052 6.13172C2.91388 6.20747 3.11362 6.23347 3.30997 6.20714C3.50632 6.18082 3.69247 6.10309 3.84997 5.98165C3.82235 5.78316 3.74356 5.5955 3.62151 5.43755C3.49945 5.2796 3.33844 5.15692 3.15464 5.08182C2.97146 5.00524 2.77156 4.97879 2.57506 5.00515C2.37856 5.03151 2.19239 5.10974 2.03529 5.23196Z" fill="#00384F"/>
<path d="M5.23455 6.70283C4.77896 6.70183 4.33949 6.53223 3.99909 6.22605L3.92871 6.16343L3.93363 6.06914C3.95166 5.71398 4.0685 5.37118 4.2707 5.0802C4.4729 4.78921 4.75224 4.56187 5.07658 4.42432C5.40093 4.28678 5.75707 4.24462 6.10406 4.30271C6.45105 4.36079 6.77478 4.51677 7.03797 4.75267L7.10835 4.81493L7.10342 4.90957C7.08676 5.26515 6.97052 5.60862 6.76823 5.89997C6.56594 6.19132 6.28595 6.41854 5.96085 6.55517C5.73087 6.65274 5.48395 6.70294 5.23455 6.70283ZM4.32774 5.99406C4.53487 6.15826 4.78173 6.26335 5.04263 6.29839C5.30354 6.33343 5.56896 6.29715 5.8113 6.19332C6.05427 6.09121 6.26574 5.92515 6.42373 5.7124C6.58172 5.49965 6.68045 5.24799 6.70966 4.98358C6.50212 4.82019 6.2553 4.71562 5.99456 4.6806C5.73382 4.64559 5.46857 4.6814 5.22605 4.78436C4.98353 4.88731 4.77249 5.0537 4.61461 5.26643C4.45674 5.47916 4.35772 5.73055 4.32774 5.99478V5.99406Z" fill="#00384F"/>
<path d="M4.10506 4.18259C3.90741 4.18259 3.7142 4.12333 3.54985 4.01229C3.38551 3.90126 3.25742 3.74345 3.18178 3.55881C3.10614 3.37416 3.08636 3.17098 3.12492 2.97497C3.16348 2.77895 3.25866 2.5989 3.39842 2.45758C3.53818 2.31627 3.71625 2.22003 3.91011 2.18104C4.10396 2.14205 4.30489 2.16206 4.4875 2.23854C4.6701 2.31502 4.82619 2.44454 4.936 2.61071C5.04581 2.77689 5.10443 2.97225 5.10443 3.1721C5.10415 3.44001 4.99876 3.69688 4.81141 3.88632C4.62405 4.07576 4.37002 4.18231 4.10506 4.18259ZM4.10506 2.55265C3.98381 2.55265 3.86528 2.58901 3.76447 2.65713C3.66366 2.72526 3.58509 2.82208 3.53871 2.93536C3.49232 3.04863 3.48021 3.17328 3.50389 3.29352C3.52757 3.41376 3.58599 3.5242 3.67175 3.61087C3.75751 3.69753 3.86677 3.75654 3.9857 3.78041C4.10463 3.80429 4.22788 3.79196 4.33989 3.745C4.45189 3.69803 4.5476 3.61853 4.61492 3.51655C4.68223 3.41458 4.71813 3.29471 4.71806 3.1721C4.71778 3.00784 4.65309 2.85039 4.53818 2.73427C4.42328 2.61815 4.26752 2.55284 4.10506 2.55265Z" fill="#00384F"/>
</svg>
