<svg width="30" height="30" viewBox="20 0 30 30" fill="none" xmlns="http://www.w3.org/2000/svg">
<g fill="grey" transform="rotate(90 20 20)">
<path d="M8.15254 16.5147C12.5882 16.5147 16.184 12.8789 16.184 8.39383C16.184 3.90879 12.5882 0.272949 8.15254 0.272949C3.71689 0.272949 0.121094 3.90879 0.121094 8.39383C0.121094 12.8789 3.71689 16.5147 8.15254 16.5147Z" fill="#DCEEC0"/>
<path d="M7.33888 6.7793H7.0813V20.8791H7.33888V6.7793Z" fill="#00384F"/>
<path d="M5.32687 12.2203C4.54967 12.2193 3.802 11.9191 3.23583 11.3807C2.66966 10.8423 2.32748 10.1062 2.27883 9.32187L2.26758 9.13329L2.40833 9.00663C2.83323 8.61577 3.35925 8.35506 3.92507 8.25489C4.49089 8.15473 5.0732 8.21923 5.60415 8.44089C6.13652 8.65869 6.59672 9.02496 6.93115 9.49703C7.26557 9.9691 7.46044 10.5276 7.49307 11.1073L7.50506 11.2966L7.36431 11.4225C6.80635 11.9345 6.08029 12.2187 5.32687 12.2203ZM3.07058 9.46491C3.12724 9.86134 3.28536 10.2359 3.52925 10.5516C3.77314 10.8672 4.09433 11.1129 4.46104 11.2644C4.82775 11.4159 5.22724 11.4679 5.61994 11.4153C6.01264 11.3626 6.38494 11.2072 6.69993 10.9643C6.6447 10.5673 6.48712 10.192 6.24301 9.87608C5.99891 9.56018 5.67687 9.31481 5.30928 9.16461C4.94291 9.01145 4.54312 8.95856 4.15012 9.01127C3.75712 9.06399 3.38477 9.22046 3.07058 9.46491Z" fill="#00384F"/>
<path d="M9.46935 12.4057C8.55817 12.4037 7.67923 12.0645 6.99842 11.4521L6.85767 11.3269L6.86751 11.1383C6.90357 10.428 7.13725 9.74236 7.54164 9.16039C7.94604 8.57842 8.50473 8.12373 9.15341 7.84864C9.80209 7.57355 10.5144 7.48924 11.2084 7.60542C11.9023 7.72159 12.5498 8.03353 13.0762 8.50533L13.2169 8.62987L13.2071 8.81915C13.1738 9.53031 12.9413 10.2172 12.5367 10.7999C12.1321 11.3826 11.5721 11.8371 10.9219 12.1103C10.462 12.3055 9.96815 12.4059 9.46935 12.4057ZM7.65573 10.9881C8.06998 11.3165 8.5637 11.5267 9.08551 11.5968C9.60732 11.6669 10.1382 11.5943 10.6228 11.3866C11.1088 11.1824 11.5317 10.8503 11.8477 10.4248C12.1637 9.9993 12.3611 9.49598 12.4196 8.96717C12.0045 8.64038 11.5109 8.43123 10.9894 8.3612C10.4679 8.29118 9.93739 8.3628 9.45234 8.56871C8.9673 8.77463 8.54521 9.1074 8.22947 9.53286C7.91373 9.95831 7.71569 10.4611 7.65573 10.9896V10.9881Z" fill="#00384F"/>
<path d="M7.21012 7.36567C6.81481 7.36567 6.42839 7.24714 6.0997 7.02507C5.77102 6.80301 5.51484 6.48738 5.36356 6.1181C5.21228 5.74882 5.17271 5.34246 5.24983 4.95043C5.32695 4.5584 5.51731 4.19829 5.79684 3.91566C6.07636 3.63302 6.4325 3.44054 6.82021 3.36256C7.20792 3.28458 7.60977 3.32461 7.97499 3.47757C8.34021 3.63054 8.65237 3.88957 8.87199 4.22191C9.09161 4.55426 9.20886 4.94499 9.20886 5.3447C9.2083 5.88052 8.99753 6.39424 8.62282 6.77312C8.24811 7.15201 7.74004 7.36511 7.21012 7.36567ZM7.21012 4.10579C6.96762 4.10579 6.73057 4.17851 6.52894 4.31476C6.32732 4.451 6.17019 4.64465 6.07742 4.8712C5.98465 5.09776 5.96042 5.34704 6.00778 5.58752C6.05514 5.828 6.17197 6.04888 6.3435 6.22222C6.51502 6.39555 6.73353 6.51356 6.9714 6.56131C7.20926 6.60906 7.45577 6.58441 7.67977 6.49048C7.90378 6.39655 8.09521 6.23755 8.22983 6.0336C8.36446 5.82965 8.43626 5.5899 8.43612 5.3447C8.43556 5.01617 8.30618 4.70127 8.07636 4.46903C7.84655 4.23679 7.53503 4.10617 7.21012 4.10579Z" fill="#00384F"/>
</g>
</svg>
