<svg width="20" height="20" viewBox="0 0 12 12" fill="none" xmlns="http://www.w3.org/2000/svg">
<path d="M6.00001 10.5882C8.72895 10.5882 10.9412 8.37592 10.9412 5.64699C10.9412 2.91805 8.72895 0.705811 6.00001 0.705811C3.27108 0.705811 1.05884 2.91805 1.05884 5.64699C1.05884 8.37592 3.27108 10.5882 6.00001 10.5882Z" fill="#CCCCCC"/>
<path d="M5.64713 4.94116H5.29419V11.2941H5.64713V4.94116Z" fill="#AAAAAA"/>
<path d="M4.30228 8.14929C3.81806 8.14868 3.35223 7.96165 2.99949 7.62623C2.64675 7.29081 2.43356 6.83216 2.40325 6.34351L2.39624 6.22602L2.48393 6.14711C2.74866 5.90359 3.07638 5.74115 3.42891 5.67875C3.78143 5.61634 4.14423 5.65653 4.47503 5.79463V5.79463C4.80671 5.93033 5.09343 6.15852 5.30179 6.45264C5.51015 6.74675 5.63155 7.09469 5.65188 7.45589L5.65936 7.57382L5.57166 7.65229C5.22403 7.97124 4.77168 8.14835 4.30228 8.14929V8.14929ZM2.89653 6.43263C2.93184 6.67961 3.03035 6.91299 3.1823 7.10964C3.33425 7.30629 3.53436 7.45939 3.76284 7.55377C3.99131 7.64816 4.24021 7.68056 4.48487 7.64776C4.72953 7.61496 4.96148 7.5181 5.15774 7.36678C5.12332 7.11944 5.02515 6.88561 4.87306 6.6888C4.72098 6.49198 4.52034 6.33911 4.29131 6.24553V6.24553C4.06306 6.15011 3.81397 6.11715 3.56912 6.15C3.32427 6.18284 3.09229 6.28033 2.89653 6.43263V6.43263Z" fill="#AAAAAA"/>
<path d="M6.88302 8.26499C6.31532 8.26374 5.76772 8.0524 5.34355 7.67089L5.25586 7.59286L5.26199 7.47537C5.28446 7.03282 5.43005 6.60567 5.682 6.24308C5.93395 5.8805 6.28203 5.59721 6.68618 5.42582C7.09033 5.25443 7.53412 5.2019 7.96649 5.27428C8.39886 5.34666 8.80223 5.54101 9.13019 5.83496L9.21789 5.91255L9.21174 6.03047C9.19099 6.47355 9.04614 6.90153 8.79408 7.26457C8.54202 7.62761 8.19312 7.91075 7.78803 8.08099C7.50147 8.20256 7.19379 8.26512 6.88302 8.26499ZM5.75308 7.38182C6.01117 7.58642 6.31877 7.71737 6.64388 7.76103C6.96898 7.80469 7.29972 7.75949 7.60168 7.6301V7.6301C7.90444 7.50287 8.16795 7.29595 8.36481 7.03085C8.56168 6.76575 8.6847 6.45216 8.72109 6.12269C8.46249 5.9191 8.15494 5.78879 7.83004 5.74516C7.50514 5.70153 7.17462 5.74615 6.87242 5.87444C6.57023 6.00274 6.30726 6.21007 6.11054 6.47514C5.91382 6.74021 5.79043 7.05346 5.75308 7.38271V7.38182Z" fill="#AAAAAA"/>
<path d="M5.47547 5.1247C5.22918 5.1247 4.98843 5.05085 4.78365 4.9125C4.57887 4.77414 4.41926 4.5775 4.32501 4.34743C4.23076 4.11735 4.20611 3.86417 4.25415 3.61993C4.3022 3.37568 4.4208 3.15133 4.59495 2.97523C4.76911 2.79914 4.99099 2.67922 5.23255 2.63064C5.47411 2.58205 5.72447 2.60699 5.95201 2.70229C6.17955 2.79759 6.37404 2.95898 6.51087 3.16604C6.6477 3.3731 6.72075 3.61654 6.72075 3.86557C6.7204 4.1994 6.58909 4.51947 6.35563 4.75553C6.12217 4.99158 5.80563 5.12435 5.47547 5.1247V5.1247ZM5.47547 3.09369C5.32439 3.09369 5.1767 3.139 5.05108 3.22389C4.92546 3.30877 4.82756 3.42942 4.76977 3.57057C4.71197 3.71172 4.69687 3.86703 4.72638 4.01686C4.75589 4.16669 4.82868 4.3043 4.93554 4.41229C5.04241 4.52029 5.17855 4.59381 5.32674 4.62356C5.47494 4.65331 5.62852 4.63795 5.76808 4.57943C5.90764 4.52091 6.02691 4.42184 6.11079 4.29478C6.19466 4.16771 6.2394 4.01834 6.23931 3.86557C6.23896 3.66089 6.15835 3.4647 6.01517 3.32C5.87199 3.17531 5.6779 3.09393 5.47547 3.09369V3.09369Z" fill="#AAAAAA"/>
</svg>
