<svg width="20" height="20" viewBox="0 0 20 20" fill="none" xmlns="http://www.w3.org/2000/svg">
<path d="M9.99994 17.6471C14.5482 17.6471 18.2352 13.96 18.2352 9.41181C18.2352 4.86358 14.5482 1.17651 9.99994 1.17651C5.45172 1.17651 1.76465 4.86358 1.76465 9.41181C1.76465 13.96 5.45172 17.6471 9.99994 17.6471Z" fill="#DCEEC0"/>
<path d="M9.41172 8.23535H8.82349V18.8236H9.41172V8.23535Z" fill="#00384F"/>
<path d="M7.17026 13.5822C6.36322 13.5812 5.58685 13.2695 4.99895 12.7105C4.41105 12.1514 4.05574 11.387 4.00522 10.5726L3.99353 10.3768L4.13969 10.2453C4.5809 9.83939 5.1271 9.56867 5.71464 9.46466C6.30218 9.36066 6.90685 9.42763 7.45818 9.6578V9.6578C8.01098 9.88396 8.48885 10.2643 8.83611 10.7545C9.18338 11.2447 9.38572 11.8246 9.4196 12.4266L9.43206 12.6231L9.2859 12.7539C8.70652 13.2855 7.9526 13.5807 7.17026 13.5822V13.5822ZM4.82735 10.7211C4.88619 11.1328 5.05038 11.5217 5.30363 11.8495C5.55688 12.1772 5.8904 12.4324 6.27119 12.5897C6.65198 12.747 7.0668 12.801 7.47458 12.7463C7.88235 12.6917 8.26893 12.5303 8.59602 12.278C8.53867 11.8658 8.37504 11.4761 8.12156 11.1481C7.86809 10.8201 7.53369 10.5653 7.15199 10.4093V10.4093C6.77156 10.2503 6.35642 10.1953 5.94833 10.2501C5.54024 10.3048 5.15361 10.4673 4.82735 10.7211V10.7211Z" fill="#00384F"/>
<path d="M11.4717 13.7752C10.5255 13.7731 9.61287 13.4209 8.90592 12.7851L8.75977 12.655L8.76999 12.4592C8.80743 11.7216 9.05008 11.0097 9.47 10.4054C9.88992 9.80107 10.4701 9.32893 11.1436 9.04327C11.8172 8.75762 12.5569 8.67008 13.2775 8.79071C13.9981 8.91135 14.6704 9.23526 15.217 9.72517L15.3631 9.85449L15.3529 10.051C15.3183 10.7895 15.0769 11.5028 14.6568 12.1079C14.2367 12.7129 13.6552 13.1848 12.9801 13.4686C12.5024 13.6712 11.9897 13.7754 11.4717 13.7752ZM9.58847 12.3033C10.0186 12.6443 10.5313 12.8625 11.0731 12.9353C11.615 13.0081 12.1662 12.9327 12.6695 12.7171V12.7171C13.1741 12.505 13.6132 12.1602 13.9414 11.7183C14.2695 11.2765 14.4745 10.7538 14.5352 10.2047C14.1041 9.86541 13.5916 9.64823 13.0501 9.57551C12.5086 9.5028 11.9577 9.57716 11.454 9.79098C10.9504 10.0048 10.5121 10.3504 10.1842 10.7921C9.85637 11.2339 9.65072 11.756 9.58847 12.3048V12.3033Z" fill="#00384F"/>
<path d="M9.12595 8.54134C8.71547 8.54134 8.31422 8.41825 7.97291 8.18766C7.63161 7.95707 7.3656 7.62933 7.20851 7.24587C7.05143 6.86241 7.01034 6.44045 7.09042 6.03338C7.1705 5.6263 7.36817 5.25237 7.65842 4.95889C7.94868 4.6654 8.31848 4.46553 8.72108 4.38456C9.12367 4.30359 9.54095 4.34515 9.92018 4.50399C10.2994 4.66282 10.6236 4.93179 10.8516 5.2769C11.0797 5.622 11.2014 6.02773 11.2014 6.44278C11.2008 6.99917 10.982 7.53261 10.5929 7.92604C10.2038 8.31947 9.67621 8.54075 9.12595 8.54134V8.54134ZM9.12595 5.15632C8.87414 5.15632 8.62799 5.23183 8.41863 5.37331C8.20926 5.51478 8.0461 5.71586 7.94977 5.95111C7.85344 6.18636 7.82828 6.44521 7.87746 6.69493C7.92664 6.94464 8.04796 7.174 8.22607 7.35399C8.40417 7.53398 8.63107 7.65651 8.87806 7.7061C9.12506 7.75568 9.38103 7.73008 9.61363 7.63255C9.84623 7.53501 10.045 7.3699 10.1848 7.15813C10.3246 6.94635 10.3992 6.6974 10.399 6.44278C10.3984 6.10164 10.2641 5.77466 10.0254 5.5335C9.78681 5.29235 9.46334 5.15671 9.12595 5.15632V5.15632Z" fill="#00384F"/>
</svg>
