<svg width="24" height="24" viewBox="0 0 24 24" fill="none" xmlns="http://www.w3.org/2000/svg">
<path d="M12 21.1763C17.4579 21.1763 21.8824 16.7518 21.8824 11.294C21.8824 5.8361 17.4579 1.41162 12 1.41162C6.54213 1.41162 2.11765 5.8361 2.11765 11.294C2.11765 16.7518 6.54213 21.1763 12 21.1763Z" fill="#DCEEC0"/>
<path d="M11.2941 9.88232H10.5882V22.5882H11.2941V9.88232Z" fill="#00874A"/>
<path d="M8.60435 16.2986C7.63592 16.2974 6.70427 15.9233 5.99879 15.2525C5.29331 14.5816 4.86693 13.6643 4.80631 12.687L4.79228 12.452L4.96767 12.2942C5.49712 11.8072 6.15257 11.4823 6.85762 11.3575C7.56267 11.2327 8.28827 11.3131 8.94987 11.5893C9.61323 11.8607 10.1867 12.317 10.6034 12.9053C11.0201 13.4935 11.2629 14.1894 11.3036 14.9118L11.3185 15.1476L11.1431 15.3046C10.4479 15.9425 9.54316 16.2967 8.60435 16.2986ZM5.79287 12.8653C5.86348 13.3592 6.0605 13.826 6.3644 14.2193C6.6683 14.6126 7.06853 14.9188 7.52547 15.1075C7.98242 15.2963 8.48021 15.3611 8.96954 15.2955C9.45887 15.2299 9.92277 15.0362 10.3153 14.7336C10.2465 14.2389 10.0501 13.7712 9.74592 13.3776C9.44175 12.984 9.04048 12.6782 8.58243 12.4911C8.12592 12.3002 7.62775 12.2343 7.13804 12.3C6.64834 12.3657 6.18438 12.5607 5.79287 12.8653Z" fill="#00874A"/>
<path d="M13.766 16.53C12.6306 16.5275 11.5354 16.1048 10.6871 15.3418L10.5117 15.1857L10.524 14.9507C10.5689 14.0656 10.8601 13.2113 11.364 12.4862C11.8679 11.761 12.5641 11.1944 13.3724 10.8516C14.1807 10.5089 15.0682 10.4038 15.933 10.5486C16.7977 10.6933 17.6045 11.082 18.2604 11.6699L18.4358 11.8251L18.4235 12.0609C18.382 12.9471 18.0923 13.8031 17.5882 14.5291C17.084 15.2552 16.3862 15.8215 15.5761 16.162C15.0029 16.4051 14.3876 16.5302 13.766 16.53ZM11.5062 14.7636C12.0223 15.1728 12.6375 15.4347 13.2878 15.5221C13.938 15.6094 14.5994 15.519 15.2034 15.2602C15.8089 15.0057 16.3359 14.5919 16.7296 14.0617C17.1234 13.5315 17.3694 12.9043 17.4422 12.2454C16.925 11.8382 16.3099 11.5776 15.6601 11.4903C15.0103 11.4031 14.3492 11.4923 13.7448 11.7489C13.1405 12.0055 12.6145 12.4201 12.2211 12.9503C11.8276 13.4804 11.5809 14.1069 11.5062 14.7654V14.7636Z" fill="#00874A"/>
<path d="M10.9511 10.2494C10.4585 10.2494 9.977 10.1017 9.56744 9.825C9.15787 9.54829 8.83866 9.155 8.65016 8.69485C8.46166 8.2347 8.41235 7.72835 8.50845 7.23986C8.60454 6.75136 8.84174 6.30265 9.19005 5.95047C9.53835 5.59828 9.98212 5.35844 10.4652 5.26128C10.9483 5.16411 11.4491 5.21399 11.9042 5.40459C12.3592 5.59519 12.7482 5.91796 13.0219 6.33208C13.2955 6.74621 13.4416 7.23308 13.4416 7.73114C13.4409 8.39881 13.1783 9.03894 12.7114 9.51105C12.2445 9.98317 11.6114 10.2487 10.9511 10.2494ZM10.9511 6.18739C10.6489 6.18739 10.3535 6.278 10.1023 6.44777C9.85106 6.61754 9.65527 6.85884 9.53967 7.14114C9.42407 7.42344 9.39388 7.73406 9.45289 8.03372C9.51191 8.33337 9.65749 8.6086 9.87122 8.82459C10.085 9.04058 10.3572 9.18762 10.6536 9.24712C10.95 9.30662 11.2572 9.27591 11.5363 9.15886C11.8154 9.04181 12.054 8.84369 12.2217 8.58956C12.3895 8.33542 12.4789 8.03668 12.4788 7.73114C12.4781 7.32177 12.3168 6.92939 12.0305 6.64001C11.7441 6.35062 11.3559 6.18786 10.9511 6.18739Z" fill="#00874A"/>
</svg>
