<svg width="30" height="35" viewBox="0 0 30 35" fill="none" xmlns="http://www.w3.org/2000/svg">
<g clip-path="url(#clip0_948_2456)">
<path d="M15.6239 21.4553C19.3464 21.4553 22.3641 18.3353 22.3641 14.4867C22.3641 10.638 19.3464 7.51807 15.6239 7.51807C11.9014 7.51807 8.88376 10.638 8.88376 14.4867C8.88376 18.3353 11.9014 21.4553 15.6239 21.4553Z" fill="#DCEEC0"/>
<path d="M14.833 33.6627C13.8729 33.6616 12.9523 33.2667 12.2734 32.5647C11.5944 31.8628 11.2125 30.911 11.2114 29.9183V26.1738H18.4547V29.9183C18.4537 30.911 18.0717 31.8628 17.3928 32.5647C16.7138 33.2667 15.7932 33.6616 14.833 33.6627ZM11.8605 26.8449V29.9183C11.8605 30.7334 12.1737 31.5151 12.7311 32.0915C13.2886 32.6678 14.0447 32.9916 14.833 32.9916C15.6214 32.9916 16.3775 32.6678 16.935 32.0915C17.4925 31.5151 17.8056 30.7334 17.8056 29.9183V26.8449H11.8605Z" fill="#00874A"/>
<path d="M14.8331 35C14.3453 34.9993 13.8777 34.7987 13.5328 34.4421C13.1879 34.0855 12.9939 33.6021 12.9933 33.0978V32.9934H13.643V33.0978C13.643 33.4243 13.7684 33.7374 13.9917 33.9683C14.215 34.1992 14.5179 34.3289 14.8337 34.3289C15.1494 34.3289 15.4523 34.1992 15.6756 33.9683C15.8989 33.7374 16.0244 33.4243 16.0244 33.0978V32.9934H16.674V33.0978C16.6734 33.6023 16.4792 34.0859 16.1341 34.4426C15.7889 34.7992 15.321 34.9996 14.8331 35Z" fill="#00874A"/>
<path d="M18.11 26.4033L11.5066 27.9343L11.5539 28.1524L18.1573 26.6213L18.11 26.4033Z" fill="#00874A"/>
<path d="M18.1102 27.976L11.5069 29.5071L11.5542 29.7252L18.1575 28.1941L18.1102 27.976Z" fill="#00874A"/>
<path d="M18.1105 29.5481L11.5072 31.0791L11.5545 31.2972L18.1578 29.7661L18.1105 29.5481Z" fill="#00874A"/>
<path d="M17.8755 31.2091L12.7681 32.4709L12.8184 32.6883L17.9258 31.4264L17.8755 31.2091Z" fill="#00874A"/>
<path d="M18.3898 25.2616H17.7401V25.0594C17.7401 23.2355 18.4748 21.5074 19.8073 20.1933C20.5181 19.4987 21.0836 18.6609 21.4689 17.7315C21.8542 16.8021 22.0512 15.8009 22.0475 14.7897C22.0475 12.8105 21.287 10.9124 19.9334 9.51285C18.5798 8.11333 16.7439 7.3271 14.8295 7.3271C12.9152 7.3271 11.0793 8.11333 9.72565 9.51285C8.37202 10.9124 7.61156 12.8105 7.61156 14.7897C7.6079 15.8009 7.8048 16.8021 8.19011 17.7315C8.57542 18.6609 9.14096 19.4987 9.85178 20.1933C11.1866 21.5074 11.9189 23.2355 11.9189 25.0594V25.2616H11.2693V25.0594C11.2693 23.4205 10.6054 21.8652 9.40114 20.6787C8.62629 19.9219 8.00979 19.0088 7.58973 17.9959C7.16967 16.983 6.95498 15.8918 6.95892 14.7897C6.95892 10.3046 10.4879 6.65601 14.826 6.65601C19.1641 6.65601 22.693 10.3046 22.693 14.7897C22.697 15.8918 22.4823 16.983 22.0622 17.9959C21.6422 19.0088 21.0256 19.9219 20.2508 20.6787C19.0465 21.8652 18.3827 23.4205 18.3827 25.0594L18.3898 25.2616Z" fill="#00874A"/>
<path d="M14.9411 13.1013H14.725V25.2005H14.9411V13.1013Z" fill="#00874A"/>
<path d="M13.2526 17.7702C12.6003 17.7694 11.9729 17.5118 11.4977 17.0498C11.0226 16.5878 10.7354 15.9561 10.6946 15.2831L10.6851 15.1213L10.8033 15.0126C11.1598 14.6772 11.6013 14.4535 12.0761 14.3675C12.551 14.2816 13.0397 14.3369 13.4853 14.5271C13.932 14.714 14.3182 15.0283 14.5989 15.4334C14.8796 15.8385 15.0431 16.3177 15.0705 16.8152L15.0805 16.9776L14.9624 17.0857C14.4942 17.525 13.8848 17.7689 13.2526 17.7702ZM11.359 15.4058C11.4066 15.746 11.5393 16.0675 11.744 16.3383C11.9486 16.6092 12.2182 16.82 12.5259 16.95C12.8337 17.08 13.169 17.1246 13.4985 17.0795C13.8281 17.0343 14.1405 16.9009 14.4049 16.6925C14.3585 16.3518 14.2263 16.0298 14.0214 15.7587C13.8165 15.4876 13.5463 15.277 13.2378 15.1482C12.9303 15.0167 12.5948 14.9713 12.265 15.0166C11.9352 15.0618 11.6227 15.1961 11.359 15.4058Z" fill="#00874A"/>
<path d="M16.729 17.9295C15.9643 17.9278 15.2266 17.6367 14.6553 17.1113L14.5372 17.0038L14.5454 16.842C14.5757 16.2324 14.7718 15.6441 15.1112 15.1447C15.4506 14.6453 15.9194 14.2551 16.4638 14.0191C17.0082 13.783 17.606 13.7107 18.1884 13.8104C18.7708 13.9101 19.3141 14.1777 19.7559 14.5826L19.874 14.6895L19.8657 14.8519C19.8378 15.4621 19.6427 16.0516 19.3031 16.5516C18.9636 17.0516 18.4936 17.4416 17.948 17.6761C17.562 17.8435 17.1476 17.9297 16.729 17.9295ZM15.2069 16.7131C15.5546 16.9949 15.9689 17.1753 16.4068 17.2354C16.8447 17.2955 17.2902 17.2333 17.697 17.0551C18.1048 16.8798 18.4597 16.5948 18.7249 16.2297C18.9901 15.8646 19.1558 15.4327 19.2048 14.9789C18.8565 14.6985 18.4422 14.519 18.0046 14.4589C17.5669 14.3988 17.1217 14.4603 16.7147 14.637C16.3076 14.8137 15.9534 15.0992 15.6884 15.4643C15.4234 15.8294 15.2572 16.2609 15.2069 16.7143V16.7131Z" fill="#00874A"/>
<path d="M14.8331 13.6044C14.5013 13.6044 14.177 13.5027 13.9012 13.3121C13.6253 13.1216 13.4103 12.8508 13.2834 12.5339C13.1564 12.217 13.1232 11.8683 13.1879 11.5319C13.2527 11.1955 13.4124 10.8865 13.647 10.6439C13.8816 10.4014 14.1805 10.2362 14.5058 10.1693C14.8312 10.1024 15.1685 10.1367 15.475 10.268C15.7815 10.3993 16.0434 10.6215 16.2277 10.9067C16.412 11.1919 16.5104 11.5272 16.5104 11.8702C16.51 12.33 16.3331 12.7708 16.0186 13.0959C15.7042 13.4211 15.2778 13.6039 14.8331 13.6044ZM14.8331 10.8071C14.6295 10.8071 14.4306 10.8695 14.2614 10.9864C14.0922 11.1033 13.9603 11.2695 13.8825 11.4639C13.8046 11.6583 13.7843 11.8722 13.824 12.0786C13.8638 12.2849 13.9618 12.4745 14.1058 12.6232C14.2497 12.772 14.4331 12.8732 14.6327 12.9142C14.8323 12.9552 15.0392 12.934 15.2272 12.8534C15.4152 12.7728 15.5758 12.6364 15.6888 12.4614C15.8018 12.2863 15.8621 12.0806 15.8619 11.8702C15.8615 11.5883 15.7529 11.3181 15.56 11.1188C15.3672 10.9195 15.1057 10.8074 14.8331 10.8071Z" fill="#00874A"/>
<path d="M23.2642 23.2393L22.8056 23.7134L24.8591 25.8365L25.3177 25.3624L23.2642 23.2393Z" fill="#00874A"/>
<path d="M4.8092 4.15382L4.35063 4.62793L6.67558 7.03168L7.13415 6.55757L4.8092 4.15382Z" fill="#00874A"/>
<path d="M29.3328 14.656H26.1676V15.3265H29.3328V14.656Z" fill="#00874A"/>
<path d="M3.08801 14.656H0.333359V15.3265H3.08801V14.656Z" fill="#00874A"/>
<path d="M24.8569 4.15422L22.6104 6.47681L23.069 6.95091L25.3154 4.62832L24.8569 4.15422Z" fill="#00874A"/>
<path d="M6.86095 22.759L4.35057 25.3545L4.80913 25.8286L7.31951 23.2331L6.86095 22.759Z" fill="#00874A"/>
<path d="M15.1573 0H14.5088V3.11304H15.1573V0Z" fill="#00874A"/>
</g>
<defs>
<clipPath id="clip0_948_2456">
<rect width="29" height="35" fill="white" transform="translate(0.333359)"/>
</clipPath>
</defs>
</svg>
