<svg width="21" height="20" viewBox="0 0 21 20" fill="none" xmlns="http://www.w3.org/2000/svg">
<path d="M10.8129 17.6469C15.3612 17.6469 19.0482 13.9598 19.0482 9.41156C19.0482 4.86334 15.3612 1.17627 10.8129 1.17627C6.2647 1.17627 2.57764 4.86334 2.57764 9.41156C2.57764 13.9598 6.2647 17.6469 10.8129 17.6469Z" fill="#DCEEC0"/>
<path d="M10.2247 8.23486H9.63647V18.8231H10.2247V8.23486Z" fill="#00384F"/>
<path d="M7.98312 13.5822C7.17609 13.5812 6.39972 13.2695 5.81182 12.7105C5.22392 12.1514 4.8686 11.387 4.81808 10.5726L4.8064 10.3768L4.95255 10.2453C5.39376 9.83939 5.93997 9.56867 6.52751 9.46466C7.11505 9.36066 7.71972 9.42763 8.27105 9.6578C8.82385 9.88396 9.30172 10.2643 9.64898 10.7545C9.99624 11.2447 10.1986 11.8246 10.2325 12.4266L10.2449 12.6231L10.0988 12.7539C9.51939 13.2855 8.76546 13.5807 7.98312 13.5822ZM5.64022 10.7211C5.69906 11.1328 5.86324 11.5217 6.1165 11.8495C6.36975 12.1772 6.70327 12.4324 7.08406 12.5897C7.46484 12.747 7.87967 12.801 8.28745 12.7463C8.69522 12.6917 9.0818 12.5303 9.40889 12.278C9.35154 11.8658 9.18791 11.4761 8.93443 11.1481C8.68095 10.8201 8.34656 10.5653 7.96485 10.4093C7.58442 10.2503 7.16928 10.1953 6.7612 10.2501C6.35311 10.3048 5.96648 10.4673 5.64022 10.7211Z" fill="#00384F"/>
<path d="M12.2847 13.775C11.3385 13.7729 10.4259 13.4207 9.71891 12.7848L9.57275 12.6548L9.58298 12.459C9.62042 11.7214 9.86307 11.0094 10.283 10.4051C10.7029 9.80083 11.283 9.32868 11.9566 9.04303C12.6302 8.75738 13.3698 8.66983 14.0905 8.79047C14.8111 8.9111 15.4834 9.23502 16.03 9.72493L16.1761 9.85424L16.1659 10.0508C16.1313 10.7892 15.8899 11.5026 15.4698 12.1076C15.0497 12.7127 14.4682 13.1846 13.793 13.4683C13.3154 13.6709 12.8026 13.7752 12.2847 13.775ZM10.4015 12.303C10.8316 12.644 11.3443 12.8623 11.8861 12.935C12.428 13.0078 12.9792 12.9325 13.4825 12.7168C13.9871 12.5048 14.4262 12.1599 14.7543 11.7181C15.0825 11.2762 15.2875 10.7536 15.3481 10.2045C14.9171 9.86516 14.4046 9.64798 13.8631 9.57527C13.3216 9.50256 12.7707 9.57692 12.267 9.79074C11.7634 10.0046 11.3251 10.3501 10.9972 10.7919C10.6694 11.2337 10.4637 11.7558 10.4015 12.3045V12.303Z" fill="#00384F"/>
<path d="M9.93894 8.54134C9.52846 8.54134 9.1272 8.41825 8.7859 8.18766C8.4446 7.95707 8.17859 7.62933 8.0215 7.24587C7.86442 6.86241 7.82333 6.44045 7.90341 6.03338C7.98349 5.6263 8.18115 5.25237 8.47141 4.95889C8.76166 4.6654 9.13147 4.46553 9.53406 4.38456C9.93666 4.30359 10.3539 4.34515 10.7332 4.50399C11.1124 4.66282 11.4366 4.93179 11.6646 5.2769C11.8927 5.622 12.0144 6.02773 12.0144 6.44278C12.0138 6.99917 11.795 7.53261 11.4059 7.92604C11.0168 8.31947 10.4892 8.54075 9.93894 8.54134ZM9.93894 5.15632C9.68713 5.15632 9.44098 5.23183 9.23162 5.37331C9.02225 5.51478 8.85909 5.71586 8.76276 5.95111C8.66643 6.18636 8.64127 6.44521 8.69045 6.69493C8.73963 6.94464 8.86094 7.174 9.03905 7.35399C9.21716 7.53398 9.44406 7.65651 9.69105 7.7061C9.93804 7.75568 10.194 7.73008 10.4266 7.63255C10.6592 7.53501 10.858 7.3699 10.9978 7.15813C11.1376 6.94635 11.2121 6.6974 11.212 6.44278C11.2114 6.10164 11.0771 5.77466 10.8384 5.5335C10.5998 5.29235 10.2763 5.15671 9.93894 5.15632Z" fill="#00384F"/>
</svg>
