<svg width="194" height="153" viewBox="0 0 194 153" fill="none" xmlns="http://www.w3.org/2000/svg">
<g clip-path="url(#clip0_1057_6363)">
<path d="M159.723 124.823C178.654 124.823 194 109.572 194 90.7595C194 71.9465 178.654 56.6956 159.723 56.6956C140.793 56.6956 125.446 71.9465 125.446 90.7595C125.446 109.572 140.793 124.823 159.723 124.823Z" fill="#DCEEC0"/>
<path d="M172.443 79.5733C174.062 75.7044 174.892 71.5547 174.885 67.3647C174.885 49.7519 160.467 35.423 142.746 35.423H142.178C142.632 33.367 142.861 31.2684 142.861 29.1636C142.861 13.079 129.695 -0.00561523 113.508 -0.00561523C97.3206 -0.00561523 84.1562 13.079 84.1562 29.1636C84.1572 30.4669 84.2463 31.7687 84.4229 33.0602C78.1457 33.6271 72.1749 36.0159 67.2534 39.9292C62.3319 43.8426 58.677 49.1077 56.7434 55.0696C57.3808 55.3628 58.0107 55.6692 58.6254 56.0094C60.4437 50.1905 64.0095 45.0636 68.8442 41.3166C73.6789 37.5696 79.5513 35.3819 85.6731 35.047L86.8382 34.9831L86.6491 33.8384C86.3769 32.2973 86.2389 30.7357 86.2367 29.1711C86.2367 14.2256 98.4725 2.06582 113.511 2.06582C128.55 2.06582 140.788 14.2256 140.788 29.1711C140.788 31.5624 140.47 33.9433 139.842 36.2519L139.464 37.6391L140.907 37.5508C141.596 37.5094 142.199 37.4887 142.755 37.4887C159.332 37.4887 172.818 50.8929 172.818 67.376C172.824 71.5547 171.941 75.6876 170.228 79.5038L169.888 80.2557L170.561 80.7481C175.456 84.334 179.437 89.0097 182.184 94.4003C184.932 99.791 186.371 105.747 186.385 111.79C186.385 133.03 169.003 150.297 147.635 150.297H80.0498C78.0222 150.972 75.8111 151.38 73.7248 151.891C75.7853 152.206 77.8669 152.363 79.9515 152.363H147.633C170.141 152.363 188.46 134.162 188.46 111.79C188.445 105.56 186.994 99.4173 184.217 93.8325C181.441 88.2477 177.413 83.3697 172.443 79.5733Z" fill="#00384F"/>
<path d="M112.528 24.908H110.451V151.085H112.528V24.908Z" fill="#00384F"/>
<path d="M83.8164 58.1895L82.3479 59.6489L110.337 87.464L111.805 86.0046L83.8164 58.1895Z" fill="#00384F"/>
<path d="M143.757 94.309L110.755 127.106L112.224 128.565L145.225 95.7684L143.757 94.309Z" fill="#00384F"/>
<path d="M71.3775 153.002H27.0817C12.1488 153.002 -1.09799e-05 140.929 -1.09799e-05 126.088C-0.0160606 121.629 1.09053 117.236 3.21899 113.311C5.34746 109.385 8.43021 106.05 12.1866 103.611C10.8984 100.558 10.3452 97.2484 10.5708 93.9455C10.7965 90.6426 11.7949 87.4377 13.4865 84.5858C15.1782 81.7339 17.5163 79.3138 20.3149 77.5182C23.1135 75.7225 26.2952 74.6009 29.6068 74.2426C29.2818 71.4541 29.568 68.6287 30.4458 65.9606C31.3236 63.2925 32.7722 60.8448 34.692 58.7857C36.6118 56.7266 38.9574 55.1049 41.5676 54.032C44.1778 52.9591 46.9908 52.4605 49.8133 52.5703C52.6358 52.6801 55.4009 53.3959 57.9188 54.6683C60.4366 55.9407 62.6474 57.7397 64.3993 59.9416C66.1513 62.1436 67.4028 64.6964 68.068 67.4245C68.7332 70.1527 68.7963 72.9916 68.2528 75.7463C73.9139 75.7702 79.3354 78.0201 83.3322 82.0045C87.329 85.9888 89.5762 91.3835 89.5827 97.0095C89.5907 99.7069 89.077 102.381 88.0695 104.885C91.3025 107.408 93.9181 110.627 95.7198 114.298C97.5216 117.97 98.4627 122 98.4725 126.085C98.4555 140.925 86.3105 153.002 71.3775 153.002ZM49.0433 54.626C46.4903 54.6233 43.9677 55.1765 41.653 56.2467C39.3383 57.317 37.2876 58.8782 35.6453 60.8207C34.003 62.7631 32.8088 65.0397 32.1469 67.49C31.4851 69.9404 31.3714 72.5052 31.8141 75.0039L32.0127 76.1486L30.8476 76.2125C27.6879 76.3864 24.6196 77.3289 21.9123 78.9573C19.2051 80.5857 16.9418 82.85 15.3214 85.5513C13.7009 88.2526 12.7731 91.3081 12.6193 94.4493C12.4655 97.5904 13.0905 100.721 14.4393 103.566L14.8365 104.404L14.0421 104.887C10.3778 107.097 7.35064 110.21 5.25444 113.925C3.15825 117.64 2.06426 121.831 2.0787 126.09C2.0787 139.793 13.295 150.94 27.0817 150.94H71.3775C85.1643 150.94 96.3824 139.793 96.3824 126.09C96.3729 122.191 95.4439 118.348 93.6702 114.869C91.8965 111.391 89.3273 108.374 86.1686 106.06L85.4953 105.568L85.8357 104.816C87.1443 101.893 87.6973 98.6923 87.4444 95.5035C87.1916 92.3146 86.141 89.2391 84.388 86.5563C82.6351 83.8736 80.2354 81.6686 77.407 80.1419C74.5785 78.6151 71.411 77.8149 68.1923 77.814C67.7932 77.814 67.3979 77.829 67.0045 77.8535L65.5632 77.9399L65.9415 76.5546C66.6434 73.977 66.7384 71.2733 66.2191 68.6532C65.6998 66.0332 64.5801 63.5673 62.947 61.4468C61.3138 59.3262 59.2111 57.608 56.8019 56.4255C54.3927 55.243 51.7417 54.6279 49.0547 54.6279L49.0433 54.626Z" fill="#00384F"/>
<path d="M48.7633 71.1729H46.6865V151.808H48.7633V71.1729Z" fill="#00384F"/>
<path d="M29.8665 90.7545L28.3979 92.2139L46.7171 110.419L48.1856 108.96L29.8665 90.7545Z" fill="#00384F"/>
<path d="M68.5928 114.395L46.9916 135.862L48.4601 137.322L70.0613 115.855L68.5928 114.395Z" fill="#00384F"/>
<path d="M134.472 66.1955C133.284 66.1955 132.123 65.8453 131.135 65.1894C130.147 64.5334 129.377 63.601 128.922 62.5101C128.468 61.4193 128.349 60.2189 128.581 59.0609C128.812 57.9028 129.385 56.8391 130.225 56.0042C131.065 55.1693 132.135 54.6007 133.3 54.3703C134.466 54.14 135.674 54.2582 136.771 54.71C137.869 55.1619 138.807 55.9271 139.467 56.9088C140.127 57.8906 140.48 59.0448 140.48 60.2256C140.478 61.8083 139.844 63.3256 138.718 64.4447C137.592 65.5639 136.065 66.1935 134.472 66.1955ZM134.472 54.9436C133.421 54.9436 132.394 55.2534 131.52 55.8338C130.646 56.4141 129.964 57.2391 129.562 58.2042C129.16 59.1694 129.055 60.2314 129.26 61.256C129.465 62.2806 129.971 63.2218 130.714 63.9604C131.458 64.6991 132.405 65.2022 133.436 65.406C134.467 65.6098 135.535 65.5052 136.506 65.1054C137.478 64.7057 138.308 64.0286 138.892 63.16C139.476 62.2914 139.787 61.2702 139.787 60.2256C139.786 58.8251 139.225 57.4825 138.229 56.4923C137.233 55.5021 135.882 54.9451 134.472 54.9436Z" fill="#00384F"/>
<path d="M150.869 118.575C149.373 118.575 147.91 118.134 146.666 117.308C145.422 116.482 144.452 115.308 143.88 113.934C143.307 112.56 143.157 111.048 143.449 109.59C143.741 108.131 144.461 106.791 145.52 105.74C146.578 104.688 147.926 103.972 149.393 103.682C150.861 103.392 152.382 103.541 153.765 104.11C155.147 104.679 156.329 105.643 157.16 106.879C157.991 108.116 158.435 109.569 158.435 111.056C158.432 113.049 157.633 114.96 156.215 116.369C154.797 117.778 152.875 118.572 150.869 118.575ZM150.869 104.218C149.509 104.218 148.18 104.619 147.049 105.37C145.918 106.121 145.036 107.188 144.516 108.437C143.995 109.686 143.859 111.06 144.124 112.386C144.39 113.712 145.045 114.93 146.006 115.885C146.968 116.841 148.194 117.492 149.528 117.756C150.862 118.02 152.245 117.884 153.501 117.367C154.758 116.85 155.832 115.974 156.588 114.85C157.343 113.726 157.747 112.404 157.747 111.053C157.745 109.241 157.019 107.503 155.73 106.222C154.441 104.941 152.693 104.22 150.869 104.218Z" fill="#00384F"/>
<path d="M24.5699 127.885C23.3432 127.885 22.1441 127.524 21.1242 126.847C20.1043 126.169 19.3093 125.207 18.8399 124.081C18.3705 122.954 18.2477 121.715 18.487 120.519C18.7263 119.324 19.317 118.226 20.1843 117.364C21.0517 116.502 22.1568 115.915 23.3599 115.677C24.563 115.439 25.81 115.561 26.9433 116.028C28.0766 116.494 29.0452 117.284 29.7267 118.298C30.4082 119.311 30.7719 120.503 30.7719 121.722C30.7699 123.356 30.1158 124.922 28.9532 126.078C27.7905 127.233 26.2141 127.883 24.5699 127.885ZM24.5699 116.246C23.4801 116.246 22.4149 116.567 21.5088 117.169C20.6027 117.771 19.8965 118.626 19.4795 119.626C19.0625 120.627 18.9534 121.728 19.1659 122.79C19.3785 123.852 19.9033 124.828 20.6739 125.594C21.4444 126.359 22.4262 126.881 23.495 127.092C24.5637 127.304 25.6716 127.195 26.6784 126.781C27.6851 126.366 28.5457 125.664 29.1511 124.764C29.7565 123.864 30.0796 122.805 30.0796 121.722C30.0781 120.27 29.4972 118.878 28.4642 117.852C27.4312 116.825 26.0307 116.248 24.5699 116.246Z" fill="#00384F"/>
<path d="M67.9067 97.6222C67.0661 97.6222 66.2444 97.3745 65.5455 96.9104C64.8466 96.4463 64.3018 95.7866 63.9801 95.0148C63.6585 94.2431 63.5743 93.3938 63.7383 92.5745C63.9023 91.7552 64.3071 91.0026 64.9014 90.4119C65.4958 89.8212 66.2531 89.4189 67.0775 89.256C67.902 89.093 68.7565 89.1766 69.5331 89.4963C70.3097 89.816 70.9735 90.3574 71.4405 91.052C71.9075 91.7465 72.1568 92.5631 72.1568 93.3985C72.1553 94.5182 71.707 95.5917 70.9103 96.3834C70.1136 97.1752 69.0334 97.6207 67.9067 97.6222ZM67.9067 89.8628C67.203 89.8628 66.5152 90.0701 65.9301 90.4587C65.345 90.8472 64.889 91.3994 64.6197 92.0454C64.3504 92.6915 64.28 93.4024 64.4172 94.0883C64.5545 94.7741 64.8934 95.4042 65.3909 95.8986C65.8885 96.3931 66.5225 96.7298 67.2126 96.8663C67.9028 97.0027 68.6181 96.9327 69.2682 96.6651C69.9183 96.3975 70.474 95.9443 70.8649 95.3628C71.2558 94.7814 71.4645 94.0978 71.4645 93.3985C71.463 92.4612 71.0877 91.5628 70.4208 90.9C69.7539 90.2373 68.8498 89.8643 67.9067 89.8628Z" fill="#00384F"/>
</g>
<defs>
<clipPath id="clip0_1057_6363">
<rect width="194" height="153" fill="white"/>
</clipPath>
</defs>
</svg>
