<svg width="17" height="16" viewBox="0 0 17 16" fill="none" xmlns="http://www.w3.org/2000/svg">
<path opacity="0.4" d="M9.81783 4.58105L6.18213 6.91829" stroke="#87CE29" stroke-width="2" stroke-linecap="round" stroke-linejoin="round"/>
<path opacity="0.4" d="M6.18213 9.08105L9.81782 11.4183" stroke="#87CE29" stroke-width="2" stroke-linecap="round" stroke-linejoin="round"/>
<path d="M4.5 10C5.60457 10 6.5 9.10457 6.5 8C6.5 6.89543 5.60457 6 4.5 6C3.39543 6 2.5 6.89543 2.5 8C2.5 9.10457 3.39543 10 4.5 10Z" stroke="#87CE29" stroke-width="2" stroke-linecap="round" stroke-linejoin="round"/>
<path d="M11.5 14.5C12.6046 14.5 13.5 13.6046 13.5 12.5C13.5 11.3954 12.6046 10.5 11.5 10.5C10.3954 10.5 9.5 11.3954 9.5 12.5C9.5 13.6046 10.3954 14.5 11.5 14.5Z" stroke="#87CE29" stroke-width="2" stroke-linecap="round" stroke-linejoin="round"/>
<path d="M11.5 5.5C12.6046 5.5 13.5 4.60457 13.5 3.5C13.5 2.39543 12.6046 1.5 11.5 1.5C10.3954 1.5 9.5 2.39543 9.5 3.5C9.5 4.60457 10.3954 5.5 11.5 5.5Z" stroke="#87CE29" stroke-width="2" stroke-linecap="round" stroke-linejoin="round"/>
</svg>
