<svg width="12" height="13" viewBox="0 0 12 13" fill="none" xmlns="http://www.w3.org/2000/svg">
<path opacity="0.4" d="M5.5 1.5H4.5C2 1.5 1 2.5 1 5V8C1 10.5 2 11.5 4.5 11.5H7.5C10 11.5 11 10.5 11 8V7" stroke="#87CE29" stroke-linecap="round" stroke-linejoin="round"/>
<path d="M8.01994 2.00988L4.07994 5.94988C3.92994 6.09988 3.77994 6.39488 3.74994 6.60988L3.53494 8.11488C3.45494 8.65988 3.83994 9.03988 4.38494 8.96488L5.88994 8.74988C6.09994 8.71988 6.39494 8.56988 6.54994 8.41988L10.4899 4.47988C11.1699 3.79988 11.4899 3.00988 10.4899 2.00988C9.48994 1.00988 8.69994 1.32988 8.01994 2.00988Z" stroke="#87CE29" stroke-miterlimit="10" stroke-linecap="round" stroke-linejoin="round"/>
<path d="M7.45508 2.57495C7.79008 3.76995 8.72508 4.70495 9.92508 5.04495" stroke="#87CE29" stroke-miterlimit="10" stroke-linecap="round" stroke-linejoin="round"/>
</svg>
