<svg width="41" height="40" viewBox="0 0 41 40" fill="none" xmlns="http://www.w3.org/2000/svg">
<path d="M20.732 30.0513C20.9696 30.6941 21.3789 31.2594 21.9152 31.6859C22.4516 32.1124 23.0946 32.3838 23.7743 32.4707C24.454 32.5575 25.1446 32.4564 25.7709 32.1785C26.3973 31.9005 26.9355 31.4562 27.3271 30.8939C27.7188 30.3315 27.9489 29.6727 27.9924 28.9888C28.036 28.3049 27.8913 27.6221 27.5742 27.0147C27.257 26.4072 26.7795 25.8983 26.1934 25.5431C25.6074 25.1879 24.9353 25.0001 24.25 25H6.75" stroke="#00874A" stroke-width="2" stroke-linecap="round" stroke-linejoin="round"/>
<path opacity="0.4" d="M15.732 9.94858C15.9696 9.30586 16.3789 8.74054 16.9152 8.31403C17.4516 7.88751 18.0946 7.6161 18.7743 7.52926C19.454 7.44242 20.1446 7.54348 20.7709 7.82146C21.3973 8.09945 21.9355 8.54372 22.3271 9.10605C22.7188 9.66838 22.9489 10.3273 22.9924 11.0111C23.036 11.695 22.8913 12.3778 22.5742 12.9852C22.257 13.5927 21.7795 14.1016 21.1934 14.4568C20.6074 14.812 19.9353 14.9998 19.25 14.9999H4.25" stroke="#00874A" stroke-width="2" stroke-linecap="round" stroke-linejoin="round"/>
<path opacity="0.8" d="M29.482 14.9486C29.7196 14.3059 30.1289 13.7405 30.6652 13.314C31.2016 12.8875 31.8446 12.6161 32.5243 12.5293C33.204 12.4424 33.8946 12.5435 34.5209 12.8215C35.1473 13.0994 35.6855 13.5437 36.0771 14.1061C36.4688 14.6684 36.6989 15.3273 36.7424 16.0111C36.786 16.695 36.6413 17.3778 36.3242 17.9852C36.007 18.5927 35.5295 19.1016 34.9434 19.4568C34.3574 19.812 33.6853 19.9998 33 19.9999H5.5" stroke="#00874A" stroke-width="2" stroke-linecap="round" stroke-linejoin="round"/>
</svg>
