<svg width="16" height="17" viewBox="0 0 16 17" fill="none" xmlns="http://www.w3.org/2000/svg">
<path d="M2.27039 0.500977H13.7297C14.9835 0.500977 16 1.57231 16 2.8938V14.0471C16 15.3686 14.9835 16.4399 13.7297 16.4399H2.27039C1.01656 16.4399 7.62939e-05 15.3686 7.62939e-05 14.0471V2.8938C7.62939e-05 1.57231 1.01656 0.500977 2.27039 0.500977Z" fill="white"/>
<path d="M2.85057 14.4855C2.78803 14.4561 2.74206 14.4228 2.8159 14.3569C2.86112 14.3203 2.91009 14.287 2.95907 14.2536C3.41645 13.9407 3.84595 13.5984 4.12927 13.0941C4.36662 12.6748 4.32819 12.4278 4.03131 12.1189C2.3751 10.3733 1.64872 8.28625 2.01191 5.82036C2.21762 4.42898 2.82193 3.22503 3.70203 2.1799C4.23325 1.54695 4.86469 1.03471 5.5564 0.608247C5.5986 0.582833 5.65737 0.574892 5.66491 0.508976C5.65059 0.472444 5.62648 0.483563 5.60538 0.483563C4.42841 0.483563 3.25143 0.458149 2.07822 0.49071C0.953239 0.527242 -0.0172759 1.44371 -0.0135084 2.75806C-0.0067268 6.59706 -0.0135084 10.4369 -0.0135084 14.2798C-0.0135084 15.4727 0.849255 16.4701 1.97725 16.5146C2.93044 16.5551 3.88438 16.5218 4.84133 16.5186C4.9114 16.5226 4.98073 16.5257 5.0508 16.5257H10.094C11.3516 16.5257 12.6085 16.5329 13.8661 16.5257C15.0325 16.5257 15.9789 15.5322 15.9789 14.306V14.2838V12.13C15.9789 12.0784 15.9962 12.0236 15.9646 11.968C15.902 11.972 15.8772 12.0268 15.8425 12.0641C15.1651 12.782 14.3649 13.3602 13.4886 13.7684C11.3403 14.7659 9.15439 14.8357 6.93683 14.0336C6.74468 13.9598 6.53521 13.9526 6.33628 14.0043C6.04317 14.0813 5.75307 14.1734 5.46297 14.2655C4.61076 14.5443 3.74046 14.669 2.85057 14.4855ZM5.38235 8.28228C5.44187 8.20127 5.47352 8.15363 5.50818 8.10598C5.96556 7.49526 6.42294 6.88375 6.88107 6.26907C7.01368 6.09276 7.1463 5.91169 7.23069 5.69886C7.32865 5.45584 7.22391 5.22792 6.98656 5.13897C6.88182 5.10561 6.7703 5.09132 6.65803 5.09847C6.03639 5.09449 5.41098 5.09449 4.78934 5.09847C4.70193 5.09847 4.61452 5.10958 4.53088 5.13182C4.33497 5.18344 4.21667 5.3931 4.26565 5.60276C4.30031 5.74253 4.40505 5.85292 4.53842 5.88628C4.62206 5.90852 4.70946 5.91963 4.79687 5.91566C5.17438 5.91963 5.5549 5.91566 5.93165 5.91963C5.97385 5.91963 6.02584 5.89025 6.05749 5.95617C6.02584 6.00064 5.99494 6.04432 5.9633 6.08482C5.42228 6.80592 4.88428 7.53179 4.34251 8.2529C4.20989 8.43317 4.13981 8.63171 4.23777 8.85329C4.33573 9.07486 4.53465 9.11457 4.73734 9.12966C4.89784 9.14078 5.06211 9.13363 5.22637 9.13363C5.79225 9.13363 6.35437 9.1376 6.92025 9.12966C7.2209 9.12569 7.3814 8.93429 7.34975 8.64045C7.32564 8.40855 7.17493 8.28705 6.89538 8.28307C6.40184 8.2791 5.9098 8.28228 5.38235 8.28228ZM9.43394 6.3461C8.99766 5.94505 8.51542 5.91884 8.04373 6.21348C7.47106 6.56688 7.26159 7.14503 7.33091 7.81452C7.39722 8.44032 7.65567 8.95176 8.27731 9.16142C8.66461 9.29405 9.02479 9.2464 9.34277 8.974C9.42641 8.90411 9.45127 8.91841 9.51005 8.99624C9.62533 9.1511 9.82426 9.20987 9.99907 9.13998C10.1739 9.08439 10.2892 8.91523 10.2892 8.72384C10.2929 7.98765 10.296 7.25145 10.2892 6.51526C10.2854 6.22062 10.0239 6.0332 9.75117 6.09197C9.60122 6.12532 9.51758 6.23254 9.43394 6.3461ZM11.8542 7.71207C11.8399 8.63251 12.5633 9.3282 13.4712 9.2321C14.3061 9.14395 14.8471 8.48479 14.8192 7.55324C14.7914 6.6328 14.1418 6.00382 13.2512 6.0332C12.4163 6.05941 11.8263 6.76622 11.8542 7.71207ZM11.5468 6.97985C11.5468 6.40169 11.5505 5.82751 11.5468 5.24936C11.5468 4.95472 11.3689 4.77047 11.103 4.77445C10.8445 4.77842 10.6735 4.96187 10.6697 5.24539C10.6659 5.41851 10.6697 5.58767 10.6697 5.7608V8.68731C10.6697 8.91523 10.8023 9.11457 10.9771 9.16222C11.2182 9.2321 11.4661 9.08121 11.5287 8.82708C11.5392 8.78261 11.546 8.73893 11.543 8.69128C11.5505 8.12027 11.5468 7.55006 11.5468 6.97985Z" fill="#FDFEFE"/>
<path d="M4.83756 16.5211C3.88438 16.5211 2.92743 16.5545 1.97349 16.5172C0.845491 16.4695 -0.0172729 15.472 -0.0172729 14.2824C-0.0172729 10.4434 -0.0104914 6.60357 -0.0172729 2.7606C-0.0172729 1.44625 0.957009 0.529782 2.07823 0.496427C3.25143 0.463072 4.42841 0.48928 5.60538 0.48928C5.62648 0.48928 5.65436 0.478161 5.66491 0.514693C5.65813 0.580609 5.59484 0.58855 5.55641 0.613964C4.86544 1.04202 4.23325 1.55346 3.70203 2.18721C2.8257 3.23233 2.21762 4.43232 2.01192 5.82767C1.64873 8.29038 2.37887 10.3814 4.03056 12.1262C4.32367 12.4391 4.3621 12.6821 4.12851 13.1014C3.84595 13.6057 3.4157 13.948 2.95832 14.2609C2.90934 14.2903 2.86036 14.3268 2.81139 14.3602C2.7383 14.4261 2.78351 14.4595 2.84605 14.4889C2.86036 14.5222 2.87769 14.5516 2.89879 14.581C3.30041 14.9566 3.68093 15.3577 4.07577 15.7405C4.26113 15.9207 4.44574 16.109 4.62432 16.2964C4.69741 16.3663 4.82023 16.3885 4.83756 16.5211Z" fill="#0180C7"/>
<path d="M4.83757 16.5209C4.82024 16.3923 4.69817 16.37 4.62433 16.293C4.4465 16.1016 4.26114 15.9173 4.07578 15.7371C3.68094 15.3543 3.30042 14.9532 2.8988 14.5776C2.8777 14.5482 2.86037 14.5188 2.84605 14.4855C3.7367 14.6697 4.60624 14.5442 5.46223 14.2687C5.75232 14.1765 6.04167 14.0844 6.33554 14.0074C6.53446 13.9518 6.74394 13.9629 6.93608 14.0368C9.15063 14.8389 11.3366 14.7658 13.4878 13.7715C14.3641 13.3633 15.1644 12.7883 15.8418 12.0712C15.8764 12.0347 15.9013 11.9791 15.9638 11.9751C15.9955 12.0267 15.9781 12.0815 15.9781 12.1371V14.2909C15.9849 15.5203 15.0491 16.5217 13.8826 16.5328H13.8653C12.6077 16.54 11.3509 16.5328 10.0933 16.5328H5.04704C4.97697 16.5241 4.90764 16.5209 4.83757 16.5209Z" fill="#0172B1"/>
<path d="M5.38236 8.28207C5.90981 8.28207 6.40562 8.2781 6.89841 8.28207C7.1742 8.28604 7.32414 8.40755 7.35278 8.63944C7.38442 8.93011 7.22393 9.12547 6.92328 9.12865C6.3574 9.1358 5.79528 9.13262 5.2294 9.13262C5.06513 9.13262 4.90464 9.13977 4.74037 9.12865C4.53768 9.11753 4.33875 9.07306 4.2408 8.85228C4.14284 8.6315 4.21292 8.43296 4.34554 8.25189C4.88354 7.53079 5.42456 6.80492 5.96633 6.08381C5.99797 6.03934 6.02887 5.99566 6.06051 5.95516C6.02585 5.89242 5.97688 5.9218 5.93468 5.91863C5.55717 5.91466 5.17665 5.91863 4.7999 5.91466C4.71249 5.91466 4.62509 5.90354 4.54145 5.88527C4.34252 5.83762 4.22045 5.62796 4.26566 5.42148C4.29731 5.2817 4.40205 5.16734 4.53467 5.13399C4.61831 5.11175 4.70571 5.10063 4.79312 5.10063C5.41476 5.09666 6.04017 5.09666 6.66181 5.10063C6.77333 5.09666 6.88184 5.11175 6.99034 5.14114C7.2277 5.22611 7.32942 5.45801 7.23448 5.70102C7.15084 5.91068 7.01822 6.09096 6.88485 6.27124C6.42747 6.88592 5.97009 7.49664 5.51196 8.10417C5.47278 8.15341 5.43812 8.20106 5.38236 8.28207Z" fill="#0180C7"/>
<path d="M9.43393 6.34589C9.51757 6.23153 9.60498 6.12511 9.74815 6.09572C10.0239 6.03696 10.2824 6.22438 10.2861 6.51901C10.2967 7.25521 10.2929 7.9914 10.2861 8.72759C10.2861 8.91899 10.1671 9.08814 9.99605 9.14374C9.82124 9.21362 9.62231 9.15883 9.50702 8.99999C9.4475 8.92296 9.42338 8.90787 9.33975 8.97776C9.02177 9.25015 8.66234 9.2978 8.27429 9.16518C7.65265 8.95155 7.39796 8.4401 7.32789 7.81827C7.2548 7.14482 7.46728 6.57064 8.0407 6.21723C8.51541 5.91942 8.9969 5.94483 9.43393 6.34589ZM8.19743 7.68962C8.20421 7.85163 8.25319 8.00649 8.34437 8.13514C8.53274 8.4004 8.89292 8.45519 9.1476 8.25665C9.1898 8.2233 9.22823 8.18279 9.26289 8.13514C9.4588 7.8556 9.4588 7.39498 9.26289 7.11543C9.16493 6.97169 9.01122 6.88751 8.84695 6.88354C8.46267 6.85812 8.19366 7.17103 8.19743 7.68962ZM11.8542 7.71185C11.8263 6.766 12.4163 6.05919 13.255 6.03298C14.1456 6.0036 14.7951 6.63337 14.823 7.55302C14.8509 8.48458 14.3099 9.14294 13.475 9.23189C12.5632 9.32798 11.8399 8.63229 11.8542 7.71185ZM12.7305 7.6237C12.7237 7.80795 12.7757 7.98822 12.8805 8.13911C13.0726 8.40437 13.432 8.45599 13.6837 8.2495C13.7221 8.22012 13.7538 8.18359 13.7847 8.14626C13.9874 7.86672 13.9874 7.39498 13.7884 7.11543C13.6905 6.97566 13.5368 6.88751 13.3725 6.88354C12.9965 6.8613 12.7305 7.16308 12.7305 7.6237ZM11.5468 6.97963C11.5468 7.54984 11.5505 8.12085 11.5468 8.69106C11.5505 8.95234 11.3546 9.16994 11.1067 9.17709C11.0645 9.17709 11.0193 9.17312 10.9771 9.162C10.8023 9.11435 10.6697 8.91899 10.6697 8.68709V5.76059C10.6697 5.58746 10.6659 5.4183 10.6697 5.24517C10.6735 4.96165 10.8445 4.77741 11.1029 4.77741C11.3682 4.77344 11.5468 4.95768 11.5468 5.25232C11.5505 5.8273 11.5468 6.40545 11.5468 6.97963Z" fill="#0180C7"/>
<path d="M8.19746 7.69007C8.19369 7.17068 8.46269 6.85778 8.84321 6.88002C9.00748 6.88717 9.16119 6.97214 9.25915 7.11589C9.45506 7.39226 9.45506 7.85605 9.25915 8.13559C9.07077 8.40085 8.71059 8.45564 8.45591 8.2571C8.41371 8.22375 8.37528 8.18324 8.34062 8.13559C8.25322 8.00694 8.20424 7.85208 8.19746 7.69007ZM12.7305 7.62415C12.7305 7.16751 12.9958 6.86255 13.3733 6.88399C13.5376 6.88796 13.6913 6.97611 13.7892 7.11589C13.9881 7.39543 13.9881 7.87034 13.7855 8.14671C13.5895 8.40799 13.2264 8.45247 12.9784 8.24598C12.94 8.2166 12.9084 8.18007 12.8805 8.13957C12.7765 7.98867 12.7275 7.8084 12.7305 7.62415Z" fill="#FDFEFE"/>
</svg>
