<svg width="36" height="36" viewBox="0 0 36 36" fill="none" xmlns="http://www.w3.org/2000/svg">
<path d="M18.6666 28.75C18.6666 25.0833 20.6833 21.7833 23.6166 20.1333C21.2333 19.2167 18.2999 18.6667 14.9999 18.6667C6.93325 18.6667 0.333252 21.9667 0.333252 26V29.6667H18.6666V28.75ZM28.7499 22.3333C25.2666 22.3333 22.3333 25.2667 22.3333 28.75C22.3333 32.2333 25.2666 35.1667 28.7499 35.1667C32.2332 35.1667 35.1666 32.2333 35.1666 28.75C35.1666 25.2667 32.2332 22.3333 28.7499 22.3333ZM22.3333 7.66667C22.3333 11.7 19.0333 15 14.9999 15C10.9666 15 7.66658 11.7 7.66658 7.66667C7.66658 3.63334 10.9666 0.333336 14.9999 0.333336C19.0333 0.333336 22.3333 3.63334 22.3333 7.66667Z" fill="#00874A"/>
</svg>
