<svg width="215" height="175" viewBox="0 0 215 175" fill="none" xmlns="http://www.w3.org/2000/svg">
<g filter="url(#filter0_f_1_51)">
<ellipse cx="107.882" cy="131.705" rx="79.1837" ry="9.50388" fill="url(#paint0_radial_1_51)" fill-opacity="0.6"/>
</g>
<path d="M41.4268 60.8448L48.9055 76.0116C49.1274 76.4612 49.4551 76.8502 49.8603 77.1451C50.2656 77.44 50.7364 77.6319 51.2322 77.7044L67.9491 80.1174C68.5152 80.2042 69.046 80.4465 69.4826 80.8175C69.9192 81.1884 70.2443 81.6734 70.4218 82.2184C70.5993 82.7634 70.6222 83.347 70.4879 83.9042C70.3536 84.4614 70.0675 84.9704 69.6613 85.3745L57.5818 97.1767C57.2225 97.5266 56.9539 97.9589 56.7993 98.4362C56.6446 98.9135 56.6085 99.4213 56.6942 99.9156L59.5513 116.581C59.6492 117.15 59.5859 117.736 59.3683 118.272C59.1508 118.807 58.7879 119.271 58.3206 119.611C57.8532 119.951 57.3002 120.153 56.7241 120.194C56.148 120.236 55.5718 120.115 55.0608 119.845L40.1085 111.96C39.6646 111.727 39.1708 111.605 38.6695 111.605C38.1682 111.605 37.6744 111.727 37.2305 111.96L22.2782 119.845C21.7673 120.113 21.1918 120.233 20.6165 120.191C20.0413 120.149 19.4893 119.947 19.0228 119.607C18.5564 119.268 18.194 118.804 17.9767 118.269C17.7594 117.735 17.6957 117.15 17.793 116.581L20.6448 99.9156C20.7305 99.4213 20.6944 98.9135 20.5397 98.4362C20.3851 97.9589 20.1165 97.5266 19.7572 97.1767L7.67774 85.3745C7.27154 84.9704 6.98537 84.4614 6.85108 83.9042C6.7168 83.347 6.73968 82.7634 6.91717 82.2184C7.09466 81.6734 7.4198 81.1884 7.85638 80.8175C8.29295 80.4465 8.82382 80.2042 9.38988 80.1174L26.1068 77.6886C26.6026 77.6161 27.0734 77.4242 27.4786 77.1293C27.8839 76.8345 28.2116 76.4455 28.4334 75.9958L35.9122 60.829C36.1725 60.3204 36.5683 59.8938 37.0558 59.5964C37.5433 59.2991 38.1035 59.1425 38.6743 59.1442C39.2452 59.1458 39.8045 59.3055 40.2903 59.6057C40.7761 59.9058 41.1694 60.3347 41.4268 60.8448Z" fill="url(#paint1_radial_1_51)"/>
<g filter="url(#filter1_di_1_51)">
<path d="M41.4268 56.1247L48.9055 71.2915C49.1274 71.7412 49.4551 72.1302 49.8603 72.425C50.2656 72.7199 50.7364 72.9118 51.2322 72.9843L67.9491 75.3973C68.5152 75.4841 69.046 75.7265 69.4826 76.0974C69.9192 76.4684 70.2443 76.9533 70.4218 77.4983C70.5993 78.0433 70.6222 78.6269 70.4879 79.1841C70.3536 79.7414 70.0675 80.2504 69.6613 80.6544L57.5818 92.4566C57.2225 92.8065 56.9539 93.2389 56.7993 93.7161C56.6446 94.1934 56.6085 94.7012 56.6942 95.1956L59.5513 111.861C59.6492 112.43 59.5859 113.016 59.3683 113.552C59.1508 114.087 58.7879 114.551 58.3206 114.891C57.8532 115.231 57.3002 115.433 56.7241 115.474C56.148 115.516 55.5718 115.395 55.0608 115.125L40.1085 107.24C39.6646 107.007 39.1708 106.885 38.6695 106.885C38.1682 106.885 37.6744 107.007 37.2305 107.24L22.2782 115.125C21.7673 115.393 21.1918 115.513 20.6165 115.471C20.0413 115.429 19.4893 115.227 19.0228 114.887C18.5564 114.548 18.194 114.084 17.9767 113.549C17.7594 113.015 17.6957 112.43 17.793 111.861L20.6448 95.1956C20.7305 94.7012 20.6944 94.1934 20.5397 93.7161C20.3851 93.2389 20.1165 92.8065 19.7572 92.4566L7.67774 80.6544C7.27154 80.2504 6.98537 79.7414 6.85108 79.1841C6.7168 78.6269 6.73968 78.0433 6.91717 77.4983C7.09466 76.9533 7.4198 76.4684 7.85638 76.0974C8.29295 75.7265 8.82382 75.4841 9.38988 75.3973L26.1068 72.9685C26.6026 72.8961 27.0734 72.7041 27.4786 72.4093C27.8839 72.1144 28.2116 71.7254 28.4334 71.2757L35.9122 56.109C36.1725 55.6004 36.5683 55.1738 37.0558 54.8764C37.5433 54.579 38.1035 54.4225 38.6743 54.4241C39.2452 54.4257 39.8045 54.5855 40.2903 54.8856C40.7761 55.1858 41.1694 55.6146 41.4268 56.1247Z" fill="url(#paint2_radial_1_51)"/>
<path d="M48.4572 71.5127L48.4571 71.5126L40.9804 56.3499C40.98 56.3493 40.9797 56.3487 40.9794 56.348C40.7636 55.9211 40.4341 55.5622 40.0275 55.311L40.2903 54.8856L40.0275 55.311C39.6202 55.0594 39.1514 54.9255 38.6729 54.9241C38.1944 54.9227 37.7248 55.0539 37.3161 55.3032C36.9084 55.5519 36.5772 55.9084 36.359 56.3336L28.8819 71.4969L28.8818 71.497C28.6242 72.0192 28.2436 72.471 27.7728 72.8136C27.302 73.1561 26.7551 73.3791 26.1791 73.4633L26.1787 73.4633L9.46565 75.8915C9.46505 75.8916 9.46444 75.8917 9.46384 75.8918C8.99005 75.9648 8.54569 76.1678 8.18013 76.4784C7.8141 76.7894 7.54144 77.1961 7.39259 77.6532C7.24374 78.1102 7.22455 78.5997 7.33717 79.067L6.85108 79.1841L7.33717 79.067C7.44963 79.5337 7.68909 79.9599 8.02889 80.2985C8.02938 80.299 8.02987 80.2994 8.03036 80.2999L20.1061 92.0985L48.4572 71.5127ZM48.4572 71.5127C48.7148 72.035 49.0954 72.4868 49.5662 72.8293C50.037 73.1719 50.5839 73.3948 51.1599 73.479L51.1607 73.4792M48.4572 71.5127L51.1607 73.4792M51.1607 73.4792L67.8734 75.8915C67.8741 75.8916 67.8748 75.8917 67.8755 75.8919C68.3491 75.9649 68.7934 76.1679 69.1589 76.4784C69.5249 76.7894 69.7976 77.1961 69.9464 77.6532C70.0953 78.1102 70.1145 78.5997 70.0018 79.067C69.8894 79.5336 69.65 79.9598 69.3102 80.2984C69.3097 80.2989 69.3092 80.2994 69.3086 80.2999L57.2329 92.0985L51.1607 73.4792ZM59.0585 111.945L59.0584 111.945L56.2015 95.2809C56.2015 95.2808 56.2015 95.2806 56.2014 95.2804C56.102 94.7062 56.144 94.1163 56.3236 93.562C56.5033 93.0077 56.8151 92.5055 57.2323 92.099L59.0585 111.945ZM59.0585 111.945C59.1406 112.423 59.0875 112.915 58.9051 113.364C58.7227 113.813 58.4183 114.202 58.0265 114.487C57.6347 114.772 57.1712 114.941 56.6883 114.976C56.2054 115.01 55.7224 114.909 55.2941 114.683L40.3418 106.797L40.3409 106.797M59.0585 111.945L40.3409 106.797M40.3409 106.797C39.8253 106.526 39.2518 106.385 38.6695 106.385C38.0872 106.385 37.5137 106.526 36.9981 106.797L36.9972 106.797M40.3409 106.797L36.9972 106.797M36.9972 106.797L22.0459 114.683M36.9972 106.797L22.0459 114.683M22.0459 114.683C22.0457 114.683 22.0456 114.683 22.0454 114.683M22.0459 114.683L22.0454 114.683M22.0454 114.683C21.6173 114.907 21.135 115.008 20.653 114.972C20.1709 114.937 19.7082 114.767 19.3171 114.483C18.926 114.198 18.6221 113.81 18.4399 113.361C18.2576 112.913 18.2043 112.422 18.2859 111.945L21.1375 95.2809C21.1375 95.2807 21.1375 95.2806 21.1376 95.2804C21.237 94.7062 21.195 94.1163 21.0154 93.562C20.8358 93.0077 20.5239 92.5055 20.1067 92.099L22.0454 114.683Z" stroke="white"/>
</g>
<path d="M111.096 29.6453L121.343 50.4251C121.647 51.0412 122.095 51.5742 122.651 51.9782C123.206 52.3822 123.851 52.6451 124.53 52.7444L147.434 56.0504C148.21 56.1694 148.937 56.5014 149.535 57.0097C150.133 57.5179 150.579 58.1823 150.822 58.929C151.065 59.6757 151.096 60.4753 150.912 61.2388C150.728 62.0022 150.336 62.6996 149.78 63.2532L133.23 79.4233C132.738 79.9027 132.37 80.495 132.158 81.1489C131.946 81.8028 131.896 82.4986 132.014 83.1759L135.928 106.009C136.062 106.789 135.976 107.592 135.678 108.326C135.38 109.059 134.882 109.695 134.242 110.161C133.602 110.626 132.844 110.903 132.055 110.96C131.265 111.016 130.476 110.851 129.776 110.481L109.29 99.6773C108.682 99.3581 108.005 99.1913 107.318 99.1913C106.631 99.1913 105.955 99.3581 105.347 99.6773L84.8606 110.481C84.1607 110.849 83.3722 111.013 82.5841 110.955C81.796 110.897 81.0396 110.62 80.4005 110.155C79.7614 109.69 79.265 109.055 78.9672 108.322C78.6695 107.59 78.5823 106.788 78.7156 106.009L82.6228 83.1759C82.7401 82.4986 82.6907 81.8028 82.4788 81.1489C82.2669 80.495 81.8989 79.9027 81.4067 79.4233L64.8567 63.2532C64.3002 62.6996 63.9081 62.0022 63.7241 61.2388C63.5401 60.4753 63.5715 59.6757 63.8147 58.929C64.0579 58.1823 64.5033 57.5179 65.1015 57.0097C65.6996 56.5014 66.427 56.1694 67.2025 56.0504L90.1063 52.7228C90.7855 52.6235 91.4305 52.3606 91.9858 51.9566C92.541 51.5526 92.99 51.0196 93.2939 50.4035L103.541 29.6237C103.897 28.9268 104.439 28.3423 105.107 27.9349C105.775 27.5275 106.543 27.313 107.325 27.3153C108.107 27.3175 108.873 27.5364 109.539 27.9476C110.204 28.3588 110.743 28.9464 111.096 29.6453Z" fill="url(#paint3_radial_1_51)"/>
<g filter="url(#filter2_di_1_51)">
<path d="M111.096 24.9252L121.343 45.7051C121.647 46.3211 122.095 46.8541 122.651 47.2581C123.206 47.6621 123.851 47.9251 124.53 48.0243L147.434 51.3304C148.21 51.4493 148.937 51.7814 149.535 52.2896C150.133 52.7978 150.579 53.4623 150.822 54.209C151.065 54.9557 151.096 55.7552 150.912 56.5187C150.728 57.2822 150.336 57.9795 149.78 58.5331L133.23 74.7032C132.738 75.1826 132.37 75.775 132.158 76.4289C131.946 77.0828 131.896 77.7785 132.014 78.4558L135.928 101.288C136.062 102.069 135.976 102.872 135.678 103.606C135.38 104.339 134.882 104.975 134.242 105.441C133.602 105.906 132.844 106.183 132.055 106.239C131.265 106.296 130.476 106.131 129.776 105.761L109.29 94.9573C108.682 94.638 108.005 94.4712 107.318 94.4712C106.631 94.4712 105.955 94.638 105.347 94.9573L84.8606 105.761C84.1607 106.129 83.3722 106.293 82.5841 106.235C81.796 106.177 81.0396 105.9 80.4005 105.435C79.7614 104.97 79.265 104.335 78.9672 103.602C78.6695 102.87 78.5823 102.068 78.7156 101.288L82.6228 78.4558C82.7401 77.7785 82.6907 77.0828 82.4788 76.4289C82.2669 75.775 81.8989 75.1826 81.4067 74.7032L64.8567 58.5331C64.3002 57.9795 63.9081 57.2822 63.7241 56.5187C63.5401 55.7552 63.5715 54.9557 63.8147 54.209C64.0579 53.4623 64.5033 52.7978 65.1015 52.2896C65.6996 51.7814 66.427 51.4493 67.2025 51.3304L90.1063 48.0027C90.7855 47.9034 91.4305 47.6405 91.9858 47.2365C92.541 46.8325 92.99 46.2995 93.2939 45.6835L103.541 24.9036C103.897 24.2068 104.439 23.6223 105.107 23.2149C105.775 22.8074 106.543 22.593 107.325 22.5952C108.107 22.5974 108.873 22.8163 109.539 23.2275C110.204 23.6388 110.743 24.2263 111.096 24.9252Z" fill="url(#paint4_radial_1_51)"/>
<path d="M111.096 24.9252L121.343 45.7051C121.647 46.3211 122.095 46.8541 122.651 47.2581C123.206 47.6621 123.851 47.9251 124.53 48.0243L147.434 51.3304C148.21 51.4493 148.937 51.7814 149.535 52.2896C150.133 52.7978 150.579 53.4623 150.822 54.209C151.065 54.9557 151.096 55.7552 150.912 56.5187C150.728 57.2822 150.336 57.9795 149.78 58.5331L133.23 74.7032C132.738 75.1826 132.37 75.775 132.158 76.4289C131.946 77.0828 131.896 77.7785 132.014 78.4558L135.928 101.288C136.062 102.069 135.976 102.872 135.678 103.606C135.38 104.339 134.882 104.975 134.242 105.441C133.602 105.906 132.844 106.183 132.055 106.239C131.265 106.296 130.476 106.131 129.776 105.761L109.29 94.9573C108.682 94.638 108.005 94.4712 107.318 94.4712C106.631 94.4712 105.955 94.638 105.347 94.9573L84.8606 105.761C84.1607 106.129 83.3722 106.293 82.5841 106.235C81.796 106.177 81.0396 105.9 80.4005 105.435C79.7614 104.97 79.265 104.335 78.9672 103.602C78.6695 102.87 78.5823 102.068 78.7156 101.288L82.6228 78.4558C82.7401 77.7785 82.6907 77.0828 82.4788 76.4289C82.2669 75.775 81.8989 75.1826 81.4067 74.7032L64.8567 58.5331C64.3002 57.9795 63.9081 57.2822 63.7241 56.5187C63.5401 55.7552 63.5715 54.9557 63.8147 54.209C64.0579 53.4623 64.5033 52.7978 65.1015 52.2896C65.6996 51.7814 66.427 51.4493 67.2025 51.3304L90.1063 48.0027C90.7855 47.9034 91.4305 47.6405 91.9858 47.2365C92.541 46.8325 92.99 46.2995 93.2939 45.6835L103.541 24.9036C103.897 24.2068 104.439 23.6223 105.107 23.2149C105.775 22.8074 106.543 22.593 107.325 22.5952C108.107 22.5974 108.873 22.8163 109.539 23.2275C110.204 23.6388 110.743 24.2263 111.096 24.9252Z" fill="url(#paint5_radial_1_51)" fill-opacity="0.8"/>
<path d="M120.894 45.9263L120.894 45.9262L110.65 25.1504C110.649 25.1497 110.649 25.1491 110.649 25.1484C110.337 24.5328 109.863 24.0152 109.276 23.6529C108.689 23.2902 108.013 23.0972 107.323 23.0952C106.634 23.0932 105.957 23.2824 105.368 23.6417C104.78 24.0004 104.302 24.5148 103.987 25.1281C103.987 25.1292 103.986 25.1303 103.986 25.1314L93.7424 45.9046L93.7423 45.9047C93.4025 46.5934 92.9007 47.1891 92.2799 47.6408C91.6592 48.0925 90.938 48.3865 90.1786 48.4975L90.1782 48.4975L67.2783 51.8246C67.2777 51.8247 67.2771 51.8248 67.2764 51.8249C66.5932 51.93 65.9523 52.2227 65.4252 52.6706C64.8976 53.1189 64.5046 53.7051 64.2901 54.3638C64.0756 55.0226 64.0479 55.728 64.2102 56.4016C64.3724 57.0744 64.7177 57.689 65.2078 58.1771C65.2083 58.1776 65.2088 58.1781 65.2093 58.1786L81.7556 74.345C81.7557 74.3451 81.7557 74.3452 81.7558 74.3452L81.7561 74.3456L81.4067 74.7032C81.8989 75.1826 82.2669 75.775 82.4788 76.4289C82.6907 77.0828 82.7401 77.7785 82.6228 78.4558L120.894 45.9263ZM120.894 45.9263C121.234 46.615 121.736 47.2108 122.357 47.6624C122.977 48.1141 123.698 48.4081 124.458 48.5191L124.459 48.5192M120.894 45.9263L124.459 48.5192M124.459 48.5192L147.358 51.8246M124.459 48.5192L147.358 51.8246M147.358 51.8246C147.359 51.8247 147.36 51.8248 147.36 51.8249M147.358 51.8246L147.36 51.8249M147.36 51.8249C148.044 51.9301 148.684 52.2228 149.211 52.6706C149.739 53.1189 150.132 53.7051 150.346 54.3638C150.561 55.0226 150.589 55.728 150.426 56.4016C150.264 57.0743 149.919 57.6889 149.429 58.1769C149.428 58.1775 149.428 58.1781 149.427 58.1786L132.881 74.345L147.36 51.8249ZM131.682 76.2747C131.919 75.5438 132.33 74.8816 132.88 74.3456L131.682 76.2747ZM131.682 76.2747C131.445 77.0056 131.39 77.7832 131.521 78.5403L131.682 76.2747ZM83.1154 78.5412C83.1155 78.541 83.1155 78.5408 83.1155 78.5406L131.521 78.5412L135.435 101.373L135.435 101.373C135.554 102.062 135.477 102.77 135.214 103.417C134.951 104.065 134.513 104.626 133.948 105.036C133.383 105.447 132.715 105.691 132.019 105.741C131.323 105.791 130.627 105.645 130.009 105.319L109.523 94.515L109.522 94.5146C108.842 94.1577 108.086 93.9712 107.318 93.9712C106.55 93.9712 105.794 94.1577 105.114 94.5146L105.113 94.515L84.6283 105.319C84.011 105.642 83.3156 105.787 82.6206 105.736C81.9255 105.685 81.2585 105.441 80.6948 105.031C80.1311 104.62 79.6931 104.06 79.4304 103.414C79.1678 102.768 79.0909 102.061 79.2084 101.373C79.2084 101.373 79.2084 101.373 79.2084 101.373L83.1154 78.5412Z" stroke="white"/>
</g>
<path d="M179.853 60.8448L187.331 76.0116C187.553 76.4612 187.881 76.8502 188.286 77.1451C188.691 77.44 189.162 77.6319 189.658 77.7044L206.375 80.1174C206.941 80.2042 207.472 80.4465 207.908 80.8175C208.345 81.1884 208.67 81.6734 208.848 82.2184C209.025 82.7634 209.048 83.347 208.914 83.9042C208.779 84.4614 208.493 84.9704 208.087 85.3745L196.008 97.1767C195.648 97.5266 195.38 97.9589 195.225 98.4362C195.07 98.9135 195.034 99.4213 195.12 99.9156L197.977 116.581C198.075 117.15 198.012 117.736 197.794 118.272C197.577 118.807 197.214 119.271 196.746 119.611C196.279 119.951 195.726 120.153 195.15 120.194C194.574 120.236 193.998 120.115 193.487 119.845L178.534 111.96C178.09 111.727 177.597 111.605 177.095 111.605C176.594 111.605 176.1 111.727 175.656 111.96L160.704 119.845C160.193 120.113 159.618 120.233 159.042 120.191C158.467 120.149 157.915 119.947 157.449 119.607C156.982 119.268 156.62 118.804 156.403 118.269C156.185 117.735 156.122 117.15 156.219 116.581L159.071 99.9156C159.156 99.4213 159.12 98.9135 158.966 98.4362C158.811 97.9589 158.542 97.5266 158.183 97.1767L146.104 85.3745C145.697 84.9704 145.411 84.4614 145.277 83.9042C145.143 83.347 145.166 82.7634 145.343 82.2184C145.521 81.6734 145.846 81.1884 146.282 80.8175C146.719 80.4465 147.25 80.2042 147.816 80.1174L164.533 77.6886C165.028 77.6161 165.499 77.4242 165.904 77.1293C166.31 76.8345 166.637 76.4455 166.859 75.9958L174.338 60.829C174.598 60.3204 174.994 59.8938 175.482 59.5964C175.969 59.2991 176.529 59.1425 177.1 59.1442C177.671 59.1458 178.23 59.3055 178.716 59.6057C179.202 59.9058 179.595 60.3347 179.853 60.8448Z" fill="url(#paint6_radial_1_51)"/>
<g filter="url(#filter3_di_1_51)">
<path d="M179.853 56.1247L187.331 71.2915C187.553 71.7412 187.881 72.1302 188.286 72.425C188.691 72.7199 189.162 72.9118 189.658 72.9843L206.375 75.3973C206.941 75.4841 207.472 75.7265 207.908 76.0974C208.345 76.4684 208.67 76.9533 208.848 77.4983C209.025 78.0433 209.048 78.6269 208.914 79.1841C208.779 79.7414 208.493 80.2504 208.087 80.6544L196.008 92.4566C195.648 92.8065 195.38 93.2389 195.225 93.7161C195.07 94.1934 195.034 94.7012 195.12 95.1956L197.977 111.861C198.075 112.43 198.012 113.016 197.794 113.552C197.577 114.087 197.214 114.551 196.746 114.891C196.279 115.231 195.726 115.433 195.15 115.474C194.574 115.516 193.998 115.395 193.487 115.125L178.534 107.24C178.09 107.007 177.597 106.885 177.095 106.885C176.594 106.885 176.1 107.007 175.656 107.24L160.704 115.125C160.193 115.393 159.618 115.513 159.042 115.471C158.467 115.429 157.915 115.227 157.449 114.887C156.982 114.548 156.62 114.084 156.403 113.549C156.185 113.015 156.122 112.43 156.219 111.861L159.071 95.1956C159.156 94.7012 159.12 94.1934 158.966 93.7161C158.811 93.2389 158.542 92.8065 158.183 92.4566L146.104 80.6544C145.697 80.2504 145.411 79.7414 145.277 79.1841C145.143 78.6269 145.166 78.0433 145.343 77.4983C145.521 76.9533 145.846 76.4684 146.282 76.0974C146.719 75.7265 147.25 75.4841 147.816 75.3973L164.533 72.9685C165.028 72.8961 165.499 72.7041 165.904 72.4093C166.31 72.1144 166.637 71.7254 166.859 71.2757L174.338 56.109C174.598 55.6004 174.994 55.1738 175.482 54.8764C175.969 54.579 176.529 54.4225 177.1 54.4241C177.671 54.4257 178.23 54.5855 178.716 54.8856C179.202 55.1858 179.595 55.6146 179.853 56.1247Z" fill="url(#paint7_radial_1_51)"/>
<path d="M186.883 71.5127L186.883 71.5126L179.406 56.3499C179.406 56.3493 179.406 56.3487 179.405 56.348C179.189 55.9211 178.86 55.5622 178.453 55.311L178.716 54.8856L178.453 55.311C178.046 55.0594 177.577 54.9255 177.099 54.9241C176.62 54.9227 176.151 55.0539 175.742 55.3032C175.334 55.5519 175.003 55.9084 174.785 56.3336L167.308 71.4969L167.308 71.497C167.05 72.0192 166.669 72.471 166.199 72.8136C165.728 73.1561 165.181 73.3791 164.605 73.4633L164.605 73.4633L147.891 75.8915C147.891 75.8916 147.89 75.8917 147.89 75.8918C147.416 75.9648 146.972 76.1678 146.606 76.4784C146.24 76.7894 145.967 77.1961 145.818 77.6532C145.67 78.1102 145.65 78.5997 145.763 79.067L145.277 79.1841L145.763 79.067C145.875 79.5337 146.115 79.9599 146.455 80.2985C146.455 80.299 146.456 80.2994 146.456 80.2999L158.532 92.0985L186.883 71.5127ZM186.883 71.5127C187.141 72.035 187.521 72.4868 187.992 72.8293C188.463 73.1719 189.01 73.3948 189.586 73.479L189.587 73.4792M186.883 71.5127L189.587 73.4792M189.587 73.4792L206.299 75.8915C206.3 75.8916 206.301 75.8917 206.301 75.8919C206.775 75.9649 207.219 76.1679 207.585 76.4784C207.951 76.7894 208.223 77.1961 208.372 77.6532C208.521 78.1102 208.54 78.5997 208.428 79.067C208.315 79.5336 208.076 79.9598 207.736 80.2984C207.736 80.2989 207.735 80.2994 207.734 80.2999L195.659 92.0985L189.587 73.4792ZM197.484 111.945L197.484 111.945L194.627 95.2809C194.627 95.2808 194.627 95.2806 194.627 95.2804C194.528 94.7062 194.57 94.1163 194.749 93.562C194.929 93.0077 195.241 92.5055 195.658 92.099L197.484 111.945ZM197.484 111.945C197.566 112.423 197.513 112.915 197.331 113.364C197.149 113.813 196.844 114.202 196.452 114.487C196.061 114.772 195.597 114.941 195.114 114.976C194.631 115.01 194.148 114.909 193.72 114.683L178.768 106.797L178.767 106.797M197.484 111.945L178.767 106.797M178.767 106.797C178.251 106.526 177.678 106.385 177.095 106.385C176.513 106.385 175.94 106.526 175.424 106.797L175.423 106.797M178.767 106.797L175.423 106.797M175.423 106.797L160.472 114.683M175.423 106.797L160.472 114.683M160.472 114.683C160.472 114.683 160.471 114.683 160.471 114.683M160.472 114.683L160.471 114.683M160.471 114.683C160.043 114.907 159.561 115.008 159.079 114.972C158.597 114.937 158.134 114.767 157.743 114.483C157.352 114.198 157.048 113.81 156.866 113.361C156.683 112.913 156.63 112.422 156.712 111.945L159.563 95.2809C159.563 95.2807 159.563 95.2806 159.563 95.2804C159.663 94.7062 159.621 94.1163 159.441 93.562C159.262 93.0077 158.95 92.5055 158.532 92.099L160.471 114.683Z" stroke="white"/>
</g>
<path d="M10.7411 41.4884C10.4265 40.2531 11.5658 39.14 12.7919 39.4849L19.0017 41.2317C20.2278 41.5766 20.6211 43.1207 19.7097 44.0112L15.0935 48.5209C14.182 49.4114 12.6494 48.9803 12.3348 47.745L10.7411 41.4884Z" fill="#FBE481"/>
<path d="M176.711 15.5124C176.397 14.2771 177.536 13.1641 178.762 13.509L192.546 17.3863C193.772 17.7312 194.166 19.2753 193.254 20.1657L183.007 30.1762C182.096 31.0666 180.563 30.6355 180.249 29.4002L176.711 15.5124Z" fill="#FBE481"/>
<path d="M45.8061 8.00695C46.2951 5.97944 49.179 5.97945 49.668 8.00696L50.7347 12.4304C50.9094 13.1547 51.4748 13.7204 52.1991 13.8954L56.6259 14.9651C58.6522 15.4547 58.6522 18.3369 56.6259 18.8265L52.1991 19.8962C51.4748 20.0712 50.9094 20.6368 50.7347 21.3612L49.668 25.7846C49.179 27.8121 46.2951 27.8121 45.8061 25.7846L44.7394 21.3612C44.5647 20.6368 43.9993 20.0712 43.275 19.8962L38.8482 18.8265C36.8219 18.3369 36.8219 15.4547 38.8482 14.9651L43.275 13.8954C43.9993 13.7204 44.5647 13.1547 44.7394 12.4303L45.8061 8.00695Z" fill="#FBE481"/>
<path fill-rule="evenodd" clip-rule="evenodd" d="M30.8576 148.134C31.96 148.134 32.8537 147.24 32.8537 146.136C32.8537 145.033 31.96 144.138 30.8576 144.138C29.7552 144.138 28.8615 145.033 28.8615 146.136C28.8615 147.24 29.7552 148.134 30.8576 148.134ZM30.8576 151.064C33.5766 151.064 35.7807 148.858 35.7807 146.136C35.7807 143.415 33.5766 141.208 30.8576 141.208C28.1387 141.208 25.9345 143.415 25.9345 146.136C25.9345 148.858 28.1387 151.064 30.8576 151.064Z" fill="#FBE481"/>
<path d="M159.748 149.215C160.237 147.188 163.121 147.188 163.61 149.215L164.677 153.639C164.851 154.363 165.417 154.929 166.141 155.104L170.568 156.173C172.594 156.663 172.594 159.545 170.568 160.035L166.141 161.105C165.417 161.28 164.851 161.845 164.677 162.57L163.61 166.993C163.121 169.021 160.237 169.021 159.748 166.993L158.681 162.57C158.507 161.845 157.941 161.28 157.217 161.105L152.79 160.035C150.764 159.545 150.764 156.663 152.79 156.173L157.217 155.104C157.941 154.929 158.507 154.363 158.681 153.639L159.748 149.215Z" fill="#FBE481"/>
<path fill-rule="evenodd" clip-rule="evenodd" d="M191.121 125.606C192.223 125.606 193.117 124.711 193.117 123.608C193.117 122.504 192.223 121.61 191.121 121.61C190.018 121.61 189.125 122.504 189.125 123.608C189.125 124.711 190.018 125.606 191.121 125.606ZM191.121 128.536C193.84 128.536 196.044 126.33 196.044 123.608C196.044 120.886 193.84 118.68 191.121 118.68C188.402 118.68 186.198 120.886 186.198 123.608C186.198 126.33 188.402 128.536 191.121 128.536Z" fill="#FDE164"/>
<defs>
<filter id="filter0_f_1_51" x="8.00816" y="101.51" width="199.749" height="60.3889" filterUnits="userSpaceOnUse" color-interpolation-filters="sRGB">
<feFlood flood-opacity="0" result="BackgroundImageFix"/>
<feBlend mode="normal" in="SourceGraphic" in2="BackgroundImageFix" result="shape"/>
<feGaussianBlur stdDeviation="10.3453" result="effect1_foregroundBlur_1_51"/>
</filter>
<filter id="filter1_di_1_51" x="0.764832" y="52.4241" width="75.8093" height="73.0581" filterUnits="userSpaceOnUse" color-interpolation-filters="sRGB">
<feFlood flood-opacity="0" result="BackgroundImageFix"/>
<feColorMatrix in="SourceAlpha" type="matrix" values="0 0 0 0 0 0 0 0 0 0 0 0 0 0 0 0 0 0 127 0" result="hardAlpha"/>
<feOffset dy="4"/>
<feGaussianBlur stdDeviation="3"/>
<feComposite in2="hardAlpha" operator="out"/>
<feColorMatrix type="matrix" values="0 0 0 0 0 0 0 0 0 0 0 0 0 0 0 0 0 0 0.12 0"/>
<feBlend mode="normal" in2="BackgroundImageFix" result="effect1_dropShadow_1_51"/>
<feBlend mode="normal" in="SourceGraphic" in2="effect1_dropShadow_1_51" result="shape"/>
<feColorMatrix in="SourceAlpha" type="matrix" values="0 0 0 0 0 0 0 0 0 0 0 0 0 0 0 0 0 0 127 0" result="hardAlpha"/>
<feOffset dy="4"/>
<feGaussianBlur stdDeviation="8"/>
<feComposite in2="hardAlpha" operator="arithmetic" k2="-1" k3="1"/>
<feColorMatrix type="matrix" values="0 0 0 0 0.967431 0 0 0 0 0.799744 0 0 0 0 0.474236 0 0 0 0.5 0"/>
<feBlend mode="normal" in2="shape" result="effect2_innerShadow_1_51"/>
</filter>
<filter id="filter2_di_1_51" x="57.606" y="20.5952" width="99.4246" height="95.6552" filterUnits="userSpaceOnUse" color-interpolation-filters="sRGB">
<feFlood flood-opacity="0" result="BackgroundImageFix"/>
<feColorMatrix in="SourceAlpha" type="matrix" values="0 0 0 0 0 0 0 0 0 0 0 0 0 0 0 0 0 0 127 0" result="hardAlpha"/>
<feOffset dy="4"/>
<feGaussianBlur stdDeviation="3"/>
<feComposite in2="hardAlpha" operator="out"/>
<feColorMatrix type="matrix" values="0 0 0 0 0 0 0 0 0 0 0 0 0 0 0 0 0 0 0.12 0"/>
<feBlend mode="normal" in2="BackgroundImageFix" result="effect1_dropShadow_1_51"/>
<feBlend mode="normal" in="SourceGraphic" in2="effect1_dropShadow_1_51" result="shape"/>
<feColorMatrix in="SourceAlpha" type="matrix" values="0 0 0 0 0 0 0 0 0 0 0 0 0 0 0 0 0 0 127 0" result="hardAlpha"/>
<feOffset dy="4"/>
<feGaussianBlur stdDeviation="8"/>
<feComposite in2="hardAlpha" operator="arithmetic" k2="-1" k3="1"/>
<feColorMatrix type="matrix" values="0 0 0 0 0.967431 0 0 0 0 0.799744 0 0 0 0 0.474236 0 0 0 0.5 0"/>
<feBlend mode="normal" in2="shape" result="effect2_innerShadow_1_51"/>
</filter>
<filter id="filter3_di_1_51" x="139.191" y="52.4241" width="75.8093" height="73.0581" filterUnits="userSpaceOnUse" color-interpolation-filters="sRGB">
<feFlood flood-opacity="0" result="BackgroundImageFix"/>
<feColorMatrix in="SourceAlpha" type="matrix" values="0 0 0 0 0 0 0 0 0 0 0 0 0 0 0 0 0 0 127 0" result="hardAlpha"/>
<feOffset dy="4"/>
<feGaussianBlur stdDeviation="3"/>
<feComposite in2="hardAlpha" operator="out"/>
<feColorMatrix type="matrix" values="0 0 0 0 0 0 0 0 0 0 0 0 0 0 0 0 0 0 0.12 0"/>
<feBlend mode="normal" in2="BackgroundImageFix" result="effect1_dropShadow_1_51"/>
<feBlend mode="normal" in="SourceGraphic" in2="effect1_dropShadow_1_51" result="shape"/>
<feColorMatrix in="SourceAlpha" type="matrix" values="0 0 0 0 0 0 0 0 0 0 0 0 0 0 0 0 0 0 127 0" result="hardAlpha"/>
<feOffset dy="4"/>
<feGaussianBlur stdDeviation="8"/>
<feComposite in2="hardAlpha" operator="arithmetic" k2="-1" k3="1"/>
<feColorMatrix type="matrix" values="0 0 0 0 0.967431 0 0 0 0 0.799744 0 0 0 0 0.474236 0 0 0 0.5 0"/>
<feBlend mode="normal" in2="shape" result="effect2_innerShadow_1_51"/>
</filter>
<radialGradient id="paint0_radial_1_51" cx="0" cy="0" r="1" gradientUnits="userSpaceOnUse" gradientTransform="translate(107.882 131.705) rotate(89.8985) scale(17.2314 143.567)">
<stop stop-color="#FCE26E"/>
<stop offset="1" stop-color="#FFF0AF" stop-opacity="0"/>
</radialGradient>
<radialGradient id="paint1_radial_1_51" cx="0" cy="0" r="1" gradientUnits="userSpaceOnUse" gradientTransform="translate(19.9315 114.819) rotate(-65.1578) scale(67.5528 70.6211)">
<stop stop-color="#FFD50B"/>
<stop offset="1" stop-color="#FCF2D7"/>
</radialGradient>
<radialGradient id="paint2_radial_1_51" cx="0" cy="0" r="1" gradientUnits="userSpaceOnUse" gradientTransform="translate(19.9315 110.099) rotate(-65.1578) scale(67.5528 70.6211)">
<stop stop-color="#E2B514"/>
<stop offset="1" stop-color="#FCF2D7"/>
</radialGradient>
<radialGradient id="paint3_radial_1_51" cx="0" cy="0" r="1" gradientUnits="userSpaceOnUse" gradientTransform="translate(81.4276 129.018) rotate(-63.4575) scale(98.7341 68.0105)">
<stop stop-color="#FFD50B"/>
<stop offset="1" stop-color="#FCF2D7"/>
</radialGradient>
<radialGradient id="paint4_radial_1_51" cx="0" cy="0" r="1" gradientUnits="userSpaceOnUse" gradientTransform="translate(81.6455 98.8742) rotate(-65.1578) scale(92.5534 96.7574)">
<stop stop-color="#E2B514"/>
<stop offset="1" stop-color="#FCF2D7"/>
</radialGradient>
<radialGradient id="paint5_radial_1_51" cx="0" cy="0" r="1" gradientUnits="userSpaceOnUse" gradientTransform="translate(109.81 64.4228) rotate(94.0666) scale(35.1408 36.7246)">
<stop stop-color="white"/>
<stop offset="1" stop-color="white" stop-opacity="0"/>
</radialGradient>
<radialGradient id="paint6_radial_1_51" cx="0" cy="0" r="1" gradientUnits="userSpaceOnUse" gradientTransform="translate(158.357 114.819) rotate(-65.1578) scale(67.5528 70.6211)">
<stop stop-color="#FFD50B"/>
<stop offset="1" stop-color="#FCF2D7"/>
</radialGradient>
<radialGradient id="paint7_radial_1_51" cx="0" cy="0" r="1" gradientUnits="userSpaceOnUse" gradientTransform="translate(158.357 110.099) rotate(-65.1578) scale(67.5528 70.6211)">
<stop stop-color="#E2B514"/>
<stop offset="1" stop-color="#FCF2D7"/>
</radialGradient>
</defs>
</svg>
